<mxfile modified="2021-05-09T08:18:08.784Z" host="app.diagrams.net" agent="5.0 (Macintosh; Intel Mac OS X 10_12_6) AppleWebKit/537.36 (KHTML, like Gecko) Chrome/90.0.4430.93 Safari/537.36" etag="kLCyCD49Vo_Cd9BizPG7" version="14.6.10" type="github">
  <diagram id="Ht1M8jgEwFfnCIfOTk4-" name="Page-1">
    <mxGraphModel dx="4558" dy="2418" grid="1" gridSize="10" guides="1" tooltips="1" connect="1" arrows="1" fold="1" page="1" pageScale="1" pageWidth="1169" pageHeight="827" math="0" shadow="0">
      <root>
        <mxCell id="0" />
        <mxCell id="1" parent="0" />
        <mxCell id="UEzPUAAOIrF-is8g5C7q-74" value="AWS Cloud" style="points=[[0,0],[0.25,0],[0.5,0],[0.75,0],[1,0],[1,0.25],[1,0.5],[1,0.75],[1,1],[0.75,1],[0.5,1],[0.25,1],[0,1],[0,0.75],[0,0.5],[0,0.25]];outlineConnect=0;gradientColor=none;html=1;whiteSpace=wrap;fontSize=12;fontStyle=0;shape=mxgraph.aws4.group;grIcon=mxgraph.aws4.group_aws_cloud_alt;strokeColor=#232F3E;fillColor=none;verticalAlign=top;align=left;spacingLeft=30;fontColor=#232F3E;dashed=0;labelBackgroundColor=#ffffff;" parent="1" vertex="1">
          <mxGeometry x="-845" y="-290" width="1540" height="2130" as="geometry" />
        </mxCell>
        <mxCell id="UEzPUAAOIrF-is8g5C7q-77" value="Bucket" style="outlineConnect=0;fontColor=#232F3E;gradientColor=none;fillColor=#277116;strokeColor=none;dashed=0;verticalLabelPosition=bottom;verticalAlign=top;align=center;html=1;fontSize=12;fontStyle=0;aspect=fixed;pointerEvents=1;shape=mxgraph.aws4.bucket_with_objects;labelBackgroundColor=#ffffff;" parent="1" vertex="1">
          <mxGeometry x="-535" y="-169.2" width="105" height="109.2" as="geometry" />
        </mxCell>
        <mxCell id="8SGIqSPG6x6rBB3RRFAu-1" value="VPC" style="points=[[0,0],[0.25,0],[0.5,0],[0.75,0],[1,0],[1,0.25],[1,0.5],[1,0.75],[1,1],[0.75,1],[0.5,1],[0.25,1],[0,1],[0,0.75],[0,0.5],[0,0.25]];outlineConnect=0;gradientColor=none;html=1;whiteSpace=wrap;fontSize=12;fontStyle=0;shape=mxgraph.aws4.group;grIcon=mxgraph.aws4.group_vpc;strokeColor=#248814;fillColor=none;verticalAlign=top;align=left;spacingLeft=30;fontColor=#AAB7B8;dashed=0;" parent="1" vertex="1">
          <mxGeometry x="-660" y="80" width="1170" height="1510" as="geometry" />
        </mxCell>
        <mxCell id="8SGIqSPG6x6rBB3RRFAu-6" value="Public subnet" style="points=[[0,0],[0.25,0],[0.5,0],[0.75,0],[1,0],[1,0.25],[1,0.5],[1,0.75],[1,1],[0.75,1],[0.5,1],[0.25,1],[0,1],[0,0.75],[0,0.5],[0,0.25]];outlineConnect=0;gradientColor=none;html=1;whiteSpace=wrap;fontSize=12;fontStyle=0;shape=mxgraph.aws4.group;grIcon=mxgraph.aws4.group_security_group;grStroke=0;strokeColor=#248814;fillColor=#E9F3E6;verticalAlign=top;align=left;spacingLeft=30;fontColor=#248814;dashed=0;" parent="1" vertex="1">
          <mxGeometry x="-560" y="193.47" width="970" height="726.53" as="geometry" />
        </mxCell>
        <mxCell id="8SGIqSPG6x6rBB3RRFAu-10" value="" style="outlineConnect=0;dashed=0;verticalLabelPosition=bottom;verticalAlign=top;align=center;html=1;shape=mxgraph.aws3.s3;fillColor=#E05243;gradientColor=none;" parent="1" vertex="1">
          <mxGeometry x="-190" y="-190" width="120" height="140.5" as="geometry" />
        </mxCell>
        <mxCell id="8SGIqSPG6x6rBB3RRFAu-20" value="" style="outlineConnect=0;dashed=0;verticalLabelPosition=bottom;verticalAlign=top;align=center;html=1;shape=mxgraph.aws3.route_53;fillColor=#F58536;gradientColor=none;" parent="1" vertex="1">
          <mxGeometry x="442.75" y="-390" width="164.5" height="150" as="geometry" />
        </mxCell>
        <mxCell id="8SGIqSPG6x6rBB3RRFAu-23" value="" style="dashed=0;outlineConnect=0;html=1;align=center;labelPosition=center;verticalLabelPosition=bottom;verticalAlign=top;shape=mxgraph.weblogos.github" parent="1" vertex="1">
          <mxGeometry x="950" y="640" width="147" height="136.16" as="geometry" />
        </mxCell>
        <mxCell id="8SGIqSPG6x6rBB3RRFAu-25" value="Private subnet" style="points=[[0,0],[0.25,0],[0.5,0],[0.75,0],[1,0],[1,0.25],[1,0.5],[1,0.75],[1,1],[0.75,1],[0.5,1],[0.25,1],[0,1],[0,0.75],[0,0.5],[0,0.25]];outlineConnect=0;gradientColor=none;html=1;whiteSpace=wrap;fontSize=12;fontStyle=0;shape=mxgraph.aws4.group;grIcon=mxgraph.aws4.group_security_group;grStroke=0;strokeColor=#147EBA;fillColor=#E6F2F8;verticalAlign=top;align=left;spacingLeft=30;fontColor=#147EBA;dashed=0;" parent="1" vertex="1">
          <mxGeometry x="-430" y="1037" width="750" height="433" as="geometry" />
        </mxCell>
        <mxCell id="8SGIqSPG6x6rBB3RRFAu-30" value="" style="outlineConnect=0;dashed=0;verticalLabelPosition=bottom;verticalAlign=top;align=center;html=1;shape=mxgraph.aws3.rds;fillColor=#2E73B8;gradientColor=none;" parent="1" vertex="1">
          <mxGeometry x="-320" y="1180" width="170" height="210" as="geometry" />
        </mxCell>
        <mxCell id="8SGIqSPG6x6rBB3RRFAu-40" value="" style="points=[[0,0,0],[0.25,0,0],[0.5,0,0],[0.75,0,0],[1,0,0],[0,1,0],[0.25,1,0],[0.5,1,0],[0.75,1,0],[1,1,0],[0,0.25,0],[0,0.5,0],[0,0.75,0],[1,0.25,0],[1,0.5,0],[1,0.75,0]];outlineConnect=0;fontColor=#232F3E;gradientColor=#F78E04;gradientDirection=north;fillColor=#D05C17;strokeColor=#ffffff;dashed=0;verticalLabelPosition=bottom;verticalAlign=top;align=center;html=1;fontSize=12;fontStyle=0;aspect=fixed;shape=mxgraph.aws4.resourceIcon;resIcon=mxgraph.aws4.elastic_load_balancing;" parent="1" vertex="1">
          <mxGeometry x="250" width="139.5" height="139.5" as="geometry" />
        </mxCell>
        <mxCell id="8SGIqSPG6x6rBB3RRFAu-45" value="User" style="outlineConnect=0;fontColor=#232F3E;gradientColor=none;strokeColor=#232F3E;fillColor=#ffffff;dashed=0;verticalLabelPosition=bottom;verticalAlign=top;align=center;html=1;fontSize=12;fontStyle=0;aspect=fixed;shape=mxgraph.aws4.resourceIcon;resIcon=mxgraph.aws4.user;" parent="1" vertex="1">
          <mxGeometry x="-140" y="-670" width="190" height="190" as="geometry" />
        </mxCell>
        <mxCell id="8SGIqSPG6x6rBB3RRFAu-52" value="" style="whiteSpace=wrap;html=1;aspect=fixed;" parent="1" vertex="1">
          <mxGeometry x="848.51" y="850" width="398.25" height="398.25" as="geometry" />
        </mxCell>
        <mxCell id="8SGIqSPG6x6rBB3RRFAu-55" value="" style="aspect=fixed;html=1;points=[];align=center;image;fontSize=12;image=img/lib/mscae/Docker.svg;" parent="1" vertex="1">
          <mxGeometry x="941.6300000000001" y="1067" width="212" height="173.84" as="geometry" />
        </mxCell>
        <mxCell id="8SGIqSPG6x6rBB3RRFAu-57" value="" style="shape=image;html=1;verticalAlign=top;verticalLabelPosition=bottom;labelBackgroundColor=#ffffff;imageAspect=0;aspect=fixed;image=https://cdn3.iconfinder.com/data/icons/popular-services-brands-vol-2/512/ruby-on-rails-128.png" parent="1" vertex="1">
          <mxGeometry x="890" y="914.12" width="109.75" height="109.75" as="geometry" />
        </mxCell>
        <mxCell id="8SGIqSPG6x6rBB3RRFAu-58" value="" style="shape=image;html=1;verticalAlign=top;verticalLabelPosition=bottom;labelBackgroundColor=#ffffff;imageAspect=0;aspect=fixed;image=https://cdn4.iconfinder.com/data/icons/logos-3/181/MySQL-128.png" parent="1" vertex="1">
          <mxGeometry x="1050" y="895.87" width="128" height="128" as="geometry" />
        </mxCell>
        <mxCell id="8SGIqSPG6x6rBB3RRFAu-61" value="" style="outlineConnect=0;dashed=0;verticalLabelPosition=bottom;verticalAlign=top;align=center;html=1;shape=mxgraph.aws3.internet_gateway;fillColor=#F58534;gradientColor=none;" parent="1" vertex="1">
          <mxGeometry x="450" y="440" width="130" height="160" as="geometry" />
        </mxCell>
        <mxCell id="8SGIqSPG6x6rBB3RRFAu-69" value="" style="outlineConnect=0;dashed=0;verticalLabelPosition=bottom;verticalAlign=top;align=center;html=1;shape=mxgraph.aws3.ec2;fillColor=#F58534;gradientColor=none;" parent="1" vertex="1">
          <mxGeometry x="-356" y="281" width="166" height="189" as="geometry" />
        </mxCell>
        <mxCell id="8SGIqSPG6x6rBB3RRFAu-78" value="" style="shape=image;html=1;verticalAlign=top;verticalLabelPosition=bottom;labelBackgroundColor=#ffffff;imageAspect=0;aspect=fixed;image=https://cdn4.iconfinder.com/data/icons/logos-brands-5/24/nginx-128.png" parent="1" vertex="1">
          <mxGeometry x="-30" y="281" width="200" height="200" as="geometry" />
        </mxCell>
        <mxCell id="kDyuwAgNTU1D6oL-81Pc-1" value="" style="shape=image;verticalLabelPosition=bottom;labelBackgroundColor=#ffffff;verticalAlign=top;aspect=fixed;imageAspect=0;image=data:image/png,iVBORw0KGgoAAAANSUhEUgAAAkcAAAI8CAYAAAD7pg/1AAAACXBIWXMAAC4jAAAuIwF4pT92AAAgAElEQVR42u3dy3Ubx6I20M9neU7+A/RUcATijUBwBOKJQFAEpiIwFIGpCARFYCoCgRGYjMDktDE4QgT6ByjYtKwH8e7H3mtx6VxfkSKqq6u/enTVD58+fQoAAEv/UQQAAMIRAIBwBAAgHAEACEcAAMIRAIBwBAAgHAEACEcAAMIRAIBwBAAgHAEACEcAAMIRAIBwBAAgHAEACEcAAMIRAIBwBAAgHAEACEcAAMIRAIBwBAAgHAEAIBwBAAhHAADCEQCAcAQAIBwBAAhHAADCEQCAcAQAIBwBAAhHAADCEQCAcAQAIBwBAAhHAADCEQCAcAQAIBwBAAhHAADCEQCAcAQAIBwBAAhHAADCEQAAwhEAgHAEACAcAQAIRwAAwhEAgHAEACAcAQAIRwAAwhEAgHAEACAcAQAIRwAAwhEAgHAEACAcAQAIRwAAwhEAgHAEACAcAQAIRwAAwhEAgHAEACAcAQAIRwAACEcAAMIRAIBwBAAgHAEACEcAAMIRAIBwBAAgHAEACEcAAMIRAIBwBABwZD8qAmBXqkF1luS0/J8P/3e+8d8e+pjk5hv/7WM9r2+UNLBPP3z69EkpAOuEn+GDkLP68+kRfp3bB8HpY5KZ8AQIR8C+QtAqAD38etKij3Cb5K4Ep1mSm3pef3RlAeEIeGwYGiUZtTQIPdb9g7A0M8IECEfAwzB0luS8BKJnPS2GxSooCUuAcAT9C0OnD8LQeZITpfIv9yUoXZWwZBoOhCOgY4FoWILQefo7OrSN9yUoXQlKIBwB7Q1EqxGiixznDTJBCRCOgEaEovMk4yTPlcbevSsh6UpRgHAENCsQDbMcIRrHGqJjuE8yTTKt5/Wd4gDhCDheKFpNm1lH1BzvSkiaKQoQjoDDBKLVWqJJurkHUVfcJrms5/VUUYBwBOwvFF2UL1Nn7XGf5DLL0SQLuEE4AoQiikUJSZdCEghHgFCEkATCESAU8d2QNKnn9aWiAOEI+HowGsdC6765T3JhryQQjoB/hqJRllMtdrLur+sSkhx6C8IR9DoUDUsosps1K2+ynG6zHgka4D+KAA4ajC6S3AhGfOaXJHdlihU4MiNHcJhQdJblUROm0Pie6yRjR5LA8Rg5gv0Ho0mSPwQjHulZkptSb4AjMHIE+wtFRovY1m2Sc6NIcFhGjmA/wWgSo0Vs72mWo0gXigIOx8gR7DYUDZNcCUXswXWWo0jeaIM9M3IEuwtG51m+iSYYsQ/PsnyjbaQoQDiCNgSjyyS/x9Ef7NdJkg8Wa8N+mVaD7ULRMKbROA7TbLAnRo5g82A0imk0jmf1yv+ZogDhCJoQjMZJPsQ0Gsf1JMnMztogHMGxg9E0yVslQUOcJHlrHRLsjjVH8PhQdJrl+qJnSoOGepfkwjokEI7gUMFoFuuLaL7bJCMBCTZnWg2+H4zOktwJRrTE0yzXIQ0VBWzGyBF8PxjNYuE17bPIcgTpRlHAeowcgWBEN51kOYLkVX8QjmAnwWic5cGxghECEghHIBjFq/oISCAcAYIRAhIgHIFghIAE/IO31SB/Lb7+Q0nQA95ig+8wcoRg9PdbadAHRpDgO4wcIRh5XZ9+WiQZ2kkb/s3IEX0ORqeCET22GkE6VRQgHIFgBEtPY0oZhCMoruKsNEiSp9WgmioGEI7osfIgeKYk4C8vqkE1UQywZEE2fQtG49jLCL7mZT2vp4oB4Ug4oj/BaJTkg5KAr7IHEghH9CgYDZPcxAJs+J77JGde8afPrDmiL64EI3iUJ0mmigHhCDqsGlSX8WYarOO5Bdr0mWk1uh6MzpP8riRgIz/X83qmGBCOoDvBaBjrjGAbjhihl0yr0WVTwQi2chLrjxCOoBvKegkbPcL2nleD6kIx0Cem1ehiMDpL8oeSgJ1ZZPl6/52ioA+MHNFFU0UAO2V6DeEI2qpMp3ltH3bvmek1+sK0Gl0KRqbTYL9Mr9ELRo7okqkigL0yvYZwBG1RhvtNp8H+PSubq0JnmVajC8FoGJs9NsmiXI+7z76S5O5bUzJlavS0/J/Dz77OXONGXWObQ9JZPyoCOmDioXnUh+SshKFZkpttHpj1vL55RBAeJhmVL4HpOE7KfWeBNp1k5IhWqwbVKMkHJXFQ10muksy+F2YOVAfOkpyXL1Orh/WTxdkIR9C8cHTjgXgQ70sgumryVEo1qE4fBKXnLtv+g3I9r0eKAeEImvMgHCd5qyT25jbJZdMD0Tfqx7CEpIskT1zOvfm5ntczxYBwBM0YIbjx0NuLd0mmXXrglenXixhN2of7el4PFQNd4lV+2spowG4tSij6qZ7X466NBNTzelbP6/MkP5XPye48KaO40BlGjmjjKMBplq+Ge0tpN94kmfTptewy5TZJ8sLl3wmjR3SKkSPa6EIw2onVSNFF3/arqef1XT2vx1mOJF2rClt74tw1usTIEW3r8Rs12t5tkguLaP9Rr0ZZHothqnZzNoakM4wc0TZGjbZ7eL2q5/WZYPRPZU3SMMlrpbGxk9gUko4wckSbevdGjTZ3nWRsw75H1bOzLEeR7J+1PmuP6AQjR7SJUaPNvKrn9Ugwepx6Xt/U8/osRpE24c01OsHIEW3pzRs12qAXn+S8CUd8tLjejbLcGVy9W6PeGT2i7Ywc0RbnHlBreZ/kTDDaTlmbNcxyETuPY/QI4QgOZKIIHu1NPa/PvTW0s4D0sUyz2Tzy8YQjhCPYp2pQnccr1o/1sp7X3hjaT0gaJ3mlJB7lWVnYDsIR6IUezSLLA0CnimKvAekyyUsl8ShCOq1lQTaNVo55+FNJfDcYjawvOmi9HMVC7cf4f6Z3aSMjR+h9CkasqSzUHpXy5+vGigDhCDSuglF/AtKNgKRzg3AEB1UWYpu2EIyaHpDOlcRXPbEwG+EIdmusCL7K5o7NCUizWKT9LUaPEI5gF8qO2M+VxBe9dHBs4wLSNF7z/2qQVwQIR6BB3ac3XtdvbEC6jI0iv+SkTJGDcARbMhT/b+9t8Nj4gDSOo0a+ZKwIEI5gC2Vvo6dK4h/uPWBaYxRvsH3ueZkqB+EINmQI/gtlYjO9dijXSR12XyMcwc573vztlTfTWheQZkneKAn3Ne3k+BAapQy9/09J/OW6ntceKu2tzzcxRbyyqOe1qTVawcgRTWPo/cHDJNYZtZ3r9zdvrSEcwYZGiuAvk3pe3ymG9irToa+VhPsb4Qi2oWe5dFv2zaH9LrN82xD3N8IRrKecweQstSX7GXVEeXvN9Vx6UrbqAOEI9CrX8s7xIJ0LSFdJrpVEElNrCEeg0dzARBF0ktEj9zkt8aMigEZ50+VF2GVKZfiNv3LX1c9fz+ubalC9S/JCOIJms88RTXpwzpI863ERLJIMu7ITdtmz6rw8DM+y3n4/10luksySzDpUJsMkf7rb85M3MWky02o0Sd8by6u2h4BqUJ1Wg2pcNj/8X5K3WY6UrLsR4rMkvyT5Pcn/qkF1VQ2qcdsvcAkE79zqRo8QjuCxpj3//JMWh6JhNaimJeC+ze53hX6e5G01qD5Wg2rS8kNMbdGwHEkE4Qge0aueJXnf04//uo3TDGWk6DLLqaIX2f9WDCdJfk1y19aQVDaG7PubayMtHsIRPN64hw+ON/W8nrQwGJ1nOVL0yxH++VVIuqkGVRsftH0fPXLeHI1mQTZNffCOS1Dq8gLt90ku27anURmtmWY51dWYgJnlcSsfW1SOd0me9Pg2/9l+XghHQBdC61mSq4Y+1G+TnLdlerIaVJMsR7/66pUjcmgq02rAOsFoluaOdjzNcpqtLYt9pz2vUkN3FcIR0OZgNE7yR5p/9t1JklkbAlIZ4brtcbXyxhrCEdDaYDTK8vX8tmhNQEq/R4+EI4QjoJXBaLXGqG1WAanpr/pf9bh6nbR8vyqEI6CHwei0PLxPWvoRTrJcI9VYptaMHiEcAe0yTftfNX9aNqlsslmP69jQbYZwBLRC2eDxeUc+zi8N3yiyz1NrwhHCEdCKYLTa5LFLGvt5er4Romk1hCOgFS7T3nVGX/OkbLrYVH09a82CbIQjoNmqQTXM8gDZLrpo8NtRNz2tckN3HcIR0HSTDn+2kyQXwlGjPHHLIRwBjVVGVV50/GOOhSNAOALaHhx26Ul5E69R6nnd23DU8DcJEY4A4cjnPKJbVRCEI6A5vfdhlqfa90FT92/6qCaCcAQ0x6hnYfC8gb/WrKd1b+j2QzgChKPjs/mgcATCESAcNfzzemMNhCOgQfq230wTR46sOQLhCGiCalD1cYrpxJUHhCPga3p5vlVPQyEgHAHCUWs+952qCMIR0AxGUBqgntfCEQhHAADCEQCAcAQ02kwRHF85wgUQjgCOpmn7CglHIBwBQsLx1PPajtSAcAQICcXClQeEI+Bbbnv2eZsYCIeqIQhHgLBwLDPhCBCOgLaFBZ+3H+4UAcIRICwc16Ke1038vCPhCIQjoCHK0RV9WXd01dDf61RNBOEIaJapcHRUT1VBaIYfPn36pBSAVIPqNMspjpMOf8z7el4PG1j2Z0n+6GO9q+f1D+4+msbIEbB6SH1Mc0dVdmXa0N/rTA0E4QhopkmHP9siyaVw1Cj3bjmEI6DRysLsNx39eJdldKyJRj2tcnfuOoQjoA0m6d7xGvf1vJ40+Pfr62Lsj243hCOg8croyrhjH6uxn6caVOc9rm4O/0U4AloTkK6SvO/Ix3nT0E0fV0Y9rmp37jaEI6BNxmn/xpC39by+aPjv2OeRI+EI4QhojwfTa21df7RIw0dlqkE1TPKkx9XMtBrCEdC6gHRTAkbbAtIiyajBb6et9HnUaNGC64NwBNCJgLQKRm0YlRj3uGoZNUI4AgQkwehvZUqtz+epCUcIR0BnAlJTF2nfJhm2ZMQoSS56XqXu3FU01Y+KgIb2qsfl4dHlnvX7LHdtnrUpIFWDapTlMRwvGvSrvWnBW2mfO+/5bW7kiMb64dOnT0qBJoWi0ywPP33Wo4/9rp7X4xZeq/MsD3I9OeKvcZ9k3KaA+SD8v+3zvV7P6x+0eDSVaTWaZtqzYJQkL6pBNWnhw+0qyTDJ6xx+LdIiyet6Xg/bFoyKcc/v89tAgxk5okm96VGSDz0ugp/Kwa9tvHanWU6DXmS/I0mLLKf0Ltv6Grh6nqSd06D0iJEj9KabY9LWX7ye1x/Lwa7DJC+z+6NH3id5Wc/r03peT1q+P87YrW69Ec1m5Igm9ahn6d+U2udaO3r0het5muXbbaMkZ2te2+vyAJ0lmXVls8Dy+v6f7vbu1HO6ydtq0CyTdGRkoQSaq/L1MDCdfWtEoeO7Jk9U8dwLRjSdkSOa1KuexciRXnV36/co1holLX07k36x5ogmuVIESZYLjumeiSJIspwqBeEINJpreV5GGeiIsieUUVH3OcIRrKcc+7BQEkmMHnUpGJ26nn+5NWWMcATrM7W29LSNG0PyRZMkTxRDEqNGCEeg8dzSRXn1m5aqBtVZkl+UhM4PwhFoPHfjJMvjVGhnMDp1/f5h0dKjXhCO4LjKHjfvlcRfnplea61JkqeKQccH4Qg0orv3a5meoSXK22mm09zXtJRNIGnig2UYRyx87j7JWcd3j+5S/b3Jfg/gbZtFPa9PFQNtYeSIximv+ppa+6cnet6tCEan5ToJRv+k7iIcgcZ0L55Vg8p+Oc12GeuM3M+0nmk1mtwD/5+S+KKX9byeKobG1dlJkl+VxL+YUqN1jBzRSN5a+6a3ZcEvzQlGY8Hoq4waIRzBDk0VwdfLxhtsjQpGb5XEV5kKpnVMq9H0B89dHL3wNYsko3ImHcepn2dJ/lASX3Vbz2shntYxckTTTRXBV50kmRlBOmowmikJ9y/CEWhcBSTBaDmV9ke8sv8tC/cvwhHsgT2P1gpIFmkfLhhZY/R9VzYtRTiC/bGg83EB6ffy4GZ/wWgiGLlv6T4LsmnLQ+kuFmY/1pt6Xl8ohp3XwWmSF0riUa7reT1SDLSVkSPaYqIIHu2XalDNykaabB+KhtWguhGM1mLUiFYzckSbHlIfYwHsOu6TnHvVf6s6N4qz0taud/W8HioG2szIEXqj3fUkyR9lnQzrB6PLJB8Eo7Wpb7SekSPa9LA6TXLnYbWR6yTj8vYf365nZ1m+gu4A2fUZNaITjBzRGuW1YKNHm3mW5MYo0rfDdymfPwSjjalfdIKRI1r3AIvRo23dJrmo5/VMUfxVr85L8PZG5OaMGtEZRo5oFaNHO/E0yYdqUF1Vg6rXD7NqUJ1Vg2qW5HfBaGsTRUBXGDmijQ80o0e79S7JpE/rkUoonMTr+bti1IhOMXJE6xg92rkXSf6sBtW06yNJZc+iaZI/BaOdmigCusTIEW1+0N3FVMg+vE9y2aU1SWVN0UWWC9PZrdt6Xjv4GOEIGvLAG8c5V/t0n+UI3VUbp9zKKNi4fAnR+/Ozxf0IR9CsB+DMaMBBvM9yp+hGn7ReAtF5CURex98/Z6ghHEEDH4ajLHcx5nBuHwSlm4bUgVEJRQLRYf1kY1GEI2hmQJrG4tpjWSS5STIrf97s82FZRobOytcoRg2P6XU9ryeKAeEImhmOvNrfPNdJPpbAtPozSfK19SnlOj5c2Dsqf54lORWEGuU+yVmTp1hBOEJAGlQXSX5TEnAQ/63n9ZViQDiC5gekWYwuwL69r+f1uWKgy2wCSZdcKALYq4X7DOEIWqS8OfVaScDeTLydRh+YVqNzqkF1E690w67Z04jeMHJEF40VAezUwn2FcAQtZnoNdu7CdBp9YlqNzvL2GuyEt9PoHSNHdNk4y+kAYDP3MZ2GcATdUaYBNOywuXO7YCMcQfcC0lWSN0oC1vaqCQcLwzFYc0QveL0f1mKdEb1m5Ii+GMX6I3iM25iORjiC7ivrJkZKAr5pkWRsnRHCEfQnIN0keakk4KvG1hmBcET/AtI0yTslAf/yqrzAAL1nQTa9VA2qqyTPlQQkSd7V83qsGGDJyBF9Nc5y4Sn03bVgBMIRPFygfa806LHbJF7ZB+EI/hGQzuMVf/rpPsnIm2kgHMHnAekm9kCifxZxNAgIRyAgwV/BaOSVffg6b6tBUQ2qsyR/KAkEI+g3I0dQ2CQSwQgQjuDfAWkqICEYQb+ZVoMvKFNssyQnSgPBCPrFyBF8gUXaCEYgHAECEt1yLxiBcAT7DEh20qZNbpOcCUYgHME+A9JZnMVGO1zHztewFQuy4ZGqQXWaZJrkudKgod45RBaEIzhGSLpM8ouSoGFe1fP6UjGAcATHCkjjJG+VBA2wSDKu5/WVogDhCI4dkOyFxLHdlmBk4TXskAXZsKHyQBrGQm2O4328qg97YeQIdsA6JA7M+iIQjqAVAek8y7fZTLOxL/dZTqPNFAUIR9CWgHSa5CrJM6XBjr0vwcj+RSAcQStD0kWS35QEO7BIclHP66miAOEI2h6QzrKcZnuqNNjQdZajRXeKAoQj6FJImiT5VUmwhkWSiUXXIBxBlwPSWZLLWIvE9xktAuEIehWSLpJM4o02/s1O19AQNoGEAyrTJMMk75QGD7xJMhSMoBmMHMGRVINqlOUokqm2/jKFBsIR8IWQNC4h6YnS6A2bOYJwBDwiJE2SXMR6pK6Hook9i0A4Ah4fkE5LQBKSusWr+SAcAUISWY4UTZNcOvYDhCNgtyFpHGuS2haKTJ+BcATsOSiNY+F2010nmQpFIBwBhw1JoyxHk54rjcZ4l+XU2Y2iAOEIOF5IGmY53TaO0aRjuM/ySJip9UQgHAHNC0rnSc6TvFAae7VIclUC0UxxgHAEND8knZaQdB7Tbrv0PsmVtUQgHAGCUl8tksyyHCW6Mm0GwhHQzaA0KkFpFGuUvuS+hKGZA2BBOFIK0L+wdFZC0uqrjxtNrkaHZlmODt2pGYBwBHwellZ/dnFk6TbJTQlDN167B4QjYJ2wdPogKA3L/37aoo9wneSuhKEbb5YBwhGwr9A0LGFpVP7T6s9nB/5VFiX4JMuRoI/l/74zPQYIR0ATw1OSrEafPvfw7zx0U0LO52YP/443xwDhCADggP6jCAAAhCMAAOEIAEA4AgAQjgAAhCMAAOEIAEA4AgAQjgAAhCMAAOEIAEA4AgAQjgAAhCMAAOEIAEA4AgAQjgAAhCMAAOEIAEA4AgAQjgAAhCMAAOEIAEA4AgBAOAIAEI4AAIQjAADhCABAOAIAEI4AAIQjAADhCABAOAIAEI4AAI7gR0UAAHxNNaiGSYZJbup5/bEPn/mHT58+ufIAwCoMnSUZJxklefqFv3Kd5CrJtKthSTgC2tJgj77zV3rTq4U93WPDJNMkzx75LYskl0kuu3bvCUdA0xvscZK3j/zr7+p5PVZqsNF9dpnkZINvv00yruf1jXAEcJhGe91G6ud6Xs+UHOylA/I1iySjrgQkC7LZ5CYa59/Dru+TXNXzeqqUAFrTpp/vIBglyxGnWTWohl2YYvMqP4+9gc6qQXVTbqIvzUc/T/K2GlSzalCdKjGAxrfrp1muMdqVkywXareecMSjglGSWb781sLnniW5E5AAGm/TNUbffAY84uUJ4YhO9Cyu1ryBOtN7AOhw2/5iTz/+Qjii6y6SPNmw9zBWfACNdL7Hn/287bMHwhHfM27ozQfA5kYt//nCEcdRNgR7ssWPeK4UARppuOeffyYc4eb5dsACoFnOFIFwBAD87UQRCEdsZuuNvOp5facYARrnWhEIR2wWbG6y3BJ+U7dKEaCbnd/vaHXHWDjie6ZH+l4A9mfW8p8vHHFUk2w2enQvHAE01j436r1t+5IK4YhvKgcIjtf8tkWS8y4cPgjQ0bb9Lsm7Pf34y7aXj3DEY26iqyT/zeNGkBZJRmW9EgDNNdnDz7yt5/VUOKJPAWlYehqLr4Si10mGghFAK9r1uySvdvgjF9nuVIXG+OHTp09qCGurBtVZktXZOR8FIvZY19ZtpH6u5/VMycGj77FpdnMI7csujBolyY+qBRv2OIQhgG605+NqUH1M8suGP2KRZFxmGDrBtBoACEgXWa4tvV/zW6+TnHUpGAlHAMAqIF3V83qY5GWS99/4q4ss15/+XM/rURdPQjCtBgA8DEnTlH3qqkE1+uz/3Ys1psIRAPC1oDTr4+cWjrZQDaphkrPydVr+XHn24H/f5u9zbD4mucny3Jk7b9U0+poOy9fKXZKLJmxuWQ2qVX1b9eoe9u7O8veJ2/f5+4yjVd1b/Xljo87G1b1huZbak+Ncg9V9/6X7/2vX4O7B142XVbrBq/zrN17npfEaPXgAbeu6NHBXGrejXNPRg+v6vWv6qp7Xl0f8PVdfT3b0o2+zPANplmTWxLDU1Vf599ie3D64nlfu8u+GodX9f7bjNn11DbTpwlFnH54X5eZ5coB/cpHlmTdXTWnYypzzh3W+p57XP2zQSF1+1jv7kvsk03peT7b4PKflel4kebrmt7/e5t/e4Pccl6+nB7rc7x/Uv48NqX+dCUfak8YEovERrsG0ifWyGlSzR7S7jWwjhaPjVJjVQ+nZEX+N1eGtl8d8UB0oHN2t2VD937rD1w8eTOMteoh7v/FLeY+zm03Ztm3QJ8d+E6UL4Uh70phrsEmHaNfX4LIEpaZ0PoSjL/Aq/xduoPKgfnvkhiwlLPya5K4aVNMyktBV6/bgTte4pqfVoLpM8meWm5ydNLTujUpD9eHIwSiljF4k+bPUvaHWoTPtyf/6dE0/uwZPG3ANfitt+qTjbbpw1JEb6PzBDfSkYb/e6kHlhlr/ul5kuVDylwb/jmcPQtGzBv6KQtJmQbep7cnqmt50uT35LBQ1sU1fdXwn7hjhqIk30LA8mH5vaCP2pRvqphpU56rvo67rb2nuSNFqROuPhoairz1QL9Sw79a7D9qTo3c23rblGlSD6u4L+wkhHB11VOGmJQ+mh54k+b0aVFdGkb54Xc+bfl1LQ3iTBo9ofaMx/60aVDdGkbQnDbwGkxZ1Nj6/Bh+qQXWpTReOjt1jv2ryqMIjPc9yWFaP45+N4+9Nvq5ltKgNIwvf8rSMOIzVOe1JQ67BLMuRsDb7JcmsvFGHcHTQm+is9O6ed+QjnZQeR++nOqpBNW1y41ga8DaOFn2r7r0t5d7XOqc9acY1uEv7Rou+1fGY6XgIR4e8ic6z3JjrSQc/3m89f0hNc/w3vB7zEH3aweJ/UabZTntW57Qnx78G4yyn0U46Vv6rjsdlEI4OcBP93sGb6POH1LSHD6lDBqObDX6/sw4/RD/v7Z72pM71pT1p7Dqkcg3edryq/dLnTu8x9eJstQPdRIv889yqz63OShru+SH5IslZNahGfdjobc/BaHVN7/L3uUlXa/5+q2C074fo9TfqXvL3eV37HLlaBaRO172etSfPm3hNexKMHobU1PN6LLIIR224iVY7CM+yPD/nbs3fa5S/z/TZ9QPraZY74Z734NruMhjdf3ZNP275++0rGC3Kz73KBgddlrp3VurHsz3Uvc4GpB63J1f55+HGgpGA1GmdPj6krAn4fcc/9l12fE5ReSV6XL522Qt8t4ub6UDHh6xbEV9l+XbQLh5K0yy387/Z4TXdRzC6Lr/ndIe/5+r8tosd173bJDsJSE05PkR7spv2RDDaypt6Xl/suExncXxIf8LRjh9OiyzPw9n7mUTl5p/ssFHbuqI2NBw19pqWwDHbYQ/+XQ5wxlm5zpMdNpTv63l9voPf6+jhaE/tyfQA17Rx7cmW1+APYxp5ueMOknD0BZ1ckF0eTlc7asjeJRnW83pyiGmCel5P63k9TPKyNKLb+tVu2v++efd8Ta92FIyuk/xUz+vxIQ5/ref1rJ7XoyQ/ZznFuK3nXTgaYQ/tyVmpe3fak7U7HCzfYrMPknC0kekOekr3pQc6PsbaidIzGCZ5v4vysJvxP8LG3oJuCQPb9sIWSf5bz+vRIR6gXwlJwxIid/EwHWlP/tGe3GlPNupwdPnNwLXLw9BPmk8AAA//SURBVE7awtG6D6eLbL8h26p3d9SeSj2vP5ZpiW17fSelge+z1/sOG6U3t+0mlLel7l0du8DK0Pj/ZftRpNZuL1GmpbrWnvy3Te3JjjocXfNEmy4crXMTDbOcX9/Gy2ONFn2n1zfa8iH1rKe7aC9Kj31ygH9r28bqXT2vz44xsvCNuneT5Zttt1s25K3bzK60J9v+3q8a2J5ctaU92VGHo6ueWzIhHD3WZTYfel1kxwvdGviQmvRsem2R5RtTe++xl97tNuuMXjX1Nd0y4nCW5QjIpl60cHptm/Zk1dG6bOg1bUt7ctmANuQ6y+nI1w++3pX/vjjy7zc1vbYfndnnqDS8z7e4AUa7fJV7Xw+p8jlnGz6IT7IcWRv3oG4f7JqWB8Q2vejGhvLP6t+4GlTJ5ntLXZYHctfbk2RP2wn0qT0pU5rHmE57X8rk6jGjuOX+H2W5x9Shz9g7KW3PRJzZrS6NHG3zcLloejB62KCVG3HTHt+LDiyQbVrYnWwxwvC6DcHoYUDK5ot6n7boMM1tRixeNj0YtaQ9mRy4zXid5Qsb5/W8vnzs9HY9r+/KW4HnSf5flnuw3R/wd//VCzfC0bd6GJu+TfKqTQ+nBw3aOJsP6XZ97dH5oYJRaZQ2HUl519L9QMZbPEwb/3lLe7LpFGlb25PzLdqTyR6uwSSHO4vwTf7e2uNu27IsU6lnJWwdatqtje2IcNTgivGuqWsCHnET3mTz40FGHa7Trw7ca9+07t22NaRu+TBtw+G7m17T9y1uT+62aE+e7WH0aHyAj32f5P/qeX2x6wXzJSRNSki6PsBneWH0SDj6vIcx2rDBvU/LR1BKCHizwbdedbQ+Xx/y4bTFqNEiybjNZ4+Vh+kmD7DbJn+uLduTcZtvni3ak52GmS1nAh4dZLPcXuFm3/dJ2Vj1zQEuYR/fRt6bLizI3rRCjLtwMGY9ry+qQbXOoZAf0839MRZHeDht+u9N2rLG7Tt176oaVD+tWQ5NH1nRnixfD183nLyoBtWudv3e90P+4GfElXK9yX7PhRuXa9C5A5+Fo8167s83vDlmXbmI5bPMel6XL4+wP9AmDex9W6devtYzTkfWO2zRnrzvUntS6vWHDb7vfNvwW/Y1errHz3a0w3PreT0tb3vuKyCdlGvQxc7vwbV9Wm3TOfKJS98p94de2Lxh73rTQEWz25NOTWeUoHd9pHLY5/3x7th7iZXF+q8bWIfpWDgab3iD3Ln0nXKMsLtJI3TdsRGGrtGebHdPPdnBgaj7erg35gWI0pHb1yLt5zaF7Hk4KkPgTw9009Nc90d6dXq0wfdculzakzbYYvTofItrcJb9LcRu2pqwbbZOOFbAFI5aYpOH03ujRp1z8GC0YSN+34TDZNGe7DnMj7b49/b1UH/TtBcgSlC7aFBdpufhaOqSC0dHqnuCkfakVUqYX3d049mBr8H3LNLQ0b0y4r2PnbSHbmfhaK2bRM+9c26P1HP3IBWO+tKerP0Zt9gQch/nqF02/NX2i+x+eu3O7by9Vr7KXxacrTutMXO5O+dYgWPdRaf3XdjXqKs2bE8+liMuum6Txb2jddvbHSzkbmWnpOwVNsxyCnO4gx85i7WN/Q1H2exkb6NG3XOswCuYd8vZhnXgV0X3RcMDfc/3tGJN2IOzMmmQtk6rbdKY6bl3zDFGYzacMhCOuteesNugs49roENM78LR2kO9pjU657otdU8w7157ws6DznAPv4dOCb0LR+vefLcudefctaXhF8w7+TDn604aEI4Wtm2hj+Fo3Z6eg/iEo2NZuFSda0/4jgbs0qxDQi/DUVcfpHSPRpo+Otvz39fmIxy5URA6oNNOdvzztPkIR/TSsaZKrU8BEI6AB4xYAQhHnWDBJUB/aPMRjh7BVAjHMlQE9Mwi64+w7nrfMm0+W/lREcBePVEEjbfu+rVNHv59ctGAw151SuhlOJplvROcn7nU7Mjdut9QDaozG0E22k2S52v8/ZN6Xo8U21ED6nc7JdWgOm1ASKOlerMgu5x8DAcPR3qx2hMeFVB3TYCld+FotsH3mIPmWI24Rrp77YlrevxOx/ecK1Y29WOPbqTzOKWZLdXz+mM1qBZZb9M6D9LutSejJFNF1+xw1JaptWpQjbObEeabel57zvU1HNXz+s4DiiO6yXrr2J5Wg2roIEztCV+9BrNqUO36x56UTnFjQ2w1qM7K7/d0hz/zdT2vJ2rVdtq85mi25t9/UioiHLruJYb4u9ieCEi7dbuHn9n0kHC5y2AkuAtHmz6gLlxyjlT3xorNNWXn1+AxIbaR7X4J1/t4k9obesLR+r33alDZOZWt1PN6luVeN+t4auRSe8LBw1GSTBp6naYtK0fhqCUPqJsk92t+20mMHnG8Bkjd057w9WtwtUGn47HXqVGLlKtBdZn9bRBrQXafw9EWleBCb48j1b0X9sfRnnCUB/uzalBNGhKMxkl+2dOPv/Xih3CUbDYsqbfHLnq50w17uVOlpz3h4OEoSX4tweSYwegsy0XYTarDfEGrz1ar5/VNNahus/5q/1+rQTXtSsIuPdfHrmf56CiLnTbkLzbowZ53aS+Sdd7aKuu1tCfak69dg6tqUN1nf1NOb6tBtercHCMYzbLelhHCkXC0scskbzesRKO2f/jSE7pc54azD8ZO696LTb6vGlSztp/7VBr7q3UeZNWgum74uWTak+O3J9Mkv+7xY74tm0NeHrBcV/st7TMYvXOW3O60/my1LaY3GjMHveXD6XKDG840wI5GGpJcb/CtT9rewyujC2sFo9V9pz3RnjwioC72/HF/qwbV1SHWi5XF17/vORglRo2Eo6/cTJv4ta0buZWbetOeiGm13dn0gfi8qfuvrNEQbzL1sWjBZ9OeHLE9KaMfhxjVeZ7kbl/rkKpBNaoG1U32t/j6oesmT1kLR8dtzDZtdK9auv/MNJvvrHqp6u+sIZ9ls9GjVe+1dTtnl57w8w7XPe3J8a/pIUaPUsLg22pQzXZ1L5ZQNEvyIbvf/XrXnTS6HI5KT+Nii5tj1qZXrKtBNd3i4XTtYMJGNUzTNj1Mt3wNedGGcLSj9qRN17Rx7ckBR49WniX5vRpUd9Wgulz3+lWDalgNqosyUvQhh50+fm/UaPd+7MoHqef1tExTbJLUT5LcVINq1PQ3uUpD9mKLH2G90e7r3qwaVO82vC6rh2kb6t44my1W/qvutWXB6A7ak5n2ZGuXWR7R8uSARfKkhP9fymHEN/l7w9eHAeQsyeqtvrMD/46fdzi06Xvwn459nm0qSaN7fNWgOq0G1Savjj/0xmv8e617iy3q3h/H3oPlEQ/RbYLR9TFen97SNtdDe7J9QN1mBG8XTrIcAfq1fH148PVb+W/PjxiMkuTSpo/C0aN68EnebHkzNO4h9WB/jOdb/Jj7mJfeZ937mO0PIn1b1vM07SE62/IhukgLD2ktD37tyRHbkzJl914L80W3tmQRjta5mS6S3O7gIXXVhGMBytD+LNsv7BvbA6MVDfkv1aC6acIauPLm1V22Xz8xaWvvVnvSiPZknPXPveu6VnY4hKPjG2f7Nx32+prnY3p3pcf+W7bfH+O1BXsHrXvbPkyfJvmzGlRHOU28jBZNs5w+2LbuvT/kZnvak+61JyWEnYeHLiyREI42uZludpSqV6953hxq/5Ly1sM0yR/ZzRsP7w29HrTufdzRwzRZrmm4OdQDtYSiSZajRS928CNvu9C73UN7cneoLRy60p6Ua/BSC5NkuRP2VDEIR5veTFdJXu3oxz1N8qE0auN99ObL3hjTJH/u6MHUmYdTjx+myXKx5+qBOtnHdFsZVZiWUPRrdrOT7yLJeVemcnfcnjzJ36+Na08efw2mSd71vHm5rue1Nv0Afvj06VOnP+AOXlX9ag8qy+MTZpuupyi9x1GWQ8a7fuPhNsloFw+nMmr2Yc2G7Ic1/411K+LPTZ8q3MGr79+6ttNS9262uKarurfrjeoWpe7d7KgcG1M3tCfHD7t7vAZNt5drUKZbd7kvUyfO7vyx67WpntfjalBlDzfT8/KVcor0XZYLHT/my9vpDx98nWW/O6c2piHrs7JXTvYQkJ5muXYk39mLZWW1H8vqz31uULfTYKQ9aUR7smhSe7LHa9C7YESPw9GBbqYn5euZm4gDBaSV1V4sq7r36xE/bqeDkfakV9dAMOq5//Tlg5Z52jduIo4RkNL9xaS9CEaftSevtSdHvwZdX4N0rU0Xjg5xM110+CH1zk3U+ID0f2nHqfSbPESHfXu1uKyr0J4cPyC96uo1qOe1Nl04OvhDqkubir2q57VNHptf926yXCNy26GP1etQrj1pxDW4TPJzhzoeiyQvvZUmHB3rIXWW9m9Lf5/k/zqwyV6f6t7Hel6fpf1TMosk/xXKtScNuQaz0vG4bvk1WE1lTrWWwtExH1LnSf7b0l7fmyRndkltbf2blBGHNo4ivc9yGu3KldSeNOwajLKc6mzjKNLrel5r04WjxtxQV6XX15ae/HXp3V2YRmv/iEMZRXrVksb8Pss9hM7VPe1Jg6/BNMtRpHctugY/OclAOGpqj2OS5KcG31DX5cE00rPoXP27LI3564aGpPss10AMndGnPWnRNRi36BrcuXOEoybfUHcPbqg3DXlQPbyBjvVgOkSPctHzurd6oK5CUhOmZm4fhKKpFkJ70vJr8K4h1+B9n65BW3X++JBtlDOPzrM8T+iQG7LdZ3mUwGVTehRrbtm/9vbxax61cV3WFnS9/q3q3vMD/rOLB3XvpiHlsE7deNfUt3wetCfnB76mjWtPGnANLrLfXcW/dA0uk1w17RqUdmaa3Zyp2Jm99oSjzRq20Y4q0uc9ulm5eUyb8XndGz2oe/s4N2uW5bleFll3oz25LYFIe/L1azB8UP77atNX5+W5BsJRb26ssywXXg7LjXX6yJ7I6tykuyzPTLoxtMoGjfrZg6/TPG5kc3UO26r+zUr9s7hae+Ia/H0NHt5X61yD1b3lGghHfKdneJbko14DR6p70UhrT9hpp2ToGghHAAC94201AADhCABAOAIAEI4AAIQjAADhCABAOAIAEI4AAIQjAADhCABAOAIAEI4AAIQjAADhCABAOAIAEI4AAIQjAADhCABAOAIAEI4AAIQjAADhCABAOAIAEI4AABCOAACEIwAA4QgAQDgCABCOAACEIwAA4QgAQDgCABCOAACEIwAA4QgAQDgCABCOAACEIwAA4QgAQDgCABCOAACEIwAA4QgAQDgCABCOAACEIwAA4QgAAOEIAEA4AgAQjgAAhCMAAOEIAEA4AgAQjgAAhCMAAOEIAEA4AgAQjgAAhCMAAOEIAEA4AgAQjgAAhCMAAOEIAEA4AgAQjgAAhCMAAOEIAEA4AgAQjgAAhCMAAIQjAADhCABAOAIAEI4AAIQjAADhCABAOAIAEI4AAIQjAADhCADgKP4/PnJhU4gpKvYAAAAASUVORK5CYII=;" vertex="1" parent="1">
          <mxGeometry x="870" y="335.7" width="249" height="244.3" as="geometry" />
        </mxCell>
        <mxCell id="kDyuwAgNTU1D6oL-81Pc-3" value="" style="shape=image;verticalLabelPosition=bottom;labelBackgroundColor=#ffffff;verticalAlign=top;aspect=fixed;imageAspect=0;image=data:image/png,iVBORw0KGgoAAAANSUhEUgAAAggAAAE2CAYAAAAEZGojAAAgAElEQVR4XuydB5wdVdn/v9Nuv9s3ZbPpCWmkkNBDEwLSizQRQv8DAvIigoXyikoRRHxRARFpFooURQRFmvSWUAIkIYT03c1m6929der/c87cu7tpJGAwbUZDkpu5M+f8zuw8v/OU36PkcjmP4AgQCBAIEAgQCBAIEAgQ6IOAIgiC5wUcIXgqAgQCBAIEAgQCBAIEfAQURSEgCMHTECAQIBAgECAQIBAgsBoCAUEIHogAgQCBAIEAgQCBAIG1EAgIQvBQBAgECAQIBAgECAQIBAQheAYCBAIEAgQCBAIEAgQ2jEDgQdgwRsEZAQIBAgECAQIBAtsdAgFB2O6WPJhwgECAQIBAgECAwIYRCAjChjEKzggQCBAIEAgQCBDY7hAICMJ2t+TBhAMEAgQCBAIEAgQ2jEBAEDaMUXBGgECAQIBAgECAwHaHQEAQtrslDyYcIBAgECAQIBAgsGEEAoKwYYyCMwIEAgQCBAIEAgS2OwQCgrDdLXkw4QCBAIEAgQCBAIENIxAQhA1jFJwRIBAgECAQIBAgsN0hEBCE7W7JgwkHCAQIBAgECAQIbBiBgCBsGKPgjACBAIEAgQCBAIHtDoGAIGx3Sx5MOEAgQCBAIEAgQGDDCAQEYcMYBWcECAQIBAgECAQIbHcIBARhu1vyYMIBAgECAQIBAgECG0YgIAgbxig4I0BgO0dAAbziL/EnBbXnbyVoxL+L84IjQCBAYFtBICAI28pKBvMIEPjSEFidIAgiUPqk95YBQfjS4A8uHCCwmRAICMJmAj64bYBAgECAQIBAgMCWjEBAELbk1QnGFiCwhSPQ41tQQBFOhOAIEAgQ2GYQCAjCNrOUwUQCBL4cBITh99aTXlD6OOAGXw72wVUDBDYnAgFB2JzoB/cOENgKEFDwZGJiKctAczyyKzuJ1lXiBnmJW8EKBkMMEPhiCAQE4YvhFnwrQGA7QsCnBuK/IQdWzV/Cknfns9tJh2Bqge9gO3oQgqluZwgEBGE7W/BgugECXxQBEWqIdLlcd8a3mb7fPuxz/nHkNBfxEgmOAIEAgW0PgYAgbHtrGswoQGCTIiDyDwQ50E2PhQ/+m79efTsHX3cek447AFMPPAibFOzgYgECWxACAUHYghYjGEqAwJaIgOd5GJZH+7NzuPO8H6EW4ISHrmb43lOwNJGfEBwBAgEC2yICAUHYFlc1mNPmRcArmsz1uN7/G5JCawsZfU5IxNg9D80BI+fw8SMv8eQNv8Ne3olTFuasl35N5fA6HCGp2BNhWPfM+o7lvzH3voQlCH58znUPTg8Q6INAQBCCxyFAYBMioLpgtqeJxWI4YRVHW/3iJeP1ZRuu9REE8QMvPAL+sX4aoXoQLoC5rI2n73yID/74L4y0LRWXvSHlnP/WXRjxKO5q4gfrJwjibiWx5i977gFB2IQPdHCp7RqBgCBs18sfTH5TI2BY8PpD/2TBW+8x87LzUQeWYWu9OgJfBkEo2ej1aRVIKrAaMfANueio4OH2dFVQXAVNfGq5OO0ZXvvT3/ngoeewPl4JUQc372FpOrufegS73nQWqq4X4QuCDJv6OQquFyCwJSAQEIQtYRWCMWy1CPSKCPlGUnUV0stbuOuAC6gcOIB9v/V1hh6xK260ZEz79jX4PHtpv8xQZAv2btr77slL7ZP6ShetLWO0LtEjRTAL28VOZen4aCnLn32XWQ8/TX5VB5oKSsijelcHa0WY5Y0WF95xPfHDJqMIN0NwBAgECGyzCAQEYZtd2mBi/w0E1nSqC5OsFhye++YtzH78BYjo7H36Uezz/ZmYMQ13jZDD5xmjTxDWlDTuHcG6vBOSjhRPEaEF8XdBCHTxq+BCxqWwsJHXH3+WN596HjeVw0ynCbsK0TKNDn0p+5w9ln2P3J3bv/kkrjKK8++5EWt4OYoqSIm4/rqJwn8j3+Dz4BecGyAQIPD5EAgIwufDKzg7QGA1BIQR7Nm7u2J3L1z3Hk0PvcF9F11HLOdhxlR2POEAjrzqHOzaKNZ/SBJW9zv05hHIEIMnCIBvsMVIdBc020OxgKxJuqGF5iUNrJi/kKYFi2j8eDGdy5uJFhSino6r2JihbsxYG+P3G8SM06ZRMVEn9aHKL87+GyN3OYKTbr0SM66hKD5B8EWUfPLR9wgIQvDDEiCwdSMQEISte/2C0W8JCBQtYa65g+6mNoaOHEF+cQu/Ov4StOUpUBXpOTCmj+CiO6/DGZCQ5YEbc6yeO9D7DbFrVyU1kXt4NFeEN0AT2scFC7dgYmfytC1byeIPP2bh+x/yyawPUNoLRF0wPJeQ4klCoIZV0rkOHL2AW26y6wHj2O/4HYmOA2JtiMG/eWOW5x5axOEXX8IOpx+Mp5XogP+7IAjqankOGzO74JwAgQCBLRmBgCBsyasTjG0LREAYZZHY55tF+V9FQXEh2pLn2jMvYdroiew98wge/J8bSc1eDLqCZViE1TCVMyZx2q+vpFAV2mAfg/WRA5FHIH4JQuDZDk7epPXT5TTNXUzjnAWkG1bhdHWTa26ls7EVcPB0F8Vz0CyNcIVGrCZEtCJEqMogXqXTb0SEwVOTREfYxKoUNEOUK4hfKumVNvceP59VmSRXP3wP7sga8Nwe/QM5TkGCJBZicFvgsgVDChAIEPjcCAQE4XNDFnwhQGBtBIRNDJmw4G+v8NS5N6FUJ0jYGpm2TjoSGdyTq9Ce6CDSFWXs4ftyyM8uxEuG19slcZ0YC9vruLjpAoXFLbS/v4hPX32Xea+9S767E1d4BlSNrNVJpM4hXmNRMSLEsJ36Uz0sRnlthIpklFDcAAO0kCp/l44IwTawxA0QbEfKH4l8BzPJnD838MQVixi91wwOP+sUGpc3kG5sxbaE98EgOaCasvpaIvVVGAMrUBNhXHlN1ecKRc/C5uQN6yNbwbMcIBAgsH4EAoIQPB0BApsEAd/NH2rMcsdXLqBjZQuGq6LpKi3lXbjfH0x1Z4ym++ZSk6/h0EvPYPy5h+GERKnhho9IQUFp6mb2Y8/y5hPP0dW4ikKqi0QkTMHqphBqpXqcweR9RzJqykBqhiUJV+rIeIJuCZ1k3/gjCIDv/fA1EHt3/H4SY9GMy2RIDdr7ce8Zr9L9gYHtRXA1lWxXtwxlCA0EV3Pl71o4TFlFBXpVkmFTxrLnkQdSOWkkbrmOpYOjeKiqiud+uR4GMYeYrdGwdAUDhwyiENoYdDeMf3BGgMD2iEBAELbHVd+oOf/HWnwbdZet+6Q1NAI9iHZ5PHTKD1nywmxCro6iK7SUp0hfXIsxsgL9H+2Enu4i5MQ5/YHrGbj7OMxSBeQaYAhvvWitrKzoYvZjz/PKg38nv2QVYaFXpBVwy9IkhiuM2K0fk/cZRd2kMqjIQygHmLiK22vw+157I8UYlHwl7zzYwHM/Wo6X0lAdDU3X0XQF13ZxdAtPtHcUxt9UUfI6nqHhRHXyYagYPohx+05lh52n0H/0MMIDKnANFTvkB2n8qgw/qXN1M77hZ29dUxBOkFDBpfG5OTz35iuccvkF5CNKsZlUQBS27p+1YPSbA4GAIGwO1LeCe8raeJkNL4LdxRr8nqj72mHm1V/pG2mBtgIcPsP5Vvyn1Q1PtKDy98t/zYe/e4qwpaBoCq3JbjLnVNK+V4yBrTHse5ZQ+06IIfvvwkl3XEm+XJOhhr5ucOmNsFWWvfo+9114LUZjBs22CZVrdOnteGVdnPA/BzD20AFQ04anCVJQXKBN4MtXHIOuOVFuPO0Rqtt3ANdDi3m0m6uwjQIRTaP/8Cr6D6tB0xRSK9M0LGyhK5vBdVVUSydOOdFEkpyjkw1pDNllPHsefiA77D4FvSwOIR10FQcHW5XpDkWqIMDY8MMhK0jE42l7hMSXuy1euOvPvHLrw+x1zrHs/b1TpPfisxQjN3yX4IwAge0XgYAgbL9r/5kzV/MOLcsbiScTRKrL8HShmNPjgA5QWw8CghTMfvAZXvj2rRhZW9qmjkQa87RKWg5KktVNhr5nUPl/rSTMOAffcRlDD94VS+QCFA/Fc9G6TF6/+2/M/eXfyLR0ohkqhVCW6h2jTDixgmlH1RCqtvFk7oB/9FU9lvyu9PnnXi0Fpb2CB7/zJquei2I5NlqlzQ77l7PDV6uo3lEnnHAIxTQU0c1R3MtS8CyXbNbByui0fFKgaVaO1kUmqbkFUo0mnmcQdnVIhKkeNoSKkfWUjx1EzdhhVI0aRKQmiR4Lg6L6u375f//3tfb/rif1F5x0nvZ5y1j83CyW/+sd2t5fRC6qcOq9P6Lq4MkbRTQ+NzzBFwIEthMEAoKwnSz055mm57i8eNlvmP3IszJuPO2r+7Dz179K+aShuOUiDt0rHbzh627YXbzha2w5Z5RaH685olLNv25D07ufcP8R3yXUZUlD1xHNkD0uSeprlXTFC9Q1x/DuXMygtyJk6su4+qm7yNfFpRdB9kDocnj6p3cz686/Eco7KBEFrzLFgOnwjZ/sh9bfBjWHJxMKe02ncPj4BvWLuNOL3/E0vEyIf96whHf/2ojnWux2wkAOPHMq1Ip8hjyofjJjT2BA8VUQVCnEIKy5cAXo4IYR3ZzcDo9l81uY/3oDHzy+AntVGaqTQCWMZdkouooIhujRCAOG1zN8xzFU1fWnYkA1hkiqjEV9DwsKdq5AtqObtuUrWTb3Ez5++328tAl5G9V0CaHQtkOcnzzze7LVhvR+fSE4tpxHLhhJgMBmQyAgCJsN+i33xo7lcOOY4ylbJRLbgEQIK65TO2Ywu33tICYefQBWuY6jr72zW5sObGMEoW/zwnUsoSh3tFrT/N+UU4ilHFkg0BnNkT0mSddx5aSTJomcTuWHHskbmvHcEEffcDFjTpkhOyOGsg7PXXcvr935F2I5FyOikhu2gq9/fx+G71cJ5Sk8YaD7HD45WVOWyDfaa3nqSw0biomKfa+jCOaXS/D2H1by7O8/oHJQmOMvmU71jgbE03iK8IiUyEfxroKUFHf4/t3WJicy2dENgRmFFp2WRWk+eHMxS95rYfmsdtRcBXGvHA0D07JE9gSO6uEKtiRdISKR059NSXVBiEGFPY2wamDnTEQfCREWU3WVw+7+HiOP3JNCyB/NRkQrttwfxmBkAQKbEYGAIGxG8LfUW4sEtFumzCS0rAsllCM20MQqpLAzFWTUOLVTxvHV/3ciw/eeilOmY0rRH/81vKaJ2N5e0BKFnM29+15I99wGBDSdsawkCOljy8kkLVTHoyoVZcB17aiLbIYevAcn/PoKzLBL499n8cC3b8Roz6HGbYxhaU675SuUTbJxQ92+ifRdBT3HpiAIihMWsRCevfdDXr9/GeF+Juf+9HDKJ+ZlQuTah2+8PdvDc3xSoBkanjDqn2GRxdBVNHDikIqTXezy/stLeOeleeRbbArtDoYTR1FDeAVQ8wZqvuiycsFVHZSYi5ewcdQssbAGXUnybSpCWEJLRLjojbuxh5b5pZbBESAQIPCFEQgIwheGbtv9oggxvPO/f+CV3z2GHlrFcd8eT7K2kzn/dnnzXytQzQRGtJLo1JGceNWFVI4fQsFQel7IfWPf2xtBkCTJdHj61BuY9+RrhD2Vjlga65Qq0ocmSUWFsfWIZXSGPGLh/KMNNxTnh4/fRaZM4XcHX0y+oQ01bJGvbuKCPxxE1WQF27AxTZOIJvQTvdX1E4S8sxtB6Cn3DTv07Lf7EArZrKnE5GTvZg1BDpzGCA/+9CWa3jDQqwqcdtOeVO7o4Or59dp7v8mTCjaYhZys2DBihhRN6t27l56AtT0LsoeDFJlScXNh7PYQhSaN9oV5mpu6WbmojXSjyfKPmvCE00TcT3cYOnEgo3etp35UAlIWj//6XfIrKiiYDnU7j2HmYzeQr9RXw6gkBN2bbrvt/vwGMwsQ2FQIBARhUyG5jV0nMq+d64/+JpGOVkbuFeOgS6qI1g6l4Z3FvHj/27TMHY6VUiEeZY8zj2biaQdjDKmSCWZ9k8q2Nffuurohrrn0giC8+d27eO3evxFxFNrjGewzK8nsLwiCKQ1uyNaomO/BTcuoyVZz9DdP49N0Mx/e/iRGSEEd186p/zed8sndFBSDeSs7KY9HGZ7w8e17KLbB3H+1MWBCnKrBYVEbud4GSuJ7vQROJZ/2WPmawrM/n8eqD3MM262KA68ZRL8xUVzN7PEKrf/x9j0aMqmwqK5QikLI9MleWYV1XsLnCOIavZOSlxI6C0K2wfJwTRfHdn0ZB0MlZKh4qTxt7zfzxI0Z2ufrKFkDS1eZeM5hHPqT88hF/AyJbe3528ZeM8F0tnAEAoKwhS/Q5hieeKlGch4PfvM6lvztFbxQJwecVcGu3zodqurJLVjMslf/wXP3vUd6aRWOXY6ZDHHWtd+n/ohdKUSEK9gf+cYY1M0xxy96z3UZnTU/Uy2XBTf9lSduvJuoo9CSTGFfMoDMTlGyIT9/QCT0xToVtCuXUN9YSSJZSc6zcLq76apZzPm3Hc6AvTysUIFnVxYwMp3sNWoQISfvaxtJy+fv1BUnxis3L+OJ+1/ivCtPYvghFXix5qJx9+P38kvFRlIymm+WYX4S4eGb32D+88tRy0wOOXcXdv/GKChL4Sqmr7D4OY1siXz4fRkERSiZ6DVrKtb199XNuSQOPYIJmpB2gK4MmWUt0FbBIz9fSsf8ELbQaPAMrLIwX3/sJ9TtPBa7R1tiy6AJgZLjF/2JC763OREICMLmRH8LvbfMRXc8Mm8s4paTv0NFl0mofwf7nz+ZcV+bAUPGQKqL9nfm8+ZDT7Lo5SVkVsZwY/0Zvf+uzDjnBMonDyMnRWrWlba2hU58I4a1UQTB9lj4y7/z+DW/JeYorKzsxLpyIJlRIfK6g+p5RDQFr+Ay8LYC+ksZjKwQVQInkWXGFcOZNrOeQryb+e15Xpi7iGN2mUC9YeN3PFh9Z6y4MRY8kuHBq17H0EOM3r+SI7+zC6EhGTxh6EsJiZ6KIioMmqt56+FFPPund/HSUfqN0znkvJ2p3zMJ0ZQUW5Tbd6HdbAlVpqIxN3Qpn4ym+eRBVC+IX30SFVXXAFHKWGKIJS0Nkb2piguL7xVLM8VlxR9FioH4t6IXwieWghyo4LiQLeC0p7G60igZg9TiCP+491Na55bjZVRUV6cQUph0/AwOuuVCnLC6eghGVkCUFCu/SIXHRjwYwSkBAtsgAgFB2AYXdVNMSXoRMh4v/uJ+3vr5g/L1alW8z5HfmcH4ow+EoXv7t1n+PitenMXjv3qKwgoNqztBrjzOUZedxaRjD8CtieF8rrLITTH6L3KNTbfTFO2VF93+Tx794a3EXZXGqnbsnw0jXQOW5mJ4DmPq+9Oe6qL2Aej68wqi7TrhMp2K3Qqcets+eDUtdGtR7n9/BTvWRNiproKY6+cviJH27ZyoOCFWznb57cyXKUsPhnie6MQ0J10+nbIdNbxQ2k9utKJklurcf9XzNL2bR4/r7LjvQI78we5Q0QluBq87T6EzjZlJ49lWkVt4iO4Mwl4LPYxwMokaCRGpKEON6PJz6csQTgpLpZB2UGwNz1TwBMkQ8sqqg2YoOK6N5wlXgEhutLEdi2hlkkh5wick4lyR9JgzKXRmMLvTqHmLsK2jWgma5io8+ftPyKyoxe3yKxcEG4gOruWbv/xfrOHlcqyivFE1NIxoGGIh0DVf8llbI3/jizwqn/M7knDbHoVcnnA8KjthyvyL4AgQ2MIRCAjCFr5Am2t4cufveujLu7jnG5fTOWcpYV0jOnwRR39nPMkJI4iOPA6SA8Fcif3BC3z42Ku88ocUZnsYJxKiYqcRHHrNeQycvIMUAtoSs8p7ndoequwv4IfDe13Ca7rCN7wikiDc9k8e/fGviTge7YMLtN/UX1b5iWsnVYdpIwaRzmTgbx6Lb5tLv/Y4TjLDCfeMZ8T0MizDYUGnzZPL8pw5oZxK1ZQdFNV1FPUrrkHzfIfbj3uJirbhOHkLtVxFre7g8Kt3ZORBVXLn/9Hfl/DPXy6i0KiRHAzHXrkrdXsITQUorOrESxXQ8w6eLcoHBBFxUUVSZMhAFd6DsArCdS9aPRshMMKQMKTkgTTUxUP2dHAMpN6yZ4Dt+R4J4S4QJMDzG0Kh2aC7OK4FBQcznZW/q6aHljclWRBESHgkXDPCnBfz/Pv3TajpWizTQevxUigosRDlg/thW5afY6EpqFEdysKo1QlG7DKJsftMo9+YIRDWcXUVW4ynKMhUdG2UZrDhRd6oM3xMVNcj8+lKPpo3lz2++hWscAmrNcMvG3XR4KQAgf8aAgFB+K9BvXXeyLA8lr30Hk+ecRP59k6ImVSN6eaIC6IkB9lo0QpCoXK8nEPz/A6e+61K8yLx/jewLIdYZSW7X/A1Jpw4A2VgUmro9OYl9Bpf/7PPNsbrEyn6T5Dt8RtYDp8+N4vRe0zBK+vtsijt3mqVe8Invu76udLoNctl7o2P8sTNd2NEQdungoXn6TiqK+1RXLHZZWQdUddixfN5lv5qAYNboow+uIbDbxyCF0mTUqL8e24DJMo5dHgM27bpTqepTURQFD8pUBhiv2xQEASL3xz7ik8QhIKjiAJEPLKRFo66cD8yXgcv3bwIpcZh0vEV7HfWaIz+DhQsCkvSKJaLEhJuI5FBqaEnDJlvKhdM+AcEKZChAQGIcCUUjaukEcUkRRlq8CSxVBShfQAUim2jhfJhwUJxPZyCKfIosXL5ImFw5VxEfYaUQxK3sG3fy2CHaF2i8/ZfM8x/O41aiMnKCVVev3gvrZhnIfMlpWQTrisEnF0UQ4zVQ1cM6cnqP3YYEw7eiwG7j6Vs3GCMmqTc0ZdyOnyes8Zz2CeE8tlEYu3nV/bTyFi88eM/Et91OJOP2peCIFR9win/yfMbfDdA4MtEICAIXya628C1pSCN6fH6rx7jmevvIVbw0OIFjMoWJu5TT7QsgplXWPhRIy1LMxTyNgNG2UzdZQwvPvkxtIwirXrUTBjJyT/6Nok9RmDrHp54qUs3a0ni5/Pv1DclvKLy4IWrfkeyvh97nXEM+YRvJtYmCH1dw+vOkddMj7d/cDcv3vMY2Yo8VaeNZN7+GfSQLpUDE4rFV8bV009zefGZNtrvXUXdItjllGFMv7QKV++m0YrxzDsL2WvCYAYndT5ctpKqinKGJ6XVXm3qiquz6mOH2459mcq24VhZE8cQ2oQeqhALiphYkQz9Bldw9BWTqZkm3O5ZGd8vLMljuwVi1VGUhOHvqFstrO4cru3I0ITjCs+F0kPg/Fm70mtQagstQgm+kKJCwTWxsDFCQu/Ak4RQ8xR0V0OzHWmwRZKm+FwRLaFDBpRHZVhAhhcKNm6HiZuq4a1/NvDqU4vQCjUohQg5pxtHz6AYBRTFRtdNktVRMFwSZQlyGRM355LuzGOZCo5noNghdDOJpsRQ9TCm5+LGVEKVSYZPGc/0ow5i4C4ToNzAjmjYIgxRLCXtEWcqaTaJsYuulOsIEUhyUjT8AgpBgowOi6eu+S0fPfQcx919JfUHTu2TQLkpn+DgWgECmx6BgCBseky3mSuWdqkiqU5py/PUD27jo8f+TaQgXM9QiKZxI504dBEv0xk4OMnIXacyfNchlFUZNM5dyqxH3mbZHB2rUIlTlmSfM49mz5lHwMAyTKHjLw6xVV0t431dEG66HIF1XV2zPObd9Bce+u19HPe9c5hyxqEUwmvrE/rfXf9Y5P664PLsmTcx91+vsmpwF1XfGcuyERlcf69N1Mxw2KRhDNRt/vp8M6k/pBg012XScfXsf2U/XD3Dp2md95a2c8jYcrq9CAsWLWanscNJOpnVCwPkxt6gZZ7Lbce9RFnHUBn3r5tQT3ldHe+/9AYhR8FScux2zDj2+9EgqGiRRrrQamI4KqpoCx1SpFxxYVUWpUu0ru6VKC7NtrcaophPKHbwimj37OAaLkR1jGgINWqAofWqZgkvhOlBpoCby+HmLJkEK4USxf9UFVsIIAmZ50KUXGuEBa+18N7LK2hZkUcPGQwYHqayMkrdsEqqBsSIletEojrRiIIe8VAMP7fAtUVZpEiy1cjnHPJ5h+7OPG0NGVY1pWlbmaGr2SabEnoVSRyiWBEDoyLGiGkT6D9iMPVjR1E3aiix+hoQug6Ggq0pvsR4Dz3rfQaKTibftyLUqG0PNeOx/JV3eeVPf2fRs7OIeDqnP/VzEruO2CJDbdvMSyuYyCZFICAImxTObetiq+2IPIi02Nxz1pU0/3sOIRH/jSjUjlA55ORxlA1diVLegLHTyVC9C2gRWPURrW89wUf/6OCVx+YTt+vI50JEdhrCubf8L5FR/THDIvnNb87z2YlbXx5BkLs922Pxb5/hoStvITSggksf+xXWmKrVs+E3Ynlld8G0ye17n4u1qp2WaXm0iweTSvjljZ6iEM13cfxOI6lWC/zx3w3kHywwYJbNmMP6cci1A7GNHB+32OS0OJOr8sxqhn5Rh6HlGnppp95nLIIgNLxlcdepr5HsGoxreAzdZQTHXXwRT9zzAB88+xpawcKNWex4RoIj/mdnoelMvt0k0h8pPoRpkF2cIiyqKRDr4YkeizLCoAoN6FI1QjEZUXgUJDHQXLSoita/AqLFCgVReWDamOkCjm3j5i2pZ6CqGqFwGK2g4GTyvgehJNRkanSvsvngrRW8+PR8vLYyRNrDsB1r2OvwMdSNEyQgi6KZuJ7IM3BRBNgy0uHJkIJ/9A0BFZ8ZsSYiUcIL45pRCp0RWla4fPx2M3PeWkwhoxF2EmhqFNMUetdh8iJ1osJg1NQJTNhzZwaPGy17Q4TjMeTAhCNHVHQIyiBuKeZsOXQ3t/PRG7N59r5HUZanCHcLjwlE+1VxzjO34IysXO2ZCrIQNuKHKjhlsyEQEITNBv3Wd2MRP87PXsodp1+BviTlb/xjWXbYP8+M06NEym2UAcdhle2OMc8f8roAACAASURBVGAKMqidWY7z6f0seOZt3n2ilcZZBrobxq1NMuXUQ9jvwhOxkgauyOxeK96/OkaiRE/6HGSuwqbJAhe3tAoFomgsvusFHrrqFkKWQvWuYzj2oauIVJWvgySs47VeJDghG1a8+iEPfuNy8qQJn1rPyqPEDt6TbnYxxzKri5N3GkmZZvG7F5eTvb/AoLeLBOGaOvKhAoubu6ipqSPqdPLG4ixTR9VQoWbWEv6RFQ1EWPykyR8ueJ14ZoBs7jR455F87fJLcCyXF/7wMO/99VnCXhi73GTHU+IceM4EtJiFlxTyzSpOg43X4jeL8r06HiRBjes4LbZMNBSepJK2gfStlGmQ1KRnBNPBMUX1Aoh8SkkIZAhCWHA/x0DcRwAgPhe5io6p0tGc55MPuvnkvRRtH7u4eZW6cUlGToowcmeDsgGiH4Vw3fv5Fr25Dz4ZUMUzIfMhPFyZxKkglED9sgpBGvwuDqsdpcfH08l2KbQ36DTMVVn+SZ6G+WnctAhLgG7oKJaGKyo9FQUtahAuixOtKkMTnpKQaNPt4ZkeTrZAri1Fvq0Lz3ZwRPhDUeV3RS1IzfihnPGXGygMislrBUeAwNaAQEAQtoZV2mxjXD0vQNgMYQC731vCXd+4HKcphaI4KOUZxuxtsO8pJsnRM/AS48kp/YkNGA2hOtGcAFa9S9vsp3njvkdZ+O8q8l1RXD1M7aQRHHXthVTsMhLb+O+8OPt6K0SG+aq5i8nNWorWnufBa24lUoBsVOXQa89j6hmHkRfu8898qReT98ROMeXy8FnXsOiFt2kc2Und/0xkxehMj3KBoyhUWynO2Xkklm1yz8sryD/gE4Sxh/Xj4GvqKBgFOlLdlJdX0p7Jkc+ZDK5JiFZG63wSFCfKB7d387fr3yeUr0aJaQyZNoLjrrxEqCCjZiz+9PPbaHvtY9nLwCzrZueZgzjwO8NlEyalEMJcnkfLCO+BMKkOaq2CEtaxmrOopv+5f/jWVSaVqiJk4v9Pln8USZv0DBS1DGQVoudIOWUzo5HrjNK5uMDKZSkWLWpi1ao2IoZHzcgyxkzoz5ARlcRrQughoZtQkIF8VwgzeCKnonSPol60IvIg+gxL5g34yY6CLIh/FP8uvAtyr18MafihjZLOlBigjuKGcB2NVKvLJ++3Mu/tVjobIthtMXRECaaCWxCZFR6eLgsp/TnLMWj+4+F6aGgoUR3Taqe6NkEuZZFPhxm47wRm3vdj8lWhtQjn5s2+2Wwvl+DGWwECAUHYChZpSxqieOGGTVjyzGweOP9a9PYCquqilqcZNV1l/9OHkqjvB0OmY9nDsFyDWFkCYh7km2Dee7x96xu8+OfFeGYSS/OI1Ncy9dgZ7Hf+CVi1EdnVsK9cc8ksbWr64O++QV3exR1HfptyLUrzx0vQRcxehaqx9Zz9z19iVRlyTOv3WfjJaZFuj1dv/TOv3fQAbsgi/40EzqEVdMRyfjKmJ8IpGgPcLs6dNoxU3uIPrzWQvz/PoLccxhxWyyHXDsIxsrJqQdd1uvM20ZCOoYp9cFFgaI0cCMWO8/qNHbx+92KsVh09Eab/pHq+fvVluJoud/5KpsBDN95OwzvzwHFQBuTZ47ShTD+/DlImZpuFbuvS2LsJU2b3F1Z2ouVFXWNxD96z8xbzLdEFkUNQ3KcXvQO+JfZPdh2XVas6aG3OkBPudkVFyXlUJCsoq6ggUZ4kKhouhU3UkImn5KVokkiOlUJMfl0DqghpSSEG4c4vZgxKvQORASncFg6urLLwiYRcKzEeKdpUzDYtqTLK78hEBRxZcllkD9LoC7IQwSuESXdCW0OelSu6aGnMsHx+O11tghzoeKKVqWPIO7kCXyFipRaIJz1GTK1hwuh6nI5+PH7fO+CVM+qMAznmuovIR3sloFfjNl+0S/eW9HIIxrLNIRAQhG1uSb+sCa2+Q9RNj+V/fZ2Hr/g1SnM3qmJBwmL0vt3sc9woqIlSMXQyJCqhUCDf3YVSsMmtyPDab99lwRvdOKIcTrdwcxUUDJXhM3Zmxnkn0m/aDuTjq6vhfRkZCPKaYtfflOOeQ75N66crZPdFVZhiYZ8Mjd2uO509zjqKfOSz6Ukk77HwL6/y4GU3EcvYtIxIU3npOFYOy2H3+O1981VPmnN3GcayzhyPvrWSwv156mbZTDxmIAf8b388XXgciiRJZPuXtsmlAZcIQqmPgZngycuWs/Af7RRaPIx4mKrxAznpx9/DE/HyIhHKNLXywDW30L1EJClaOOXd7HPRCKYfNBa70Iki/P4ip6BOxUt72F2iigH0uEgy1HDydo/hFi50kYOiGxpKKAKmUDy0cUyh9ugb3BJirsjuc0MowrAqJqpnoYiwg0xwFLt8nwz4koz+rl8RjMwWiZMObsbC7DKxCzaK69CdScnvKpGQDKfEamIkqxN4mpRzwhXszlRxCmDnbKy8iWK75NNZPNslHA5BxCUU1onEwqgRFUSHSKHmWAyj+Pk3QnnSwBOaDnYUOx0i0wnZjE26K08uK7QpBOdRKK+MEwkrVFfEULUcmVaHZx5aweL3FIgkOPze7zP6wN2kHkiP8+LL+lENrhsgsIkQCAjCJgJy279MUTZZvkD9l78o52t49E3u/95NhNpzfql8pc2gKd3seXAF/YdEyIXKUD0NK9XJivlNvPZ0I91L6jBdh+GTy5kwbRjPPPI+erqafBqsqhh7nXsc+51/PHZcx/6SVRiFMYqszHHv4ZfSMn+JrM4QegViW6lZGvbEWr77l1+THxhb5xKL7+s25GYv4f9mXka0OYNV5mCdUYm9Xzkdifxq3xM7ztFhi9Om1PHeqjwvftBB9r4U/d8usPupw9j9O9V4WtoPaRQJQU/8XlqWonu/J19DgWyCB077lOZZGcxOl1A8TMUOtZx8/eU4RtEiyZw6lfSiFdx91c/Q2vI4jgVVNsdcOpUR0+J4eheqIAMVHoVmYchVjHIDhzx0aH6VgVAX0ByMMh1EeWEmS64zh26KEkaxWH38LH135qU/+1t7PzdAGuGSdoEvtiTugaVgruymfWkruqn05DRIvQLdJl4dIdwvAUJ9UXdliaNsUKWIXwqqE8bq9lBM0aNBPKueL+HgutjZPIpbLNl0XdLZLpyQRWJwnHAiAl4faWkhJiHG7fT5TIpxrPEoSAKkQEGha0WGXJPOsvkRXnmmAcssJzq8H+e+dCteWdSPxPQ5SsS3l35v+2+SYIZbDwIBQdh61mqLHKlecFn45xdlCaTSnvddvqJkTndl6aNS46I5CrlWh2zKRQt71IwosNvM0YydMQ7bTdM062levSvC8g9cdDOBi079XuOZfsVM+k8b7ecmrJYDUAxy91Hv+6LgSILQnOe+Iy9j5bzFWJE8g6cM4ZNFi6hqTeKWR5n5h59Qvu+YtUIMkhw40PzWx9x/5jWwogPKPJgco+uSStLlvqqfDC0U3fSq4zCt2uDYsVU8uSTLR5+mMe/poPKVFEddNpkdzo6Bni0KKvfOap1x6mIVgNmoc9uMObitYTxbQQ1rJIdUMPPmKyEeLtps3zIJ78h7Dz/J83c/gmEZqLqKGe7muO/uwoj9dJS4I4WIRHKjV2ah10Zwl+TB9BUB3JCDVq3jiuyGThXBHUoqin4Viq/AKL0enojY+xUQPd6EPjJTfvqgT3hkL6luG2tlAavRRMmIjpS+eJYSdtFrdLTqEGp5SCZOSs+DzLCQkp+loAKe57fDFuEGef2iBfbbXJfyJ3zFTOkx8RxZFuqZIVxL9MkQXgOk10G3RC6Dg+s4aIogRx6O7aCFhHermN9guVjdDmrawO7ycO0oH8zPM/ulLijEyYbh6B9fwOjzDkFEJYIjQGBrQiAgCFvTam1hY5UxfGFg8x7Lnn+Phy64Hq81LbP1Fbnbc3CTGexwC1ooTf2IMBOm1zDxwFNhymEQrQW3gNc8l9bXH2LWX9/ho2fTKF3DMG0TtSrBoZeezsSvH0CuMuQL6XyBY/0dJf1WxdGVWe459DusWrSUrvIM40/dmYWtiyl7xMQyYe8fncWuF34NU+xWe4RwPAwT0h8u53en/ABzRQehkMaqfili3xtFdpRKwfDbLsuEPRFCF0lsdp7pg+IcNLSMe+elaGtUcO5uJ/RKA6f9Zg+GHKjjaaLnQumQ2W+9SRlrQCCS61bOyXHXkXPxcmGi4ah0o8fKE5xxx4/QyuIyRt73CJkOj95yJ40vv4/T7aEndWKjcpz+wwPR6zsQdtdUcoRqwziFHGpnHE+k44v1Fv0UMGV2vkjwlLv+HrGrkr0uEbhiyECSJD9pUEYRBF3qk8goolNuk01qWSe6JVw4rkwEdBIu8QFJQjWCNNl+GEI2ePRFmXynREnmshjbL+ItjL6oulGFVRa5CzJcIfJgHDzTxsqJ5MEcnuVh5yzZoMpPrPRVMqVCZTGZUao8Fj068n7yOfTXVfzVdQ0cO0ZHR4RZb62kaWke1Q6Lxg+Y/WKc/cfrKJ++A/Y6ZLK/wOMcfCVA4L+GQEAQ/mtQb3s36nGPCpJQgCXPzubuC68h1m5KcR5R5VhRH+boC4YS7deIkWhDSTgUyg8iWrcT9J8KSq3v1s1+TGHe28x7+iVe//NbpJcOxMsaFKIaQ/eezGEXzqRij9HYIdV3034mV1g9Y6Gv+3b1PwuXtoexvJvb9/km2Y4OVvbrZMeLd6fVS2H8uBk37TH0lK9w7M2XkEuINfRz6YW6ZNd7S7jvguvIzW9A11Saq1LUnT2e1v088rotd7klbQc/mU1Bt7PMGN2fyRUat77fSrQtQfa25UTmreKMR/aifoKHI7seir13MRlvtRyEPs+RsI12nA+ebOTJixrpUlTO+H+ncu+v76Am1J+z7rqGSHV5H4LgEwVh7LqWNnDXldcRbnFlbN9LWvSfpnPiD3bDSLhY4W7CtUkKLV2ECmLiJe9AMV9AFBkIYy0MsSgtFLvxHh9L0Xj6prZYeyDmIkiCKEv0FRpF50cv5ZJZnsLuEixB5BVAvH8MPRmGqCYkGLHMLFpM7OCLVKRIeErpfpoMH2hIicKcKEFxMLMmVs6UWgzC+IsSTEd8z9ClamRYV5GOKUfBTju4eZdcRw5dNXBEmWRxmpoh1C9FbkIxJ8bTscQcRNdKO0xnp0nLyhxLlrbR2iLuGUZxw/K5EuPVxw3gjMduxKiv/MIEd9t7cwQz2loQCAjC1rJSW+A4+5YLChsm7Fph1lLu/va1ZOY1EBa7tqhJ9eQmDj+1nqohHVh6jvDo4+nuSOBGh1JeNw5i1aAkkYX4K94i9cZLvPDHt1jwnIZmVsiKArMizGHfO4Npxx2IUxUWuj6fcaw/pXFNsiDSDfLvr+CuGd+Su+Sl4zoY+53dMRUL69sL0ToUvMn1XPL4beSqfGYSMaHtrQXccf6PCC9KSfm8dJWF8tUKYifUsaos7WfHF3sUiGQ3aUhVDT3fxQHjhlDpZrh/YTdDVlXTfPNHRFpSnPTEdEYPE157hXR3FzVlsWLfirUq+Xv9C9lKnrxhNu/e0YU1so7v//ASLj/zm9SrQzn7zmuJ1lYWCYJPDkprprsec198lX/efC9aTsTaFazyLo77/p6Mmh6nEGsjnIxjtdnoIkmvVFnYhwSUpBJLXhLfqgqy4JclSjGlHu9FqQTCJw2qY+B1QefiDnSR6xf2SNTGUatCEBJGXYgpFcgVshjxEEYi3DNnmSIiCIEw3DkPK53H7MpT6LJxcyYUwFAMNEX3tSeKY9bCBuHachwtT6GQxsxlpAdBdKDUBFnJio5iMUxLI5M1cU0H2/Ww8x6OKRUd6OzOkS5YdLZn6WjOUCjoKE4MlTCerLQo1VCCZSgMOXxXjrnrcogIghMcAQJbFwIBQdi61muLHG1PfFlq7IMyv4U/fedntLy2AN11UBIQH7qUr184hLLBDVihCkIjvg7xAdjNi+m2wkSrJhFJVoLTgrn4Gaxl/+Khq2J0Lk7iWeIOoqugjrZTHSf/9BIqpwzHFOJ4Xyzq0INjyIRPH3+Vp86+ETWmkjrRQD+qHyFTx7viU/RlsDIOP335YXKDwlJfPzN7Cb89+yq0RR3SD+1UeOT2j5A8fgjN/QQ5EGSg1DPBk70MBElQFZVwvpMZU8fRsHgR72YMxnxaw7zrX2VATZyv/H5Hpg6CDi9Ew4rlTBhci4j2rzP/oBjtVzv6c8dpT5OdZzBy5tc4/JiD+faRx1Ov1HPqL35E1eA6eYU1VSrFXtwwHR6/4Vcsn70Qs6uAEnXpPyXBN66dhtuvFd2I4rZrRS9A0dCKvgw9OgJF01uK8xerK0Q4QTZJFFLMxb5WMsRQzBUQYQm3Q6F7RUZWKMYGRFGrdDzZP0KoOrp0L2qWuYEVIwfgRf1OkCK5ULqPch7ZVWnMtgxKVpMVCr53QhZW+vkPsmxQk5LL8nt+AMEnSUXVxWKqLZ6rUcirNDTmmPNuIx0pyDm6DE+IMWiWjmqrck09VVRiiJbUfgjDd5L4v/coj8q/KqQrNC7+088w9h0VeA+2yDdXMKgNIRAQhA0hFPz7ehHwY/slC927PxI7PGdpO09d/VuW//UNbNdCC7vEBjZzzP9UUDu6W7rRtcRY1H774hmjcbINeKk3sVKzMdwczUsi3H95HiM3WO5CVV3BdUR3P4XYsH7setYRjJk5A6Mq0UMSSi/o9Ssy9o61dE4s7fHID35Bw+9fpFBmo/9gMB1TPSpSMbwrFqEud2gJe1zzz/twR1ey7Pn3uf//XUtE6D8I9b6kS3q6Ruy04bTX5nHl9tZP3Cs1MuprPOKFDvaZNok3359Hpxpn2Ktx3rvzFXY6cBwjvlvFfgM1mojz0Udz+cqOI4h4ffMRepeiB+2GWm45+RmUVjjguquYOHE835pxBIPcKk664WrqRo30XevrOETCYuPHn3DfZddTlhNCQWAmchxz9XjGzEiiCMy7RYtHP/dCGn45GX9uslSx6FrwcxFKOg19x1nSJfATEqWeYkaja0kKI2IQrQ+BbhVzEhS8jjzd85vA8CibOAwv7Oc4OAUHWnMUGnM43UKx0Q84KEJlMWGiJl0QhSa6RShk49ouXi6E0xbCaVXxRIXFal04fUwKeYNPF+aY/4FJc0NOkgpNFeqQxTUUp5V0F0TORXEWq4W4igmQ8mXawxcUBh2/Jyfe+n1yif+QxQbvoACBzYRAQBA2E/Db+m0NR0HvsvnHtXcy656/Sbd8KGrjJho584cTKB+cwlSzeKK7nqOi4cv0GoVqFs22efrBpVjt1Ti0UzG4k6ETKnj3WZWwWUNeuJUNhZF7T+UbP78MZ3AZprBjfVzoq3c0Wg/anoc2v41rDzuHyrRD+9Ac/S7fkZb6HNWrojiXfIrX4tKWULj2sd+RsjPceuKlKK05RBdhs8Yls5NC5dmj6Kw0KYjtcNEW9A1y9LRmBmJOljHDh/HBkhV4hKh7BOY8PYvdz9yFISdG2a+/xkInwpw5H3LkzhOIOeniLrU4h762xlMpfFzBbSe9Lnfkpz/ya2rq67h0vyOpzcFJN/yQAWNG+XoT64FAxMpfu+9R3nrkObSci5qAxESHM36yL0aFhWv6QRmfUBXDFL48UDGE4qceFM/qdbGX8ib88oHe+1se7StSVFZXosYUXNWSOgKKIwiAReM7n5CsqCA5aYDfelrs/vMq3XObcNMuqvAmKR6WViA2OE6kVpwk8hc0yILdlSXbnsEtFBUOTVHVIEIHvS2WZV6jopA1K3j5hSUs/KALTSvDczwcrxtPKDgKXiBIkdBGdCNodgRDE8JIGq5jy5bWPhEsiTn7WZOlxN3MoBjn//EGkjsPl6W6wREgsDUiEBCErXHVtpgxrz/WL4YoksfU1hyv/PZRXvvdXzBac6iGg17TxKAdolQNDFHVL4ame2Q6CzQ0dNHa4JJuDmNlw4Rr29n1sPFMPGASWlmMj597i5cfmY+1sgIvkxBhaqiv4JCLZjL5uAMwK3zFQ98a9fEWrCenUYQXZv3yMZ6/7h6prNd9pE7NKaPpShSoWhLC/NYnaFmNznKX8668mD/efi8s7ETTFFJVOZieoPy4IXTUmZiq68v7Fis75NjWuK9AKyyKOHUVkThvmArRn7fRke9kzDfHM2AqfHWQwUIrzKx353D0bpMoc9dFEHzchYjPihdcHjxvAXoszEVP3YuaSHL1gScSWtTM0dd+j9E7T8WRu/y+iYO9D5AMhbR1ccd3r4MVXTiejVNuc/pN+1E9RhhIUapZ8kD4O+hSCYK/mxbu/eK/+8rDRc9JiTKIkEQx80OWD1roiD4GIu/Pb7AkKwdacrR/sFS2w+6/y2io9EMbdNh0frwKLe1JVURbc9ArdeKDK6VQE51d5FNZzG4LN6/4vSAc3S9LFKGdIpWRoovS2+Uni6a6ojz/3CIal1lojkE0abHDDjUMGVpJNCbCCEJw0sFyXbLdJqm2DN3dBVJpi87mLGZO9GgIo3qRXlIkl0Uhmohy7C2X0e/wXWTbcL/ENfAibDGvrWAgG41AQBA2GqrgxLUR+GyCIM8XZYQFlQ//9C+evP53UnXRUHVCEYPuQgrHyOOoGTQlRDwRw3LSaOEMoydWMmPmzkQnTYahu4BRg7vw76yctZR///41lr+dwjAH4OU9sgmdoQdM5es//BbGsGrpTegJO/ck1/WO3k+qU4g2m9z+jUtJz15IodrCuHoY5piQ3BVG3hV/b5ZtJJR+IRIVCTo+bZY7yPayNLGv1lL+taE0VnfKexXDzjIOraFgFcnC+p4a0U450ubResUHVO46kPhJVYwaEeHw+hBL7AjvzJnLwdPGU+kVCcJqFyoSBDvGuw+08NJ1XXgDXS5+4gHQovzfCeeSe3kuB199ERP32lP2D+itJlhzRAqGqvLsb/7EO4/8i7AbRovojP5agkPP3RUiQpPB9bUCiuvpX6HoGZAKRH7YoUfEaTVm1Ju0J64hfEWiC6RfoeGXSXrtBdreXYZqQ3J4Dcbocpm7oORVMvNXobTZcncvcgD16rAUHrJT7aSa2tAzKrpghXIR+qagluZZxKpYYyEcFWbB4F//aKCxIYOheey00zB2GF9JIpkDTwhblRQaItiCzKi6rNhwrILIkKDQpZLtVpjz/mKaV2TIZxVfntnySyodzSO+12hOvOJ8qqeMpBAXugsBQQjeoFsfAgFB2PrWbAsa8dr5B+sbXKjg0fTCHP5+6S2kF7dISWN0DzuUZ8jkMmJVFuXVHlX1JgPHWiSqm8mHd6J88vlQtYe/9/Yc1O7XSL3+d964/yXmPq9BdxQ3I5TxVOIj+zPlm0ex28mHYMU06U0opqWtNiz5meXy/s8f418330s07KHtHMe8eADphEl5JkLmiQaS9+XwskUdA120AVbIhi3c48uIHFJLV5VoPey7q3uy9VW/54Io5fMz5fxfoieBqqmyhE7c37BVEvMcFvzmbSafvRdtk1JMriuTBGGZGeHduQs4YOo4qt1Ucey9yoqlySj5Sp782RwW3K8THhfm/Id+D2qYe8+/nMY//5sZl5/P1K/sg1PsaVC04WstkRhiYXkzP7/oCpLdmkymtOqaufDmk4gOtWXugRQG6inyFDa0qPEgdYpKuQl93O1FUlLMFizqQZRUCIWbwS8xVUzIzm7A7sij1EZJTqrHDZkysTD7URtui4kmmIH4aplOdFAl3U2tqJ02qmSBokLEl4SWMskKaIqKIyspej0fpSRF14ny8ssNfPhmipHjKth5z35UV4lW3KLqoiil5KnYTpiMU0OX6Tdqiqg5omo7iUiXTKSULapclVxOoalJZcG8LpYv7EKzoriOeAYEsUww5OBdOPjKszEGVuCqvb6YLeiHOBhKgMB6EQgIQvBw/FcQKEkSN7w1l2cuvZ32DxejKwpmtJVDzq1nx706UcJCYli8fC1U1cY2dsAODSJavzfUHgCRfn7CXK6JwsKXWPL8Q7z4m2a6FxsoVlTu7oiEpLDS9AuPIzy6P46+9s5N5BFmP27izmO/i9bUSWtlitrvjiWzk4FpuAxcmWDJTW8z8N0EXkFo9Iu21grZ/jbqyTWEp1eTjhb8EEfx8JP2/CZBMqmyD6q+IqCf5Cc318INndeJPtrNBws/Yuq5+9LZv4OJ/aIcPjhMgxnl/XkL2WfyKKpELWApQ77Uz7AUvmgZwG/PfZL0rIFU7TeC0+/9Begaj3z/pyz8zV/Z7YJvsNdRh+EIlSZpQnuTCFendh6Gp/DvB/7CnAefwiuoZMPtfP3KAxg5o6onxCC7IopEPLGbFloGpdyC0sVkdUAxtCC9NCWBpzWSJIvKVaItdPe8BpRmGxuHsgn9UAdFZUECTRadC5oJieoB2TlSIVaZJJ3qQnV8z0OPo0KIFYmySlWV+QEyyVCQBemxUHFEfoskCzpt7Sp/fWwx4yfEmDa1jpCIM0kviN8TQlCdvDKAVblhqE6esnALUTWFJjtpiiodUYS6el2J52k4rkbzSpvXX22gtTGCl/c9GrahMmL6Tnzl+rOpHDcY4WSQ6xk0Z/qvvHeCm/xnCAQE4T/DL/j250CgJE2cn9fEr8/8Ac4nLYRE856aFAfNrGbCXhaesbIno124y7Xa3SA5haZVDv3rBqL2HwFqFJwuaHqLFY8/w8M3LIKOeryCjLbLEEN4aA1HfvcsRh2zN7mo0OcRAj2+qz2U93jjmj/x/G33oxk29i5hwt8bRiEuktRc6hbG+PTqNxjUUiWb/Yjyx7a6LLVnjSY3NUQuYsld+boOYbh0V8GWjYNK8r5FkyJttAhBqMS6dZTfNKMeWElhrI4XzrDzoDIOGKjS5pbxwfxP2XXcUCroKibC9djenvQKa14t15zwRyLtIxg386scc+MPJAn4249v4aObH2DSzKP46swTsUWegR8fWMeQfRe8MPzpZU3c8/0fo3SItL88k4+t4+CLdsIRKoZ9xn9x7wAAIABJREFUEw2LVxJhAjnHYr8DYaSldLJ0FBRrGnp28sUofNGzIvMS2kxSHzaKwgPyUZfqaSNkSaNS8EjPbkYpSIkJ36D6gQ7f6yCjE6snXpaqC/oSHyGRLCo1RHxAfG7ZYf7xzzcYNXwcO4ypQFVESMH3BpTIRsYbSEGpRCNLVOlGJyM1LFAjkjxoghjZaTTFkUUR8pkS5ZyyxbSBZYVYuSLHs09+jJ0vx7VDOKpCYlwd5953PdqoGgq6f7++AbqNCNZ9jp+04NQAgU2DQEAQNg2OwVU2AoFSgpt46Qv1woeuuoVP/vEGMZFlX7WKPY+JsetBMbxwo1/PrtqkGYuWHE9i4ABwInRl/K6Amt2C1zEbc3ma3//vUry2IXiWv6v1bE/K2lqVEaYcfwD7nn0s0VH9pW5CyIGmN+bxp2/8ECWbo2twniEXTKJxmog9K4QclejzeVK/WEgyF5XEYlV1iv4zd8A6IEZ3zJK71b4iUdL9XUzyD1s6+fkdxKvLcGo0CiFfotgveSwqN9oaaoNN6sEl1J0zkY6KLIabZY/BFezTXyXllbHg0yVMGdWfuEjNl8TGd/D3tdTdb1dz48yHCWVr2f+HF7HXeSdLNcKnrv0Vc276E+OOOZjD/99MLOFFWTef6TFTYj56weK+a2+i4+0lhEIhKndyOeXag3GiWb+nwWqH75EodT3sLWUQ4RV/Ry5ViX25xZ5vShVF8XkWUgtWorf7jZC8wRESI4SqJuSWduAsS8u+CH2+WCy1FIbZwVNtdM+Qks9S5bCU07BGGkJJZlt8nMl4LFrUwLjxw2X3UaVHO8HPh3CIkPVqpbGPKSvR3TwWlXQVKslYcb9EUxBMxSSk5QnpeUJqHp20vJ4IgXnFhlPpzgRvvL6MT+d3o+ST0tsUmlzP6bdcTnzKYCzNJ419Cc2GshQ2PqC3ET+MwSkBAhuBQEAQNgKk4JRNh0BPXwTXI5ryeOz7v+Djx15Gsx3s2Ap2PyLBfl9L4oWbEFtIrf80qJnIqo+X4EWG0n+gCDOkoX0BrPqE95/TeerORsJqFabSiq6buOlqNCeBZ6vYqoI+uh+n3fxdanceA90md5x5OalXPsZLuuS/GqH8rBGk4nnp963KRum+ZwkVTznkMnnyFTbh4wYQO3ogLcluSQ5Kxr7nDS/f3L7ccCIXwn6pjU9ens+0s/aha5BF3vCbNvmHRzwfYuUri6lJ1qJNKSMbNom6OaYPLmPPfhpZJcmKhgZG1ZUTLrq2/Rq6Yp19EcTFT+rc/e1nUcwoJ/zu50w8bAZYHk/+5JfMu/VhqqZN5PQrLsEKa2sJJa1rRXVPYc6Lr/Gvn95JWA2j1HVz8R2n41S2l4Ibfb5WDKmspbHQ14z1YRXSGBeVEGwXZWWe1MJVhER5oqYQmzYQRKlq2qXrw5XolisjIqKcsNdwejiahR5xiVaXU2gW5Yx+HkIJf+G9EPkesnWC+G6xcsFfISGR7Mm+GNI4F70qMlrhip6VCTQtBHYWQyhp2gkaOvvRbQ/CpFwGKzRPkIIcupDiVjqJh0yiUUc+d7h5DFWEYQo4omTSLef9We3MfrEZ14pie1A1fQzn3HMt1sA4zufMSSg1nlov19t0P6bBlQIEJAIBQQgehC8dgdV2233v5nmE0w5v3PIwr/7yYRTLQkl0s8NuHnufnKGsCiw1gl65M1rlfmC2YDc9gZtdRqY9xDsveHz0fByz26BsSCdfOamS8kEZZj9aztxXMqi5JF7u/7N3HnByleX+/54+fbbvZneTbDppQELoEJCAgBQLYsMLdgUR/yqWa0VRrFzrvXqxoUgVpSiCIkUkkEI66T27m+11+pz2/7zvmdndAAL3XtSAc/zEDdmZM+c87zvnfd7n+ZVgh+lGNRZfcjZVtdU89u1b8XyHjtZB5nzqBHrnFsZMmFoOxNl23ZO07EpKMaeR06Dh3Ucw2JiXfeOyMFCZSimWPLfcaxc6BwWd4l/6cL/XjbPApOHdcxicXmpJlPrO4QGV9JouzKWNuEJBWPGJOGnOmV3HgipR3jcYHByiqSoalLKf41A8jU2/svntF1fhuB7/dvtPmH3qiZBxuPeab7Pj578jPmM67//aZymEy+2V4ETPtRMNllmF0d5+brrqGpzhIkVrlPdd92aqjhOqgaKiUzZbCuySS3lRcE6JEyif/JlLWGmvXNrdq3lP6hroKU+2dLQqk/A8kfgppHb0ovfm5E58jCkhki/RmlBdjAYPw1LI9gjPhXEL7nEVw6BSE+RiZUOlAFApwJeBZ0Q5OQiuV5hoCS2GMg5B4BYKbpiu0VkM5htx/BCaUiRiZAg7B4hrXSjuiLzhghMnq0/FN0KE9CwJc4CQ2V+ig3q4doi1q/pY87hQjbRkJaH+2Dm85gcfoWpOK46QpXyeY0wp9Bktnr/7l7byAZUIVBKEyhz450UgeDAKrXwt6/L0zQ/yhy//BHMkh6OliLc4HH1qC8kmn7qWEAXS+AWFwpDJ/i0Z1i5vR7GTqFaetpPrOfbNy5h6+ul4+TTZrbew45G9/PX2LvzeabjCwU8A0DQhlysoaQ5+nUr4qinYx4fJWAKoFujoN68w2fHtVVQPR3CrFZLXzSM11aUo+vATDimnLFsGgSVxWSUnVrQoPNSN/V/dhDyL9GKFxg8fQV9dFkVTUW0oDuWIqCEKSbGAuZiGjpkb4nXzG2mLBbRAu1gkZApE23OLHCm+yaNf6uKJGzrIWVne+7tbmLL4SBjM8vsvfZ8dt9yPNWUSV3zjixTD+ouqIIglUvM87v7ad9m3ciduvkDr3Hqi0ya0N1CwQhE0sQjrUNdUh2Wp1FRH0asgXKejRnxU08cUbkhWyXCqlJlImeWOFNnOUcnkEFgOpcYgMqseRgsMbe3ELIhCflCRkaBIOXYeepNLKJJg9MAgWkHQUctF/wDbMZb4yGRGEikPPSS7pFz5CPQbSpDKQ1oothtnIDOJnnQbrm8Q1ntpiPVieN24xRCeliQnXCcx0PwiWqEL3wiT9hvI+Y1EjDQ1sX6iRq/EMLi2yVMr+tn45AhOPoyt+jQvmsVFP/p3QjMbcQKriyBxkWDWSo3gn/dcqnzyxAhUKgiV+fBPicDEVrFYX62My+77V3LTJ75FrD+PonvoUZuCM4IR9lA0W2ILsgVP7tjNWJGFJ9RxzKk1TDpxGSw4D6wZYomD7Fby21fQuWIlj9/2OF2bJqFnQ6glSTs1rKJPCVPzubkcnDxKwXDkAqEXFOwfdOL9eRhX9Yi8vpHQJZMZEVoAz2gQT8SxTwS5VWXCDP18N8q9o0TtEOnaIsk3tJJ7Y0wyJMqgNlnV1iBqp2hqbaVz7w7evmgyk8ICeV/WGBhn5Adl9PEFTnFD3P3/trPrrjyj+gAfevQe6ufMhN4Uj373RtbeeAdqQzVXffOrOJFwQMt7ESNtqgqrbr2Xx2/5I6RtFN3HDRcDMKKQlhYLuh5UJCQ5QhozeHhFG0wfK26ihzRMU6ehroop8yfROqOFaJVJsjkBVo7Mlk6UnIi5j6v7WNPiGHVx7I4RsnsH0AWtUR7BAu4qHuGmGHpMJ90+IJUVVV+XtZuAzVCSXRZ4QdmXKL87ADSOHYGEYlBNGKOjihqQiut46JpIJKMMpuvoHp1C0Y8TMzupSwgdBods3iBXNLA9C9czpL+G8MY2ychEQDejpO04th/CUNJErQzxUIqoMYxvp9m0up+1y7vwiglZc4rMn8yl//EJEounkbeeByYyFo0JipQvYiwrL6lE4P8agUqC8H+NYOX9/6sIHJIgyLXAJ1RU6XxkPb/5/A/Ib+tCLbEO9ESBqrYCkViBUFxhyuwammdZ1E7OgdnDiHEM4abTCE87AczpSM9grws6nqB//QpW3rGNzb8bRs9KWTt8zacYdSmeYtF44XTc6SbpSIFYr0bnNeupa4/Qmxil6SsLKU7RKeoTyvzSrTDgJ5QXmwkrELUjUUav34m+xoaUh2/69NekaPzkfOwFIQqWK8Fscm3xFI6qVihoBt3d3Vx2VCMJUyxqpd3tWFJyKJxN/Jdqx7j5A2sZeixCf7GXq5bfTc3MNtz2AVb/7E5W/ORXuIkQV13/Dfx4/EUnCIJ6uu2hJ7j7Wz8nUhAOhB6EPAFtkMqFrmHj6UIXoXzXAeVQ8UR1JrgnAwtVWHDmi9ihIXwd6cdR31LD5PnN1HoWjQ1VJGpCmAmV6MIYWswgtb0LfShYjIMYByZXnqYQnhQj0zMkzyuUF8fAh2UcgeSSBnAE0SqRWhTi/RK3EcRPJmfP2J17ogyihVA9W7pQpgtNdA7WkXEaiVgFmmqLpNNpRtMGRa9GoBCCZkw5CZEAVR+DDKZIYgX/wYmXEA8FTHWIuNlPJFTAQmPDil1sWnEApRiVHhm5SRHe8qWrmH3+SeTiz6/JPHEW/K++dJU3VSLwP4xAJUH4Hwas8vKXPgITH7aGDf6+IW5931fpfGoLIV3FaOznTZ+cSU1bO4qakeBF6S1d0sHXZ7yO4pBPz0CaxnkXYTbNlYqCUhUvdwB71S188+JHCKdaZBVC7sQVHy2h01U9RMMbZ5E8oxl37Sh7frCWpBMltqyJzOUJfD3ot5fR+gHVbqyjMFaylvBBz6NhIMbwNVthn4uWU/AcRwr8sCRE6MPTGEpm5S5cXIOQXb5wYTNrtu+l6Pm8bW6cou0QCxmyDRK00oOFLQDblQviPqqT5KYPrGL08QSD2VE+vOrXJKY24+zr5enbH+Ch7/0UP2Jy+Te/jN5YUypbl1f1v4GHF4xA4ODTO/jVZ64nnFfI+zbZmE1dy2SmzG8jOSlGXUstesjEMEoGGMFmn3wuy2j/COm+LAd3HKRj217S+U503yJEjGS4CnRFujC6egYtJJKGGIvfsIA586biD2UgJZQbC5IkKYWxFA1F03CEhnIxqPQEx8SSTvCPZYOsAMop3h9UFgS8oJwXjBtOBQmFr0Xx1DCqPYDtJGkfbCHrteG4LpMaigwMuthuGFe4QqqqbK0ITQvHdkrMlYDWGUwJD01IVUu0JWiqSBcyxC2bfMHFVHuImz49ewd55L5NGL6GZ/s4NSFOeN/rOe3Db8WNCDnp/7tL6Uv/La2c8V8xApUE4V9x1P8p9zy+KJX8e567XipK/R707epg+ad+wt5H16BqDslpNudcMUrLDLFE50vF58BRMKfMITbztaDVUOx6EHwbxarHiDbi2z4H12/mhitXUu0GVEhJuxM7U9tDNTQKMZfIkQkSWpzudQdIxfPM+cgJtB8rEI6l1W/CQh1cf9leuLxwC3VEhcQOldynd5HzNGrqEwy29xAqGGghFb46mfwCnYLhyh3r3ATMnd7CX9ZsYnJTA6c1+WzrGubIKY1YYy6Oh/Y2ZJVcLEZ2FT977+PkVtQynE3zodW3k5jSTHFfDyNPbuPmq7+GXSjwli9fTePRs8d8Ig5dXJ/ddBCLXM/uA/ziU1/FcD3mnn8qS794BdHqJHrIKNkWB4vkIUepfC8FiUTrwHYoprKkh4ZIdfTSs2kb3es3Mbyvg8FNHYGSpiKwEVYgGuTkmDyznmSLxvT5SRpqQoj8QyZGcoEXC7JovpSsnYVEc5AHlKo5Iol7bscDmWDJzwvGSlZoSrbQjhMhk1FJJLP0jc6hN90gGQviPlTfw5FMCGHVrUlApe8GLQxNC6gQ4t+k1oLMD0XFotQWkj+FMHeRqJ7BpJeQUZBti7wTpbdjP7tWbSPdM4ImEgVDZ9ppizn+4xfTeMwcXFM7pK1VjrYQj/wbEhz/lG915UNf2RGoJAiv7PF9Wd6deBgKrQSzv8DNH/kae+5fQdwEtW6A176/gcnz0/h6f5AkqDr6lAvoPJClqaEGraUZ1GoY7aVwYAPFngH+eEOa3h0Zhu1dvPk9p9BxYBer/qCjppNQUOWO3gsLJR1f9s4HjyjQ9ulj6G7M/O34SVnf8V29+FsyHWLot/uI/brArjqLky+/gKfuuI/J6zOyZD76Rou6S2YymMygOzleOyPOzozP3o4ujp87jTp/mJ0H+zl93jQiXuAJ8LcOJV/DDe98BHttA8PZVJAgTG0mv6cHc98gP/74F8j2DnD8Ja/nuNeeg3NIab3c4BkvWstPEjLFvkL3jr3c+Onr0DSbU99zEad8/ioJsJQ6Ds97VROutrwol3f7omXguEKtiMz+g2xbuZbH7/49B9eup7oYImFGyBcc8gVR6i9SVxth0dI5TJ9bRzgmQKRCwbCENyglJ1I6qZQwCZlkYa4USDSVgX5B/ILXiEZACNc1cF2bkFnEVarp68tTlYyjmUX2dE+n4NZSlFUmUQFQpTqjVES0HTQj2NoH3hS+ZD8IEGWZGVEKoYyVSCTKVQWRdCleUTJSLCMw68rmdexsgW2rV9G/ezemq1AQyUhVmBMvOY+lH3gTTnMEiYUsCT2NYV3KyZEsREkXquecJoe2JF70yL0snxmVi/77RKCSIPx94lo560sQAc0FrTvNA9+5ibU3/YGw66BWdXLOJVOYe6KGbw0KZCFEp6E2HQHZIpmuDjwnQaZL5cCGbjY+vp39nSrzzj6Tcy87h6rWAqN7H6ZjxVYe+NluGGrGy4ZRPeFBoKBYCpkZLtOuXETX3KzEHwgNfcmvl33xQGpY+hOUytwyTfChsT3Gxmsfprm9iqdedTIzL55FaO0mrJ+twXIN9kzqZf4XljLYlqXW8jhtSowHtnVjqS6nL5rDhu1baY0aHDO5HssrSvBf0Fp49qEUqksJQj2DuSE+vPI3JNpasfcPoLYP8edb7mDtr+8jMnkSH7j2s1AdfWb7fcJJS5+h+OgotK/dyk1fuh7fLHDxNVcw5z2XBAvlM47/DeI+6K4ImoYP2Rz5zg62r9zIxkdXsHPFGrShPNV+FMdxcJQiVgSaWhMsOHYabW1VaJJxInr9Qt1QCCEGYzOWCZSvsZQ5BGMmllaNfD7J6KhPU31OghkHUg0UCkWa6mEgXU/fSD2uHwkqDRMSKvFX6S3p23iKPpYYSHdIN49SLOJkMxRzWex8UZ7b0A3MkIVqWBihhAS9appoUwh9BEHvNAPfCMcm299Hx44ddO/ZjV+w8SyFyNR65iw9jmNfczp1R80BUYESrtUCYyHKCA54I1m27tzG5BMXYJjGOL3zuWfMc6Z2lbThJXhQvYJPUUkQXsGD+3K7tfEFZ3zvo3g+oZTHn7/1S9bcdB9auoBrHmDWcRaTZhrUN1hEa5NkihqOY5Hr6aG/f4B1K/bi5yNU19bz+iteT/2broBIA6g5SG8ku/luRjcN8+itG+jZDP5ArfQA8FSPQtyhu2aEGe86ivDiOjKJInk9EDsKkOuBWqAEvZUEeSKuhfFght4fbiHkhFj5sU9SfVSKJT0H6PvCb6nOxOgNDzP1c0tIHZllbmu1TALWd6VojXgcM2cyv1n9NBcfUc8UwQTwBa1S7D1F3zvAW5TlhOWmUWIQVpJ6Mk5XuoOrHruL+jkzsDuGcQ8MkBsY4uef/BKpgREufM+lHHnuqyTnPriHZ1Lpxts/hqqw/t6HeOCnt1MI2fz7rd8hdPLi8USl1EooFwaeVeOY+PvnnYAlNoH4aFcAGFwKO3ez9g9/ZvldfybXMyw1Jch7eJ5DQU3T1Giw6LhZtM1uJJrU8NUcijRYKidwgWmU0DsQ+AMhaiV8GcSeP+/EGRo2iUejRIw95Gmkpz9KddJA14Zo759LzhZUgmcCBUVjo4iOjecpuGooaB14LvboEO07t9KxYw/5kWE0OYFKc6LUdvAVHSOSIFYbp7ahnmi8mnCsikgiimZaYy6PlqaQGehl39ZdDHR1UsxkKDoOdlhFrY0x9/ijaZ4xFSNs4hQdDrS3s3nPDt54+WXMPud40fN4sbWdQ0alJF31cntUVK73HxSBSoLwDwp05WNebATKS86EnbPvI9wg99z2GL+95j9RhnJSO0AA0O1iFi+exrcKcqFRMjrJVou5S6qZutCmYXYOwiba9PdgTT5D+AVL0x7sEWi/iYH1K9n2QD+rbivg58UWreS+aPp4VdB3lM2syxaTa4WcXgj65WPqfIFwkOg9Nw3E2f+dDVSt1UjHLR780tepm7SFs4b3sf9zt9PUnWRYG6Xh0wuwT3JYOK2RzZ1DZIs2S5rjGG6GJ3pTvG9+DdW6WOgEnVNlOOdTHRaL1LhcsYik4kS55Yq19D6kM2D38u67f0HbCcdAf4bs7i50X6X9qXXc9q0fYloR3vnpj1E9a7KUoP7bjQtpWMnDN9zEpodW4tTE+PhvfgyTImOqhAF0QCvLPqAYYuf6jGJEOT4ld8XxLf4LzAHRlnA97MERBlZvZMVt97Huj8uJeiF0R8MriGpOkUi1z5yjGlh0wmQiVYaU5A7ACAEosezqKEkNEhKhMFyYTjabozY+KgWNejJzKKRHqK02GclD7/AsVF1DESBD2xFwwzFgqOUPErVcUsUoDiF5zsH9u3j60YfR0nk8aSgVtDbEIadQuahRiraiCTMpBVf4NqgKakRDNaOEqmuondREvLqKULwa0wjj2zmczCiZvn56tu9mqHtQOlSKmpXw+FAtk6YT5nLBZ99LeNFUHDFoY5/+4uis4yPxHN+3F/tVrbzuFR+BSoLwih/il+8NjqP3g82R6nh0/WEtv//Cj7B39OCL0r/mM/X0YRYsM4jV5rGEQE/EJRoTtDsncFY04rjhVmxjGuGWVwX20XpcghkZXMXo6gf57TUPMLq7CjulyBKuRMBbPrJgPNskckET/lkJCpZYvIPHv9y5SkEfl5p7HDp/sQXDS5I5dgG3XXolc+o2cMHQLvZ+9laaD1aTVdLUfGouudNVklGd3oxNxE5xwvyZPL15A6HqWi6aGQnaC8LTUrNYdzDHMc1hNFd4B5QKwkKLwNd57Gu9PP6Ddmxcln3lak5579tgOMvo9g5Mgf53XNbf/wh/ueVuDE/hvA+/m7Zjj8Qv6Rg8c2aIe3EyOW75+FcZ6e6m7dTFvP7qy7E9QWuckAVI1WfRalGk8JRmGEHSYKhoEVP+VKzgJ0LmWeAXRJ/8b7RLnjVDRezFem87dK/fzqM/vo3eh1fhjOTwHR2hIum5NuFanbnH1DP3qDqq6oRk87NVJ0VqZds6XaNTiYZsaiId2K5O+/B8aqM9iM7JwcEm8nadrApFGJaSyhmqUVQN3y2SNIfw3QyjztQAhzHSx6o//AFnYBRfDNUEZcZguZV8T5klyBEbU0EsjZ8W0EWCgoPwlRCvFXNJR1V0rHgIxRDUUZ/iSB6vIJILDS+sU79kJrMuWsqiN5wByZBsOTxTo0MmKYERdontEYzdmMz5y/eRULnyf3AEKgnCPzjglY/7n0ag9HArocTDRYW+J7byn+/7DPGDeVRDZdbpPue+qw6laktAj5Ml+TKiXKj1GfjxeYSmnklq0KN/qJPG2hlEEgrYXRQ3dXHD/1tNYcjCdgrSbVE4OymuxKejxFV6rWEaz26j+o1tjNQUKegl+V5PIdGuse/ap6jvMtilqex//5WsPe5UTqpeztk9W9nxud/S0lXFgDFM62eOJnW80E8UnWqVI0IZGpqbWbt1F4vamjheSAnL9oLAT1qsOJDi2NYYIZxAQKmUmihOFVt+kuPua9cSCkeJn9DCe3/5I6nuN7x5L6FiEDfTV+h4ejs/+fq3IZNl2cXLOOm8C9CraylKNP94u0FQ+Dp37OaXH/0ceUvlo9d/lUTbZJks/a0jADeWmAaqUnI+DOCV8uy6im4ZWNEQWjIOUQuEwqKmyJ128PZyz3983y3/XfyfAAwWPYr7O/nzjXfy6E9vp8bRMX3RUtLQDRdXS7H0rKOYu6gZI5ITmeRYuV2gKjKFOgZGTeqrXcJaP5lCnL50E/XJEfJFne7UdDzflBTFhNKF59gM+VPkTehKmtoqi+HhDEVqJGNh35OPsXfVGgy7dL0TZJCfrzozbs8U0GzL4lcTdBRlLIQcs6gKFKMqBQOizXWcfN4yFp95CvHpzSCSMBFdERtxq6JFI4ItGBbl8RBJmSaQvgqeqVHUgs8sW5KXx/PQiP9Pv5uV17/SI1BJEF7pI/yyur8S6nxsjz7xMTb+6A3lfUY37eemj3+T9Mb9qOFBpi1xOPftzYQb94tCbIAul/VwFU0AuGa+idxQnHAkAuFRKAguZTuDO0b4802bOfBUBD/SzzGnN6BrGqv/1IE6MBVPIO/FImr4EpuQmwmtbzgC7agEmWgRK6+T+el+cn/uQ8/C1tZG1nzua/Qkqzi76mFOb9/Iji88QOtQDXurujn52pPJLVQ5mLbRfY9XTwvRnbLZ05fmrJnVTI0UUIWQkrCtVi02dqVpCGs0V1noouIhDA9sk813ZfjT9U/jHohhqAZObZ4P3v1zwrOmM7qzHXPYLi2SCrrvUxgcZuuKNWzcsppMzqZp6jQWHn8ck2dMkxWAMsJh/85dbH/0cY45/VQaZ0zHEYj8F5T+LQE3xXBNeK14uMjkQiR3gikiNtamjmYZaGELIxpCjYbAMmTCIHfVY5nBoRNX7KaFz0Rm6x4evf0uVt37EGZfgahi4DrC66JATaPFgiVtLFwyGdXMBRUkdIYKbbjFDNVRgVkoMCz8FVyFWAgGUxZDhSny/iP0YvlDeEqEUX+ynIW6ksIwTTI5H09oITgFHr/1VpT+UVSnbHhdVqgoXbys8JS6+xPxjmV+75huwt9w2VQUias58fwzmHv68RhHTJFgyOH+ftr3HaDnQBfZoREy/cPkhjOkhocpZPPkc7mAfqkoWJEwieok8YZqks0NtB4xg2mL5xGf2YwbUWXC8D9ipbysniOVi32pIlBJEF6qSFbO85JF4FB61nOf1rB9tO4Mv7ziyxxYsZGQkcOs7+CyT0wn0WSDnpZod7FPV3DIWEtITF0EBZvRAwfJDdlkDmZ47Dcb6NrhocSSvP6qM5lzokF6YC8qjVnUAAAgAElEQVQ964f5/X9th2w9dkqT1QSxgOmWTmdNPzWvaWPasnn07ehi4Ps7CKdU+iMW+be+mZte/XrJf7+w5kFO2fM0Oz//KPXDcYbPdLjgsyeyn2725EzqLJ9z59bx1K5uBnIe58+0qDZFXSHY2QvVvt6cR0f3EEdOb8LyCih2lF2PjPDLq54gKYSfMsE+VI+7TL/sHM7/wkexUxncA4NBSbmkRim+6ILLL7wW3NEMhWyWggZmMo5hCseo4BBsBbFWi17581UOXuxgjwEiS8DIiTtWIaFs66BGLUKJGFZ1HEJmkCxItOH43rqMJxDAQ1Xs3A8Ocs9Xv8uaPzxK3DXxUsLiSqfgZambonD2hcdRO0m0OXwGitOJqP1EjBEpYtSfn0JE6cVXqukZilPw6+Xt1Glb8DyNjFdPXqmR8dOUgqz0uIJCIESv8mke+9Ut6KMFsIMkQOZFImaCoSDuU7S+xP8EDVJ4jQQdhKAiUjb8kpaSpaT3GWUH8V6ZUIU0cmGVvCZcJCHkqBgFH6UodDSCc4pEOJCXLgkkSPnrQKdCeliI5EwDR1MoRFTaTj6KC654O3ULp1OM6YhpXTkqEfhbEagkCJW5cRhF4NkFzzLN75m7WLl+uB5OT4pHvvAzNt/9KLpfINqQZ945NpPnelTVQiiioelCs18lk3YYHbDYvt5hzxqXoX0qkaTKgrNmcMK7zyO88EwIRWHoCYrbbmVw+34ev01h98oclp3EK5Y6zAbkwjbxlmpGBkex+lVM02P9nJl0vf9yHp8ynRpngNfWP8KR69ex/0trqClESX65mRMvmszu3k62jZrMS7ocM7OJFdt7JE7+/DYXSw2sioNDwfFg56DCpLhGtWpwYGWGez66l2K7gp8F3dAp+EUMU2dIS/H273yGOa9/DYWtHXgF+1D8oFykg93+2IolVZ0nrlATx+CFSXDlHf9zi/cE7x8/48TzlaSqy5ciFjqxqIV1hOiFURtHi4VhDBA5waVRrsg+TqFIbks7K2+6kydu+x1xJyzFMwX10Yw7tM4JcfJrFmAbs4ibnZjqMLafYKAwnRprF+lCKz0jdXhKAt+zaTFWkXYbGfGmSpDimJ23/LzAEpp8isduEglCXliNBqqYuoYXUZmycDat82ehR0MyprmBUQb2HaR98y78TBGvLNIlnSXHGw7PhxoVGIqSGtRYdUU6T6oqjucgwBqCeaP6BnrYJJKIEIqHsaKRALMiumiFApnhFKPdA+i+LlkRTacv5JzPv1fSKUWS8HytkcPoAVG5lH9wBCoJwj844JWPe/EReCa+ekx/v3QK+Xsfwv0ON7/3i/Q8uBbFEr37FKohUW5U1cXQoipuUWWwJyXVE4UKc7whz4JTTBaeGCZUHyE8963QchHoSWnAg9NNYced5Hc9yopbO9j6sIo3VDOm3Ccq/Zql4zhCBMcnE3HY+IY38PiFbyYVCjHN38oFdWuZ9tB6+r65lXBdhJZvzmDR0jgH+/tYP6BxbK3CvJY46w5kGS6onD7VpVr6PgQAt+DwKXg6bt4jvTHML698Ar2rGjfjo4mFKWlw9LmnsP6+h1BVH6clykd++DXceDXuYCYA+5VcC19s5Mub0Rf7+kNeV1rHn73gTEgWnkGzDHbWpQVT7oilFBGKpWNVJ9CqYxDTwThUXVDel7hY26V3/dPcc/0PSa3ahjcs1Dh1CsUsNVPiHLV0EUcsUDGMFI4fZ6jYSrW1n97RqQwXWmSFwCJHrbGTlNPAqNsSpGeytT9+J7JeUEjz+C9uQR3OIHSZrEScWe86i5MuPZ9oS62UhS4LFwkBJcX1yQ+l2LPqaTbc9xi53T2M7uyEYSGENXEij9NYx0Cwcncv2hgOqsAQSECihhY10MwwZiJJbUszkUSccCyJFY2DrkuBJyELHRyBJLRbdBjs6mDfU2tJ94jqicLkxQt49bevpGr+FFnJqRyVCDwzApUEoTInDtsIjIH2JzxJRSVgrEwr10+f8I4RrrvgA4Q60yiC8qWD5wjkvU3R6qd65hBTZtcSjqjU1ISYNCVGsk7BjGXBSOFpBml/Glr1POJzL4DQLFAiQhwBBp5mZPUTrLp5LVv/4OKMBgyD4Cj1mY0Cf508iexHP8ljU2ehKi6vCj3BaaEdqLc9ifrbEZSZESZ9eipLjjUoFvI8si/P3CqVY6eE6Bj22dZt09aY4IiqPCY5CbYcXz9U1APNXP+OO2B7I6QFOM9gNOTwtk9ezozjjmTVAw/xwI2/IBI2KSQMrvj6F4klG+Qi9izhnzIA8LAd+VJshQO3KN2LDXNYJyyShbokhARjYcIoiOEQAL1Mjs7VG7jtuu8xun4v9WqcbMFG1T0WLG7k2FfNwKyGoh3G0vN0pWaSsltQsImbA4R0h6FslJwrkkSxdxcsDVUCL8UfKbfkeyy/9VZivk9vXx8JM8yrrryE+f/2Gqi1sAVTVrBARaVGFBccH6Xgw6gH2zrZ8sflPHzrPdiDmRILRk7iEhNB4GWCBpvUQBAJgaZjxuM0TmklWVdHtLqWaCKGGQojORtqmXKqykVfvFvgFtOGQpcVwjQ1kk6RmmwOfWgUy/PYvWkDOzdsRHE1qo6ezjt+cg3qjFrpAXFo2eRZy8WhGc1hPX8qF/dSRKCSILwUUayc4+8SgXEswphEUEksqLw8i6ehx8prf8Xy/7wDQzzEGxTcENDnYBZhzrH1nHVpGKOuG18bRVGL+KrYvQnAX+mytQha1TxIzKd3JIwZm0xVXQtExInSsKudGz/wfUaersHNBDv8snmT0NXJJh22X/5hnjzqOPZHEoQp8JbEfRzrdNL/38sJPWajLklQ9+GpLJidpylp8fC2PkwrzJkzwrK/vKsnz0AWasMedXGdqoiKpTgYwtI4VcUfvrKFp+8YQBuKyUpBJuxzwQcv5chXn4ogLKiOzdbHlvOn2+6kmEqTbGngzNddzMzjFkld/0NVFP4uw/X3OWmJ4SAeVLboy1sqZjJGSOAV4qGASjmhRC50FBgYZeWtd7Pi1w+Q2dlDqOjhOgWqmg1OO28RrZOTeLrLwbRIEJpRKVAV6qPghqVPgtA6kEulAEbKikjJMEuwNByP4e1b6Dqwj6nTprPm4b+QtrNUTZ/E7OOPJlpfTaK+GsVTyI6myQ+n6N59gPZte8h0DRIqglEUpk6BnrikOgpcgqHiqRZWwiJaVUUoFqe+pVkKfWmhMIppymRBCFDKWky5W1NqD4lGzoip0xeL0ZVM0GnqNGUGYcM6lO07UboHUEfzmJbOpIZaMv1DDHcN4qoKzRcs4ZLvfIpsnTlmEPbcg1nhPPx9Jvnhe9ZKgnD4jk3lykq79PG9+qEhkSCskRw/u+Bqcuv3Qa1C9Mx6pi09gkf+635q+sI46X6OOdPh3HdMwTMP4ilBaVeI1kiWHy6Ob2FVL2JQO56amZPBG4TedoY7O3FTCvf/YD2dK200uwq1KBD/wXIrgWkxgx3zJ7Ptio+xpmaS9DyoUdK8u/EuFnQPsPHaB4luU4lfOImq98ygsa6P46ZV0z04yl/3pzltRpLpCU0q8A27YfozPrn0ECE/w6RkmNpIiG2/LvDbL67G6KmT22k/4bLsvW9l8TmvoihZBkE9XEcl19XLX+68l9V/+ossLp/65vM546ILUUMhBChQlqxfkJVweEy9iYiFQ9ALEhAIXtwk3lyPEhdYBQEODBZzsdtXBfVvKM3KG27hzu/+mGazDiebp+gNc9LS2Sw+bS49xWmknEZZ8YkZQxTdagqOjqeopaJLkEF6rocq2AHyPyDsFtm5YyezjphHbmCA7StWsGfzVtlOsCyxkPv4wghMdIqc0k8BvBRjpagUbMG6cPEE+FAP0drWxqTpU6lumowej+IKnQpNl/LQruOiCz0GIbBUEp4KzKEUXFfofCDnwGAoxFB1khWmwbp4XBpSzbrrVzQvX870vIKd8/E98fkOhA2KIunJupieTz6qcsFXPsjcd56NI+JYwkjIOX54TIXKVfyTIlBJEP5Jga987AtH4Jkthom9cVFT0Fyf9NYOfv6mT6O0D9EfH2XK1QuwzmjA35Wj4xebiW0EPwVTTjvIWZdUE2sYQNFcfLltE9sxBwcLPXkkWu1SCv3b0O0+3FyBfU93su73OvvXO4SMBJGYwcg+IVgUiCRhKQw3Rnn4E59h5+QZDKk6UbXIbKuP18ZvZc7GAquueYRQSqf6A20kLpyCrw1wUluM6bE8T3a5dPWnWNRWw8yEKF+LqkYgHSyyD8U1GGzPceul23D2RPEEcD7kc+TrTuHsy96Oo2vPWuzlhtv1GOjsoXP9Zvbt3IKnaRx9ymm0HDkHQ1IaXzmHFGEK6Rj1cbT6OFiimR7IYcs/jkvPpu2sveEO1v72QRJqjGLGo26Oz7wzLsSomo7va5hqnqITChwmpZR2MAaHqguNe2MIYygh4ywhmI5HYWSA/v37yPf1kxvup5DJYRdsXNuVQFJD0Dotg1AiiRZNkGhqIlwbxwwnUY1QYIYlO2ZlZsP40iySA5EUiGRATFthqFX2AsmqMJCMcX9DHYqmk47F6UqNsOjXv6Bh5Vpio65UepzQFaP+2Nkc/7qz2LVmM9vuX46fc0gsnc17b/saueT4/Bj3GjnU4vyVM3sqd/JCEagkCC8UocrvD9sIGC70/m4NN37gy8SKHh2JHmZ+/2TUtgi6omMe8NjwvceZtD5GwRumarLD4tObaJ2rEKvPYoRzqFpe7jpFXzpXDOGPJune4bPpiQH2bRxBsVxa5qksnH8Uy3/TTrFfD8rOhsOB2gi9l7yNv55yFj2GkDJSSLr9LEvu5ITok9T+sY8dP3gK0dGovWIayddMJa1naDRyLJsRJaTarDqQoWu0SNukeo6o8alSbVTZRRYGhnXc+6k1bL5jGCMfxzc0GhZO442fuxIzHpNWw886So6L4t9FO1skDLl8nlQmQygWwzSFyM7L43ihgrakDmpCCEtoBnkohk50UhVKXQIswTAIyvGSYVFw2f+XJ/jZp79MsrMgDZcKtsoJZ7+G2nnzcIXMsirsp0ttBZEcSCZi0AYIruXZMsaiWqGJapQb7PR1UcEQO3vHlcmBY4sqgYaqCcVJkXwE/E1xvUEKU9breI4xKfXYZDsLlSFdpacqQWumSCifpydksa6mmtU1SY7AZb8VJTXQTevqvzLjN3cRGhHikiWpRXkDwQldXSE8u4kP/uw6ugf7uedL/83+XXv47C3fRTmp7W8ahL08Zk3lKl/KCFQShJcympVz/Z8jINRyFdvDDZVK4XLBG+eblz9AAsByLve+8zp23L8KS1XoqOlj9o1L0eqECY6PYetEezT2/ngjub8OEBNehUYWX0thJT1CMRVd9dE1naJQ6yt6FFIuo+k0WDYLFk1iySkzUNw67rt5I+l9YZSijhHS2ZbQyVz8ep465Sx2R6spCkEmVaHB2cvb6x5nstqO8uP9DP36AAXFpu7KGcTPbSVjFdDdPFPjPie0huXCsacvw7bOYRTLYkpNlOZkiEbDQtlp8OOLHsHts6TIkN6c5J3XfBKrRcgCv3DxdwJbsqSgd6g18f95sA6XE8iyieD+g6v7+KZKuDaJ3lgDpiirB7ES0tN+dz+P/eouHvz+L0k4Bp6n0zjjCBa96gyUZBK3VD2QplyeJzUZxA5eCh8JHwvpDvkMQahyKT7o9cg0ItDgDNoTQryoZJM1Js/tiRZIqW8SJCV/20NBpIHtkTBdiThF1+OowWG6ImFW1jey3LQwahOEBOWzkGfqhnW0/PQGpg/n8SXKcWwWjH2LBJixYPhMP3MJb/nRZ/HTeX7/89vpHxrgTd++GlUwMURSUgI9Hi7DXLmOf3wEKgnCPz7mlU98vgj0pvn9T27n/MvfhpYMy92hfP4/4z2CDTi8rYOfnPkhjFEbTVc5WD/E7JtPw48JDmLwBsPVCHep7P3pBopPDRMe0qXxj2aY+GYR1xwkLJgDkQCXEAq7zF7YwKyj64jW2/TshXt+sotcRx1+0SRvaRxom0r/GUs5cPwJbExMwpaiNBDy88xQt3NZ/f3E8nm6PrOGxBqNlJql4X0ziLy+hXQowEAoTp6pkSILWhLEwibDOZctB4cYSefl4tKSTbLzx5tI32dJQR6nVueNH30PLUuODGLynPnB8+25xyGfr7wJOL4IBiUDBUfoA4R0ok21aLUxCWYMOgaiae/Q9dAK7rj+P8nu6kEdUYg1TmLx2WcRa5qEo4nWgVjdhRJRUPaXDpplcaPSwu65LoomBKhUmQgEtNsJA1P6q6QZijJEadEVzAhpUy1+CiqkxBO4UqRKnrokcCVEoUSisj8WZUttNcOez4JUhpBgUjQ08lA4RmcoTMy1KWgaS7oPMPnWWzh65TrcXFAJkbchch2BgZDaIb7ERogPci2d4/79LZzyvjegaTqrH1nO/PNOltf13NoVr7yZU7mj549AJUGozJDDJwLiQby5l+vffjWnXnoBp1/xZgqWUIMbpxWWL1aYNz72oztZdc1N6AVXmtt0140w89bTUOIangTkjR/JYYuB3+yh685dJIcjqI6GHR7mDVfOZdLRfeihIVRFlKkLKIqN6kfZuc7n9z/K4g/W4XgGg2GN1MK57H7rZWxunkKfbuH5Kr7gnHsu9f4AS+sOcKp6J1ZK48BnnqJ+S4RRL0vs/EZqL5/NSCQ7VsIVbP+om2FGtcL0WouwZdFvm7T3Q+99wzx93VM0ZKsoODanve9ijr/obNl8mMjNP3TwJvTen3NUX1j46PCZDP/7Kwn0gQIjKTELnJgm/QzUqlhAj5QrtofS08/vvv7frL3pfpJqiJyisfisc2lduFAyQ2T5v3QZYxX6cpuhvMMWyo6KKpUnA0uKkrdF+fey4vDs6kCAKxWASjcwvSr5WZRMKaVVtadrDGoGj7RNZke+wHxfYUl/P39qmcQfo0m6BdXR83FUlWSxwHn3307LHb+hISXwK4pMDJyQitVYxYITl8gkZNtTG8j1DaPkHGlZEZ7ewHt+/XWU2fVlI9MJgT804Xyhls//fsQq7zxcI1BJEA7XkflXvC4fRh7ews2XXkNYNXjVty9n1gUnY1sTdoilcm4k7XPz+6+l656VaJ6CYqh01Q0z+7bToZwglMCEwbsVzKxC6qFu0j89gDmoYqvDnPa2MIvPy6Obw+ObPy9Cx9YI930/QqHPl/3l3vo4B899NQ+f/2ZGzAgFRewCXSzfo6jocjGabG/ngpZ9zPT+ijmqsP/Tq6nbGqaouxgnJGn4+HyGokICukSBELQ9sQR5HqbqEzd96sNQn43x5LVP4TykSfOoxpMWcvGH348vjI6e9xhPEJ4tdiS31uPgvX+h+SXzAeE6WRPFbK6GeFhYdAT4gtEsa397H6u+/9/k2l2cosqs449j6iknoYaipQU8APmVazBjP8Xuv1QFEMqGohpgyGShDFoYN8IKZmAJhDhGTZzo4RAoL4hrEocYv0HD5L7JrfwlHGZZKsNRA4Osqa3hzrp6BhWNhNjpF4uMGCaLO/cy+/vfYNHudtycIU/gJE3O+Mw7WHDJWRA1g8So6NG9Zjubb3+Y9t+vJj80yvFfvJQTrriIwgtNr3+hOVO51SAClQShMhMOmwhovs+umx/lviu+jeK6OHUR3v69f6f1nMXkzQDBHezkfMIDNr+85LN0Ld+MLvTuQyodyT7m/vwMlAZT7p6CdTjoH0vbZx8iBYvUih72f3sdiVETRRvm6LNinP4WHS08IP0bMp1T+e/Pb0cdno1fcDlYE2HwjRfx2KvOoTuewFZUdC9HjTZCUyjH5lyLULRhibaO1zZsIFLch2mrHPjCGsJPOpiqidEWpekbRzFQk8YtSUIqoqc9YYeqit2o51K13GPjt1dSl6rBqo/z7m9+Hr06jlN69Zi/Qem948nAC+3xXokVhIlJz6GJ5CETW1QTFKR9d6KpDrW1OnCVFIfrM/T0Nq5//YdIZMDOFWmZPZtFr7kAPxaVFSKhTuiKNoJY/MdW+6DKUEbIBN2NICkQegkiaZR/SoQISZcsG5GV3EnHstJD1CUVOqIRnmhq4N5kDcenRpiTzjBkWtyRrGbQDLF4cJDq6ipWF4pkQhaX/ul2IrfdTX1/DsUL1BSP+PBrOftT76IQDey5S2xYRHtOtxUGN+3lFx/7Gv12mq/87kay9foh0tyHzYOhciH/tAhUEoR/WugrH3xo+dbD3T/Ipp/ezxPfvgNFPIiFeExzTLYallx2Pvm44KgHfeRQV44bL/oUfZt2lxIEjc5oL7OuP5HQghpsLRAzCp7lJYCZTBIUzKKOvzrF5m+voGrIRDfStB3lcu6/1ROtUvnrbwdZfZeFlw3hxXw2L1vGzje8mTX1zXKRFru8Vm8bU2MZOrI1HPRbiToZzq3dzInmcgQfUfc8ok84PP0fj1M7EMM3FRq+vhD3SIu8LpwWgwe2SBHK5WtxbaERjc6vb8DcVKBYdHjj1VdyxCnHy4Xt0P1mZf4cslK/mHCUTC6kOmNU4BNqUIUyo3BT8sDd2c1tX/omux5+krBtEK2azJLzziEyqRFbE9oIAWBWulPKloJQWRTW4hOUsUvzTeaxpYSujDMYaz+UlSzLTpclcGNQpvDpj8R4sraaR+rrMByXCwcG6Nc0HrJCtCeSzOsdpNFz2RcOsTMcpjo7yrKvf5bmXb0YOcHqUKid3cq77vkWdnMMV6oyHZo8SZCv0PzqSnHnT3/Fca95FY3HzpEeEZWjEoFyBCoJQmUu/FMjMPbo8lxWfudOHvnGTSRSvtSeH00a6I6Lp8Op73sTp77nIvz6qJSENdpT3HjhxxnY2S64CVKcZiSRZvKV84mfP4WcaY8DG0sPYvlDyh/4GI5GYo3Kyu//mcSAiZpxSE7Zx+ve9GpuveEv+H3TUBWfLU1hOj/2KR6ftYC0bsjkIOaPcLS1nggZnigspUiE1vwOLmzdwyxlLQXHANWkKaNz8PYNpH7XSXwkRGaZzsz3H8NwTU4K+wQ0xdID2fcxXR3ziRw7/mMliWyYhWeexLL3XYaiC3pc5XipIiDdEvGl/0CoIYnZVAPCJEpEuX+Y+77xfZ6+91GsHhhVNM54y8XUzGjD1gxZQRBjIQCFIkkQwFZRGRBHGaxY1k8IwI0BG2AiK0BUs0RVoqBrmIIeKasSARI3Zeqsb2ziT5bJQDTCRb39JHyfR6wQ+2uqaRsZZfbgMLvq6lllGBJrc/Sq5cz80X/RlAbf1ikYcNwHX8eyL7yHnPXCM8fMeuTtAmoy/FKFuHKeV0gEKgnCK2QgX663MVYutz3uuuxaDv5uNbLUHimiXnoeqS3bUNbvQnMtmk9dzGu/cAWxWc2oPWl+9tqr6S8lCJ7iotYZKAsjTP78ItKJoqw2lKvBgq9edoYUWYIsBzsQ2uay92cbUDbkMNMGVlgjn8mjOCp+qMiqt7+DTWe9mu3V1XKvL/DtM53VzIr20pM1Wa+9Wj78zwyt55TEFmr8A+ScEO3pGqZU56gbGKL3rl2k7ujAsTwaL5lN1XmTyYdsiuICSuA0wZuPZE0Gvvg03o4MsYYm3nvtZ/ASlnRgrBwvZQTKbYlxW+Xw1Aa0mligsZRK8+SNt/Ln635KrBDBNU2OPmcZjQsWyd35uBGSIDoIO/EAZFiWZi6DJAULolzFkomCplPAp6gq2AKAqBs05AvE7KJUWLR9ha2T6vlzQx1dqsYxmQzn7N7PvdOns8rzmK3A0n0H2Fxbx33VNfSI6+rv4cTvfo263b0o6aLEHtjVFv/2u29Qf+QMmUw/c/aMYSFK1YLyd3AsmXkpQ10518s6ApUE4WU9fC/vix/rmIvKaqrAzW/8d1KP7wSliBIbpPPaLzJrgUP2d78hd2cP1qhBztQ5+yOXcuyyU/nFh75C99odGIKjLhZ8Q8EOOTR990j0IxMUddFmCOSFBf6gvM6Wqxbiwa66CuE+lZ3/tQp9eQEjreMVPbnDL1QrPPiVb7G+dTKjpV282MtfELoZT4myNrWQg9osTMXlksSDHG1tRfdSeKrBI0OnMiu8jzarAzPnMbq+n4F79lDsytK8aBrhpQ24szWUiIaDh1XUSa/oYfC6HeBqvO0TVzL15MVSNngMHffyHu7D4uqfid8IdIsCzQ21Pio1JmQ1wXZY9cs7eeAzN5AoahRUnwVnLKXlmBNRrGerUQatohLr4ZmVg5IKYtow6KxOst8ypCbDgoFhagpFdN+jYFnsT8S5r62ZgqqxsH+Q47v72RKKclcsylFFm4WpFNtiEe6qbqTfMpmeHmb+ww9yzE03omQDYGLRhMVvPpul3/sgilmiaz5P5J8VjxKQciyZPixGrXIR/6wIVBKEf1bkK587HgGxYh9MceObPkV+3QE8bJRYmqe+fj3NR2ZZYuzFXbOHLTeuRNvmEjYTRBIxvME8biovcQVypyZYAYZL//FFTr7mNQzX5sf6/BMR6LKqMJYwKOiuSnhQpf3mLYz+oYvIoI4fD5Fd2MK9V32WzYmaAJiIR5Wb5sLkb+h2WlmRPo6clWQSA1xS9xit7hZ838VTNfa4R9E7lGNOg0O9vRPDMQhlNLxRh+GRYfKGTXhaAs0SOvtQ3R9i+5eXY+30mbvsFF7z7kso6mXL3spk+XtGQCaqQotAA9dUiU9vgUQI7CKd96/ih5d/liYnzKidZ+aS45m/7HTckHlI22cinkY8VB3HQROCQyXeiGsYFKNRcppKrlDAKBRJCpVF22HEMmif1MCGhlr0YpHpwyniqSzD0QT3KCqLnTxJTWevYfKIadIZjpMoZDlp3ZM0/eiHzBl08ETxQDAXJif46J3fwVlQH+SVz4MpCL4Tr0Tg6t9ztvxrnbuSIPxrjfdhebdysd41wA0XfwJvRy+erCCM8uR138OerXFCaw8z89swOhz2/GELQ6sOonU4RHMhdE/Ht30JFpV/PQYAACAASURBVPPwUA2VdLLAgitPJHxsLV25XsxpkbF2g+wLlzjoE22jNV8l0aGz/lMPU7XfYsQ06Fl2LA9f+gH2ReM4rkdU95nsdXNy9E9szbaxzjtVqhIco23h3Op11PntUltHcOjSSg1Pj0wmrPscEdmN5acChT1fQRW0TPEw110JYo8WLPKP9tHzvS2YiSTvvfbThJvqXr4OjIflLHv+iyovpqItJQyLwg1JjEk1cle+8zcP8Yurv0pdXiPverQceSTzzjmLXCKKqCWYEkMwDog9tOQT1BYEzbJQqjEINqHuegjj8MFwiIHqJKPJBFnXI5nOkLdd2jWTbShUmyZVCuz1YXs0SodpSZnlE7etpvG225mzox01HShJFgyF+W8/k/O++SGKkUAN8floCYHXyVjd42U4apVL/ntHoJIg/L0jXDn/C0ZAJAjepm7+8+KPobWPglZEiw2z6vPfYs+sVo5oGeZkcxVhP4XlaIQ6PAb/2sGuP28m35dFz2pENAtd6OmjSGGhjqpBRlsdTnjTmSRPnC4f0AjNfNEz9l1M8qAI06YAhS4ObcBl80f/QtO+OPs9ha53vJUV555HfywmwWmWn2e2v5Ojk7tYPTyJbfpJ6PYol1Sv5AhtGxF/sCSzK6R1PQ548xjJR2iOpKhhJ57vTlCoCz5UJAxV7QaPfPYeJh1Icubll3DcuWdJoZ6Kl94LTp2X7AUBVbQk21mix7oJk5ioJqg6vQ8/xY/e9UmStk46UyC2+GgWvPMSekwDy3VlAupJKqEqBbeEGZjhuYQdm4jjEXFsDIFDkAmqoN16FMIhhic10BeyGMpkiafzDBkmyzWd7aEwTfX1HNnbw19Q6IglsH2fplyOKTs2M+nnP2Be1zDaqGifCZVIhUxzmE/e9QPseXWoqqheHApQfC56bLma9pIFsnKiV1QEKgnCK2o4X543I/ABzvqD/OCNH8Xoykj0oBJNsfbDn2DPKUvxI6MsS2xnlrYFVbQf8FCEglzage4C7C1Q7Ejj5wKBGi1s4E0zsOY3kKupYdRuISO46argodtYSpFarR1DC84VsBsUjFHY+tG/UL/LYgew+yP/j83HHcdwWKC7FQw7zWJjG21Jlyd7k+w35xMq9nF1wwPUcRDVL4z1s0XfQNj1jtBGism0KCtA/L5Ea5S6/r6P5Rikbz/A4K17mDZlJhd94WqUcLhEkfPHDAVfniN7eF/1s/U5JyZlAfDQCWmEp9ShxqNsvfcR7rryq0QdnX5fYeSYo7E/8WFpzTzq+wwUbITVlqW7uEVo8lza8hlm54q0ptPEhZyymIcoUv2wPxHFdj1yhsl2TWFVoop14QjZUJhQIU+959JnhgO556JD4+AgbQ/9iWP+dA+x/jxKTkGRgh8unqFz+nXvY/G7z5c4hAqu9fCeey+Xq6skCC+XkXoFX2c5QfjeGz+CJRMEHwyPp169lPx7382umhj1Wj/nxx6nRulD90WxNhBAEjtwzdNRZNk+UBeQuznVxdU8HMF593VcJYTjqah4GKrwOwg8DxxJWxP7PtALCjs/9iSJTR67dYVtV3+c3cccJwVqROIR8lIca24kFKtjTW+YtNbEZHWId1b/lqg/NOaWNxENLmoVDjFsL0KIXnTVlpUEuY/0Feo7wqy77iGUHS5v/vRVzDjuGBzJi39hetoreEr8Q27thWSl5GxSfBwd4gK8WJtg731/5aarvkw8pzFku9Qft4RpF7+OYnWCohLMR11gC3J5Iq5N2HPRBINGSD4rGhlDpzdksSca42A8ym5Vo9P1yBsGvmEwKstKmvSBkBRKX6VlsI+Fm9bR8uhDmE+to9ax8AqiElZCECiQPH0+77zh89hNUSlNHmAPxu/w+RgKLxyHf8hwVD7kMIxAJUE4DAflX+2SxhKEiz6C1Z2RD2XVUnmqKYTyxS+yacZsVDdDs36AM6p2UO+1o3kFUHSpQWD7Orrio5NHk53d8uJaWmglDV3wD0oOThTlA9TDEN1hFL8oF2zNgYHv72Tonn30qDF2fuwj7Dv2JAZ0wZEXveYMC7RtxOumsrFHGAKFWRjt5TzzbkJkKLghUb7AYkh+1rhOoobrWWiqSGyEOk3w6FaKPvYtPey8bT2LjjyBC6++HN2yKtiDw+wLIHEJqk+oJo5ZX8eu3z3IjZ/+KtVZFccNEZ7RxszL3kZPfQ1pXcdRVEKqRkQIerkubiaLVnQkJqBomvQaOvujETbFIvRGoqQ1XYJgRQNKJI9hUT3IZGnp76d531aGH3qIhs4+Jo0WsNJ5yXIp6yY4KhgtVbzvzm8SOmIStnGo86lwR6UojKAUbKssxT02AyuJ6GE21w63y6kkCIfbiPwLXo/Y+bsbu4IWQ2dKPvsEZbE3WqT/Ex/n6ZOWUhAocyXPPGMnR0XbaaQD08+T80KknRi2ksTxI9Jdz/WFSJJ4vSof1hlbCNNo+Epp0S5mMN0UVWqOhnCOsJYJCGquh/lwjnXfepR0vobuj36IDUuOIx2NyXaAYLFPVbuIV09ia08exSuytKaTk7SHsPwcaRroTRs0JPKEvJEg+SiN5zhrIkgOdE/j/7N3HmBWVVcbfk+5ZcqdGWYGhqGDFAXsvUYssUXUWGLvJhp7T9TErlFji+U3WFCxAyqKHVCjYgEU6b1M7+X2e0/7n73PvTNDUUAEBrwnTxSHU/ZZe89Z317rW99ylkT58e9TKLSKuPCWG8gfMsBtMbyW9ta/ZFlk+OnrY7X1tJIAlCIyleMlt6SI78eOZ+JDT5PTrGGaKurB+6P/6SRmdS0WVBcC8SS5holXtnvWiScNYrZDSFNp1XTC2X5qfQJMKHhNm4Bl4g+G8Aeb8FRW4l1RhjV7Ht1ryiiJm+hxsA0VxWmvbBHZhUSehxP+dQXbnzqCpFvp2NYR0mc4JBbX8d74CYw463hy+pXgtDUxS0cYMpGq9Vklv9VzMgDhtzrznei9JUlxUQOjTr4ee0m9u8NWQM9xmHvCUVSddhrVeV1kgx2cJL2cxeyeV05XpQavEyNq5xKmN/WxIrTsIqKmQSTpEDEhaDo0JWwMy5T9GVTFpHeBl57ZcXop1RRRSbbTLFMPYsdfUpHDB1e+BnXFVJ16Aj+OPJ5gIE+00ZHkxnw1Qk6ggLLmKL5kAyOLV7CjdzqaFSGslFIWyiOOznZ5TeQoYrcn2ju7IWbxT5HMEHJLAcNLy7M/0PzBCrbfbR9OuOpiYrJvRMc8uCvnmxbb+akpW7Mxk3tmR9e3ar+GjFPYmOUf9zoUlBYx/c23+OTB51FbFOp9fpqPPpKmM08nnpNNaTyJLxyVDb1aTJsmTSXo8WL6XTKtN5YgO9qMv76enIZGrAWLMGf8QNfWBkoicUo82SRiBqalosp+zR1HLDo1OiQCGn+44UJ2+Osx2F63nbVQVdZNUBMOtd/O56W//RvV7+HPr9+PVlqALSJYqfRDRn5rY1bBb+PaDED4bcxz537LlA7CC6f8jegPK1IfMBtHh8UDu+G75nK+G7aLdK9WSr8g22lhiK+CHfR5FKgNeIRGnaNi4iXkFGAa+WjeAhIKxIwQ2WpUVi741ShZakiqNbpiCOlMrbszy47pLHrsW+Kf29Tuvxefn3E+zV0KZR7ZdbqOrG+P2g6BWBkn5c9nSPYcVDuO42gE9b58Ed6PPDVMd7WCfFWAD0M6eaHCF7eziIUVsivC+G56jXBrhD/f+Q+67Tx0LU2BpZQTitquyCfhQ7tm9AbOa8ddYwYk/Jzxfgp0uaWBYPtVcgoDfPD4k8x8dRK+hE59Xh7Gicfy3YmnYAgegYg6pOdKaHTYCoFgkO5VVQRmzia38ke61tUSnb2EIgKQcCNctiEe4Eovt5dPuqN1tQs0zDyNETeezS5/GYmR5c6rACNOa5yVX/zIorFfsOTDbyBhkn/Q9pwx7h6ULA8yAPHz1Y8buKYyp2/LFsgAhG15dreSd5MfvWCCl06+ieCXi1K7aFfNKJxr0HTk71h60SU05wYkQREzjqYJaVoNjxOmfyBET62GrlSSSxMoaQKX3PendA8s2VtBMA9EtldsyQSfPL3XdlsmKVh2DtaUVmbf9xnZuwzl40tuoKlrKUqqb4IlyiLF1apGbqKKw4pWsqv2HV4nKn9uKj4iSiGNyW4ErW40G7lEbB/NiRAJM4rPbmV4PEl01JuU/q+M0r2GcfbfrsTyi4r69j1dW2MgyyHY1EjSsSjqVpJq/rfKdnIts7x2IOCWubX3o9hKlkfnHKaqkLQNsnOzGHvHI5R/OQcnaVOdo8JfzqV5r4OoEjwUvx/T75dlqwk0VMExECWzCRPVjBKIx8meOQPGvsZOlbUoCS8YCorlahu0tQZPgVMpH941l9MfvJbSA3bGwsKJJoiVNbLofzP4esIkwmV1kEjKfiOGX+XAK/7E7jefipMR3uqca6kTjyoDEDrx5PyWhqaYNpOueYJ5L36CnuxAMvTZVHXPwzrvTOYdcjiGruAjjGK04NF1gmoxqpWQQkTZSpAir0GWniDfmyCLKD5E/bkgIVoyXJ8Wj7HQSao+Yo6PiO0nYnsxTJ2WpEbRshBV9z3HXlaEqXc/wtKibrLGXYggiV8YS3TyUxVJWtzOX8sf/B+SS6QD4UshRj4xO4ChBrA0PyYmSStGwAHv1Cpq7/2EQNDktDuvocdOQ9wukak9ohinqKFvrKxi6uffMGT3Hek7aBCKpqWa/6y6MlbJondo6yvaSXcEHSK5kd6FuoJRmSjCun7HfpahINaEWFKtYZ6/5V9EF1dhodLcPRfveefBbnsRsRSyI1HUpImi6oQdh2iWn0hegGqvRlJTyY1HKaqpxDdzFsrX35K7aAXFkRi5Qqcj6cOQ6lupKJKikFWcT8nOA4nYSRLRKOHmFkK1zXgTFjKYgEmzoxNIaIQCKjeOewxlnz5rVVVMt0Nflx0yf//btEAGIPw2573zvbVtUzd+GmMuv5fsoNilu3FQ4cSSORr1fQtpvf4a6gcMIqGbZClh/JpFK4XELS+WInZnCQJWE7YRxEMMn2bj0xQ8ThxL7OZEPl/GDkQE10vU0ggLHQLLS1zJQtWysT3ZFIajDPphBiUP3cHih/7Lkl59iYpOjqnwvnsfNxrhtVo5Iv8H+ui15Dot8lkKZjoZgYlgqHtJKrkEyaZ7ZZgVD0+kywyTQK9izvvXTRhC+9/NdkiCm9MS5Nv/fcbkSZ9w1vl/ZcAuw0i2dX7sWKGRaj+cGo3IP8ueE5aNatrYsTiRaIRYNEYsIspHDQxLxdY1Crp3JaewAI/Hm2Gy/8xvw7pLAN1SyNDCZbx056MotTEc1WR+UQ6lf74IbZfd8YpIVzKJY5hEbZtWXacpJ4vaQA4Rn5ekqqLZDvmJBP3rqsiev5jmb75GrSrD05Akx06Q7ZiyfFKocEqQK349RBmk4mCoFknVS0j3kOySix3wMbhHbyIffkW3PQfx11ceJtZF5BbWhDsZgND5PoWdaUQZgNCZZuM3PBax2fVXxrj36AvxLwmuurvVLMx8jfKdB2BfdhUVJT2JCZ17oYxoJWVzJOGuc5QEvbyNGFYQzeMjbrkVDAISiHhC0lYxhShTmiwovKmIBkiHr5EwReVDFo6t0a+xgWH33crCE0+ndqfdaMrOlWp10j0rqswtC1VG1THJdoIMy1rJAF8tXbSg1FgQNQ9Jx0fUFpyIHKqjgtiYww4ffU3uy+MoMGwOPO+P7P/HP8jws1DY86BSu6KMsf95DNsxOfvaK8np3TdFUlxT1kf2GZI4SgjmQKIljNEaJtrQwoIf5zDv62lEokFMy8Q0DUwtQmH3Aex92CH03WUogZ7d8XjcEs7MsXYL/BRAcNeBq74oBa8Uhe/f/oRPn3wNHR+a7jB/pwEEbriauT36YUsQYKFYJl5VRTEs4qZFJGkgsgkevw90FVMVQNfBH4lQ3NxCcU09nsqF5AQbcRpbsMMixWaRSCTw5eag5WZhB7xYuV0Ide9LQ0kv4opDt0kTKfz4K46+/FT2vfxUkgKDSnJiJmqUWevrb4EMQFh/W2XO3IQWEA7SH3eYfNdoZj3ydiqkmg6IgyM8YcBgxd47wfkXsazfQPlhdffxqa+1I5QNbIq1anqoiynRKshSGnGsOAnBblR1YqZD1BaMby8Jq9WtPSeHpJNHk92XRmUwYbWEAkMlf9JkahfOpOs557OooKv79nL3JmSbhcRtnFwlStRWCONDR6FAdyQZMo6fuKMRsRwSqHgclV2XryTv4QfZqWw5Ro6Psx66nfySYvnh1gyLWZO/4quXxqN3zeX4Sy+geOAAl+S2+iG5FCqKEHmKJHAao5jNEaItYRbO/JF53/9AsK4Jj1eX6pH+ogDddxzEjr8fQWm/PvhysuUryDRDujdFqrHPuiomNuESSN26MzmxVVM06XdPExVTTcNT6pgKalOU9x55jmXf/IigqhgBm6YDd6PususI5RfINJVmm+QZBr3jSbo1B/HZCk2xBKEuAZZ2LaBJlOYKgmNq2m3RMlryZgTOtVNlsG5ySKxdAXhtAVhFhEyF3GScXnPmMPzO23H8WVz4/L/I2XdQivi76Wcv84RtywIZgLBtzedW/TZC1CX09WKePfNmtDqhTdChEEtIEys2ia5+qnuWUvqXi/lxh8GEvR7pYNNscRGJ0InhWCF0O0qe1yJLi5LjNclSTRTHIG4kpSZC0BANkwoIm1mELR9JO4ukki0rIXRHITscR33zNfwjDqWqTz8sy8RJtQYWDHXRuTFbTVBszUO1I0TsAK1WMaqWR0z1yciGSB+L3L+StDji1VF43vmYLo7CbsccxEHnnyFbPXtNk2kffsTkV8dil+Rz/d2CcZ6dKo7sOKUp5ylUHQ2VSFkdsfoWGXlIhMOMfXoM0aagLAfVPAotniQHnXgsBxxzOL6CAIbbmycV/eh8PmNtrYe37IJee9RmVciWBjRCz0ChZVEZn/z3JaoXlpM0EwS7ZMMxh1B77oWEs31SJVMRehtCKjwakZEr4f5NVcHK8sp/ixRWuv2TWD9pXc12rCi0PkS5otuDQcAFyxa1DTBo4QK4+x52rmymuWcOt37wHPEe2T/b1XHL2jjz9M5sgQxA6Myzs02NrYPs6yrUuQ4v6UBW0OK1Gx6k6pUv3d3SahtoRzOJ5/gpz/ORffxhqAf/nrqu3Qj6fG5DJrGzEnr3ipBedlBtoWAnlAkS6KJ6wRFF4sgWy0k8mEKCWcghq6J9r8vyF7hE7NwEQOmxcjk14ue9+2AIcJBysJpo6yxCxrpOwKqg0J8gRzcwYiFEy6iYoxOyA4TsAnTDR8msH8m/7z6GJBSSPg/n/+tGumzXF91I8Okbb/LV+x8SKCnivIdvx+8J4CSEZ1jTFWm2gt0SJVLZAFFDKFLTXFvHB2+9Q0tlA5pXIe61Gbzv7hx80tEU9euNqbsOR9xvzT3x5t+xp1sQp6MV7cBA9D9wIxtbFix0TCysarGftpaQWQYtZlD+5UwmjHoJsyWGpSnUBlS0ay8jsv8BNPlFnw036mWJdSjXXJpX4EYLXL2MVHRMAgS33qaNfSICCSl+jgwsuGQdBjTX43/pFXpMnEwgptLvkqM47p+XEMvepj4kmZfZjBbIAITNaOzf9qN+CiCs+snVLVArQjxx5KUkypvQXGFB90h/IcWH1WcT8idZMWAg3U88CXOHobR0KaA1yydla2U5mPSxbm8GN5TukhTTNxKFjsLjy12abJ7U4TEyXwvepIFhGjheL6amu7tvkXs2YngRkQgTU80FO0GuXUdXbzN+3RBSkNSGhTpDMXkNJn0fe4zieSuxQyH67bczJ958uezC9/377zHp9XEkVPjrUw/QffddCC6txCt4jm2H66R0W8FqChNZUYdX5Fdsm3gowrgXxhCpb8USRIRCLwefNpJdjzwMx6e57afl4Rrkp+r7N+faFB+d+qoaunXthqOneB1to1RIxGP4s7OxU9oTm3Ns7bbquODWfwQimpOsamLllzN5f8w47FgSJdtPVb8AhX+/hap+AwjqempdOqkUUrq6xI2EpbkuLilWgIHU2lRVRJmt/Fnql0JW1Vg2heEQJe+/jfLaW/RqSKJ7sznv40fI3lEAxHbQtf5vkjkzYwG3akuJxWLOls89ZqZjW7bAmsHaVR1Xx3f3J2D2mI+ZeNP/4QubiHK9tn1cuk2dyMMLLRpPnLBPp3G7gXD0McT33YNETg4JjybZ4SI/K3kG6QpHAR5ssUuzU2WLrlKhe1vXWblhXZd8JqMJqR2tJKQJLToZnTDJdZrpptfTqvWmMekj4XgwRbhYAg8bXVHpFg7RdcoUdnrsGSzTJp6rcMUD/ySwXW/mTP6Ktx57Co9P46RbrmTwBcdDWbNMG6gdtoyuQp6C3RghtrwWiT9wMJNJJr7xJvWLV8odZiw7yfFXXcig3+0nw9Tu3jPV9yFFnXDp72kRni2z4lRVpWbhcmZ8+x3HnnYSpuZ2TpQzYNssnD2XITvvuFb+xU+voy3zLqs/Vb5F0iQ2v4pp703m+0+n4rV01Kwoc3fdiZ7XX095aQ83LSbXlkgpCKwnhLvcNtBtKQW5CmW/UTcCJNay+HuxFlIzK6IW3nic0ikfo7/wEr2qQyQND/3335lTxt5JLCC6PXYO22RGsfVZIAMQtr4520ZG7EoTia/j6q1pZfl+3OCjKx9j7rgp+IVaccqnpa9xvUkqHqAr2D4IKwZq90L03YYT220PWvoPJNilkGggIAmNrsRsym3KSgQXFMiPckozwCUFpoGCjaJo8qMsf5bOB8vNuBsoVjAI6EnRRJqoqWHKJk3uB1xEP7afOZOcu+9hQIuJ5TUYfsJhHHbOKdRVVTHuzgcJhavZ9ewTOeLmayWLPT67HCeSXEUsShASPUGDliWVeOIp0pqiMHPqVL76+FM86JBvcvBFZ7HToQdJfX/36NicJ2UrAW7S8YS2FMZmTjMoDh5b472X3mBAt1IGHXGAW6ipKOimwztjXuPA444irzBfyADJ0aameutY+6K/QkuCxtnLmPjsqzSX18i1F8wxMM88heTpZxL2Z8l1JbizaWDgzpdIkbkyXnKtihYhHWt6UiAiTczNi8TInjKFrCeeo7sA0wmbhF/lgFvO4cDLTibmycgmbh2LpnOOMgMQOue8ZEblOGQ1GDz/1zuo/PgHsg2R/++YA+hgIik65/ZSULw6Rp6fehLE/F7M3ADd9tyVQJ9u+Pr0I96lG8GsLKJeLzFNcBA02dQpIWvKRXMnsD2iS2Q6HO/CAHdX184JkKmL1BAELLDkrk6M0RUzEqBnSG0VyjPP0f+Lb/EaDuEChasevIvs/Dyevet+QovK8O3Vj8uffRiK8rFao8TmV6KL+0gOhHt4LIXQ4iqUlniqrBESkTCv/Pc5jFAEAU8GHL4XJ13xFwyPACjtgEpNAwLhJ8RfCDJcGzAQb6BK3CQ4Fx1lfVdlP/z6y1F8eCLVtTx2x51ccPWVdB80UOpbei14fdRohu22C0P32g2jAzKQUYbU2Df1+Db8jVfNg3kdleiyGloWrGT86DFYrSaWYlBbms/AG65k0V57Y2iamwpLR61kukvEttxDNhxLgTwJCyVCFevOvagk1EL2F18SffIFeoQs1FhSAuF4cRaX/+8psnsVS55D5shY4JdaIAMQfqnlMtf9YguIz5sat7BiSfzZWSR8qe9+6mOZ3s/KVrUrmxl36+Msn/gt/mTKya0eMu3oLeT22EHVbES1WMJxiPg0EoKzoHqwCgpxugbQCwO0BnKwuxQS82Rjde2Bp28/rMJCtC4FKTZ5KsKRiggI3QP5qNSur2MoWEYN0jrGtkOXWJSSsWPxjp9ADxERyPIw8oY/M2iPnZn31XdMfOpZPMUBLn7xYbJ26C/Dx4mKBqyKJtQ0aS3l6D0tSVoXV+IVnaylo7CZ+slkZn09Q1Rb4u2ezZl330xuaTcZaRHXC6EkK5aQNrYMEydVIqeIPLZpkHRMoo5BUlMo6dkDr8/X1hSqYzxhk8UWZLTA5Mv3JrJk2nTOvflmbL9fRl0mv/0O9WVLOf3KK0l0KPlzXWZnreRfjSjjgCdq0rKwjAVffMdX701BNRXMbIXqvoWU3PFPgv0GEJcaHO61gljbDtNSAEEAglT6QQA7cabo/ti9phbjk49ofWsCA+oNHCHP7EAkW2HkrX9l0CVHyIhU5shYYGMskAEIG2O9zLW/yALiI6dHDJ745/0cvs/vGLzXjuh5OeDXQXPV4WRKQKRPRdlis8H4Gx9h8XtfoYUNmY8XC1dyA1LqhquURLpBabnjF1EH0fnOUW23F0OWilHgoyHHQ8/Df4evf38SOYXEi3pSkxeg2Z9FwuuRPIP0zk7+O+WYXJKfSIso8sPdHllwIwriuT7DYvu5Mwn/6xG2a2jF1ByGHLwXI6/+M8lgiMdvuZ2WijKOv/cadjvnVByPimJCbHEVNEVRpHiTy4GQm+blTcRqmqWWgqjMaGxq4KXHRrnKCzk6e55wMPuedbIkPSpJk2hjK9H6FhTRJtgSkk0KtmlSX1vPwsXzmbNgDk3JCCNOHMlehx9MbmEXN6qwlqqJNB76RRO9jos0RcFoamb0jTex68hj2efoo+SO99spk/nh/be49J77Sfqy3drMNmjQ+WIHKRzXlppKQxjdUbHqg8SXVjN5/DusnL0My4yT6JqDdeh++P96KU3Z2Vip0lnZiCwVp+rICROltSIfpls2OfEEWeUrWfHIk/RYtpK85jCKmSUtLUpmC/YdzIVj7iXRw/1Z5shYYGMskAEIG2O9zLXrbYF06Vr6AuEEQ18v5dkLb6XAVMkf1AtP7y6UDO1H8YBe+IrzyekSwBfIBk3DZ2ksenUyHzzwAp6wKF10najrutMOpH04Eh4IZy5U6/wiCWBjKFFiBT58B/2OpmP/SKR3H2Jej9y5CQfZ3g0hTUx0QebhiQAAIABJREFUP/1pQpj75xTTPJUzb081uIDEa1v4yivpc9cNFK5slTCleFgPjrvhWnILujDrg8lMfOF5huy3CyeOug9vQZ6bGjEgNrcMJWq46o4psCH+HJ9bgRNOSj0Fj6ry9eefMX3SVEmCjGUpnHPndXQb2p9ERTNWYwhVNAIS9fWOTUNtLbO+n0H1ipWEmoKYvgS7H/N79jjmCHK6F+JIbee1b8tX2xOv91yv74ni/p6kw9fPjOODSRO58oE76TKgDzM+/x9TnnuaSx94AH/30jauiFuF0bEDZwo7dJo0e3odppIEiipTS6FF5bQsq+Ktp8dghwXDVCXuh+SdN6Dtv4+UW14FEKTKIMXPxPSIKgVP0iSntp7Ie++T9/nHaBVBfEkvjlAKlShZIZavc9oj19Pj5H3lvK7+O7e+85I5L2OBtu90poohsxi2lAV8SWj+fhnPnn0zZk2rjBho2ZCVCwYWZtKLabkOWjh7sRNWw4Ys95PIto3g6O4qZXNkUa6gm3i8CaksFzI1wl18NJX2InDooWi77kaytDsRrx9TVDmkXj6tb5BiMrSVnwknmyY3yl226ta7S58qfKuQahBRClEDj0OPpib8Dz5O9rfTyRPKed3zOfe268jq0VV86XnpH3dTXrGSS199guK9hssPuXTEMYvErJU4SbcPhQQ/4t5xg9jscnQrdZ5hMe65F6XmgepxMLv6+fP9t+I0RLBCCUQ/BuFD62tr+eHrb1k8Zz6q5mD4TPrtuSOHn3YyRX16y24RbrZ79XzN5lsNwoY+R6Xu6zm89OhjDDpgD4675HxmTZvOO7c/yCm33cB2++2JITtorj250K5quPnG3fFJa5aNrjpO2SArmiQ2r4JF02byv3c/QYnbKFk6Nb1z6XfbrdRvN4CESAfIZmLuehfVHHoyib+1mcKqaqJffEP5+x/TJRonYHoxYwIEiohSihujaQy99A8cdcsFxHNE3xG3RC1TnbZl1sW28tRMBGFbmcmt6D1kCwSpSqDIvHrFlz8y+pK7oCVK7333ILxdKSvr6zHqW4mUV6InImh2TDZBUm1H5tgFs18SttxvKkJk2VSz0LO7oPYpwd+rK9ml3fF164GnV3cS+QXECwoIebwkdA3TSnXHk4L6KXVBWRqYRgwdQIDjpCIMq26208Hu9Lv0bmlCmzCBrNcnkGs4mHlezrzhUroPHyjbQwcXl/HQP27hwJOO5qh7b8DJchtAyae2xEnMq8CRtHZxOIgQdbIlQnxBFR4hv6RATVk5b48eA3HRdMlmwB47cMhJx6MZrmKjEY4y7auvmP3jTIiLHhQWBQNLOeb8P9Fz+4Eofv+qrPjU01z44cZQNpdWgniW1A1YWsusT/7Hx1M+5sKbriasWoy7/g4OuOhM9j9pJEYHRn9bgUYHYCcrNzvN+nerLjoeIiVmVjWRqGhk0utvUzZ3CY4BSb9CuHcJ2qC+5PYtRcvzueqhtkaiKUzTgkUkmyrxthjkxWy84QQe05J/375OFQmE1V16cvnL92P3zs8QEzvNWtj6B5IBCFv/HG5VbyBSC02LKwh4swh0LcL2Co0Cm8iMlYz+x7+prG2g16EHUXLoIZj5RcTDEZxIEMeISJlksemNRMSfXZeWlZftps41P7aejZaTTzQ/l6jXQ8zjIa5pJDSPBBLSAaZ2/2K3JpyNJcUa3f+JmnR5VkpdSGohdJAMSEfipZhNOiovUh22Tf9wEPXD92l59XV6xw304kJOuuwiegwfRFIRiQmNH8aO591PP+L2155FG9pXRiYkQLDBrG3BXFKXTizIcWgCIMgcdh2elEbAxxMmsvT7OaiWjulxOOKkYxi443CJXOprq5ky6X2WV61g2L77snzyt/TfcxdOvvovJANeNK+3jbuxtkWT3vuu6eI2zRJz9R1UrKoWwksqeePZZ/AU5zLizBMZe8O99DxoT8684UoMnxC8aK9gWGUHv0VjIGuzy+rWc9epaPccWlBBaHkVY599CTUi5BAddK9KBIOETyEpSjjketLxGgo5hoPfY2MkBLFUluq4BFZxyNCBgqFB3rBenPr438jbuR9JsVBSALMzwaZNs4Iyd93UFsgAhE1t4cz9V7GAcIaN0xcz6h8P0K9vPw4+4Uj67rYDiuhmVxlm4l0P8sPUr2kcvj2DL76URL/+BL0eDFUE8F1xI+meUyF48aF0pQvaFfkM20bT3C6FppBDbgMDKce+StWDq2/gchYULMEYF6SwFAlRPE+WAKYcVJpxnv5Oey2LwmAzXT/+gKax4yiMJwn06s6frruC7JJiWTYprjViCZ675RoGH30oR/3tWqlymD4EQVFUMFDRkvq2uwMUUYPw8jrs2iC642BGYrzwxCickIVtWVh+OPuyiwgUFbJ88SImvjOWeHaCc2++iiZH552r7uJ3Z5/K704/kaUrVlBS0h1fln+tAkSbMxydLvZICzYpLTHCC8qZ/uEnzJg9g0NO/SNfPPMm0QIvt4x6GCPfvw2EyxX0xijh5TUs+lakGj5GTbRzPwSRVuaHXBwrtZQV8f8Ovz1t0CN1mqE62KUBLhp9BwV7D8ZoAwdiyYnfi84TV8l8BrdOC2QAwtY5b1v3qC2omzCNCbc8jlPRgqcgQMn2ffCXdsGneJjx4af47ATNuQr+P50CRx1NpLQEVzrRVat3xXPcHKtUpGvbOLlfTxkEEMAgFThPd7oV57kRAFmOkGpc5KYZJKkrRRCTLaAdAS5cKeb0/dPiSoKPICoEchvr6Tn2GRJTvkELxhiyz57sd/5pFJR0wUpFIkT1RGtDE/dc/Wf++epouuy9+yriUAIgRJdUotZHU/th9/18tkpkYSVWa0w24qldUc6bL76KFlcR+KdwQA+OO+MU5s6aw7T/fUbI08DhN/yFvc46iwk3PcCCVz7miEvPY+cjf8f0adPo238AXYoKUiCrcywhOYexJOHZK4mUV/Pysy9QmF9EtDVMszfGTaMeQu3eZZvIpXtRCS+tgcogb7/4Go0rq1yS4ToKM9JKomkBL1fTSyV35z4cf9/l5O43SJJx24IL7QGGzjHJmVFstRbIAIStduq21oGLD6JKlqmwbMJUXrvu33jrEjIFYMtQvOg5IOPpWB6IZmu0duvCDuedTWT/vQgHAqmmSW7IVfZQSNcfyJxBqrRRbvpd557elslAgKhqSJ0vdO1VVcOwRAnkqmJIIt0ggMcqBXZplUXbJi+WoHTlcioefpAs4dxz4Q/nnMoehx1GUrxLh6++KOcrX7SEp194invffgW7ICvFe3R3eEoCQgtWSrXEjrX+fkslPGsFTtyU45s59Vu++/gznLiKmqUwfP/d6d6nJ++9NQ4nP8mhN17CnmedAkmLUadeRGhOA3+87lL67jaUjz/8kMFDhtBrQL8ONtnya0hGLpImkR/L8MYt3nljLLWLV+JYCi3+MNc9fh9ZfXuuve31lh/+Bo/AE0rSsqCc2sVlTBRgL6mgiNpOuRRSMYLUmm2L6rTxHl2pb/xe1D16cvFjt+Id0JWkCJZlggUbPBeZC9ZtgQxAWLeNMmf8ShaQ7ZIks9rNJ2fFHCom/8C4m/+DsUw0Zkpn9l3HL52lZOBrNOV4YXAf+hz9e/Q9d6e5qIiYrqdUDlN6AfLD2h4NcNMOKd5BGiikpGrbYEOa9ZaStJUf6dQOTUrcdpAjFuPLTiQora6h7v2PCH75JdnNtex5wAEcdNzvKehdKisjVt8Qiu6OP375Dd4h3dnpD4dge12Qkv6qC1Z769zl+KKuRp6bMVHwxGyis8pEngTFsflg3NtUzl2CnVQwdJNd99+DOYt/JGS1cuCVZzLisgshyw9VzTx29LmEW8Nc/K/byS8t4bXRL7LrPnsycPhQqVjYeQ636VR0ZhnepMPiH+cwefy7UuK6ydvCDU/cj79v75REwzq22p3npdYcSSpFJSpwRJtupTLIlx99zPxvf0QRAlip3wkXFHS83FX0EGA16VPR+xVy2EWnsOtJh2J28WG4mbTMkbHAJrFABiBsErNmbtrRAm3te1PNZ9r+TrR3NhUqJ8/kzX8+SXih28WwbTOUbvsrXKbq4PErlInSvp2H0POowwgM3YFE11LCfh8JzSWyCfDRBi7aNAxc4NDWyjmlebCaLpDUQ1jb4bEscuNxsqprCE77jpUT3qWoJcjg3j059KSR9Nl9GLYudAfcL/sqNDVFkaBo2cJFDBp5AFpRoC0yIc8Vte4Rk9Z5K/Al3HcXzkATcsuNEZILamS0IR4M8dxjT6FHLBRbxRRKkX4Fq4vKsBP345g7boScLAm86qfOYsypV2MFfFzx73vRvV7uvuHvHHfGaQzdZ89Uf4POs0bFOyfmVkFrnGQwwmujRmPGDeq0JgkQsvr22iZSDCn4iifhEJ5TTqS+kXHPvIjREhd1vfJISRq4pb2qKgGA4VMo6t+DvnsP5+hLz0Dp20VGDUT1QubIWGBTWiADEDaldTP3Xi8LKJaDNa+G5y+/m+CPK/EJLZn23EDbjlz6b11B8xnE/SaNhflw4MGUHH4Yeu/eJL1ekrqOKds9uykC96vrcg7aggjunqwNUKR5CmnOgKBDakKcRvzfSEB1DY1TppCc/DFF1TUM3m039jr2KHoMHwI+zxoV+m5tvogGpJrviFLMAh+5Q3rL9sYdCYESILQkaJm/Er+jpcgOopmRSri8DrWyRd6nbMli3n5pLH7DK21jqxam38G/c28uHfsoemmhW56YMPn0P88w44Fn8PcdwCX33IadiHLLpX/ltIuvYPiB+0rRqDa0tF4ztClO6jAbghy6pA6zLoRm2rz+4ks0ldXR4o9y45P34+1V0gEgpGmiq7aJ3hQj3FT3FL014mUNGLWtzPt6Ol++PwXdSDXWEpEsn4qVrVPQqzvDR+zFoBF7EhjaE700Dysln5xe2m3VNJksw6aart/0fTMA4Tc9/Zvn5VONEn+Wi6UK7kBtiE8ffpUFYybhBGPSsUsed1tpYvt4xe5Jy9KJO80k/T58g/rhDB+MuscBWAIsBPJQAjmYmgjnp7kKLm/BTUOkmAsda+iFszZNtGArenkF3jnzMWd9QWzOHIpzutBt0Pbs+odD6bPdIFShwNhOjWzb/aUjCO4PXBKl4VEkoUz1e9foXCkBQkOM4MIKvIKEKaoopN6+QnB5DXp9WLZunv75F3w76Qu8gpghrgkYMLwbf33mATxDUiWT4ufVzdw58mw8C5vY/ZwTGHHycQSry7jz6is4++qbGL7/vmuVVd48K8F9yho6C0JQqqKVcHk9Hlthxnff8t37k0kU+rjx/x7ALsxpUwXcFoR/ZIViLEl8bhVOJM5bY16ltbwWJ+mgOBq9jt+b4+++DLMkB9WjoeiiZfmaCCBNW8gUK2zO1fvbelYGIPy25nuLv+3a9fDcYYnmTN6YQ+WXs3nh2ntRylrx2253xLQHTlcatJG6VEtGC5RcH1EvNFkmSY+Jr6QHPXbZkS6De+HNK0LP74qSX4CTnSUbMYn4rNcySDY24U0kiTbW0Fq2gtDS5VTMmolqhLEdlWE7DeXQww9n8A5D8QRySYq+DhKw/NybtDtBucPL9ZK9cx9X1ni1Q6YjakNEl1SjpcvaRLvghEPDvOX4o+4eUbRArl6wEtXW0fwq9Vlhrn71EYoO3QNHS93XcWj9+kfuOPYsupPHH++6kf7Dh7Lyu+k8ffe9nH7bzQzZdbdVCJRbfEFIwKDgq4tKOWKvrVJfW8O4p54nlgs3PfUgdtfANkNSTNtb6BnYyxtJNrRSsWAJ77zyBr6ER2pwxAs9XPDUreQftVNqbjtGvzrDjGXG8FuxQAYg/FZmegu+Z8ecvMyxd9gMre5mxe7Ka0B8cQ2fPfsms97+TJb/ibBsx3bL6Q1VOlDtCMet2OgiYqBZxEReW3Rx9Iv0rk7S0VGzc1CyvG4jJsENsEyMeIR4LIjqGOToGn169qB/v14MHjqInoMHkVPcDcXnl82jZGXC6sQFd0+8xvbO7RPhNtDxdctHGyTKNNecBPGjZFkjZnmTFExK28cXtWgUxEVTtH62GDtqNNHqFkxRO685mMU6p//rKnodux90EbwG8T42nz/wJF/953kCud0496E7ySko4NMXXuWz18dz1kN30W/7wW2CUOusr9tMa0YAJ299jNalVXgthUQsztinR1MRrOXKh+4gb/t+Hcy+Os+jY7B9Mw34Fz1mtXEKEmowScvCCrRIgndeG0fj4koc08FUofjAoZz5/O1YXf1uCeNqxMW1z93WYotfZMDMRVvAAhmAsAWM/lt7ZHu22X3ztDv9uRCpAAr+mEPdF3N5456naF1UiR5Oun0YOvrj1M1d5n+q02K6i6M4UQjQKKJ1kYooN5RPF5F8PUk8P4vBe+9Mj3496VbcjeLuPcjpUYya7coRyxRCSmvh5+ds9QGJpIb7sTY0m9wBpTjd89baEUmxISHEkKpb3fdKaSmqTTFCIu2ARiwa4fWnnsNujWMlXKEoUcXQmhul/9F7cuGj90BhHko4wdNn/ZX4rGX0331Pjr7iYjBNXr77IRZ/M4O/PPswXXt2X6X5UadYi5qKrzlOk3hf0+118eH4N5k9bxYjLz+fHf8wAks2vWhfP6ksUQdg1tkrHFZ13rK3iA3RBVWorXGaq+t465kxWKKSxYFQDpz56N/pdcq+WNrqbMSfil5lAEKnWM/b0CAyAGEbmszO/Cqu+qHrwNOfefdPq5LN2ioV5R+EHC0ozXEqPpvFtGfeoXzafEnEE7l6UT7YdnT0Dz/x/Uw7bVsz0QrjHHzPNexywh9oXVGFP+aSCkUKI630t65898+rD7qDENK3eYN74RSu2X5XAgLLkWJIenMilUpxJJgxypuwKpplf4WG6hrGPvMSalzo8IvbClEcByXbJFkMI/9xMUPPOZno1B954Kyr0CIOx195IdsffADR8mr+c+2tkHS4bMxDZInumB0d7RZfNKJEVcUXNmmcv1JGj3RN4atPJjF72kwGHro3x1x5HklHdPBsn2+Xx7Bm5GaLv87PDGAVcqqsxlVQqoNEVtaSbWt8NP5tlsxcJFt/W4pDzvalnP3+Q3iKA9g/kZ5yf4PSsLv9vzqzHTJj23oskAEIW89c/WZHqgrVQlvBjCRZ/PE0pr/0Pi0zl0JDFMd2WyW5R7rNrusBJTmxzRm6hEeRitACGnYPhWvefQHy8gguLMeLqBtrTyGkP+Y/BQI6Apk06W5t+zdBUAwM6YPTxW3pm049pCdT1MCH5i7HG7HbAILXVggtqUJriMlOTsvnzOOjse9JQaV0lEG8nSVIG0Uq/Q/fiRMfv4u3r76NRe9NxfL4ufiJe8jtUsCsNz/h7efGsO8RIzj0svNkN8rOdgibuAChTFawiLLQ2dOn8/WUSXTZaTvOuv0GkqloTmcb+0aNR1VklKxpQZnUwKiuLOfN/76A1/TIWtdElsoBt5/LfhedQNy3UU/KXJyxwC+yQAYg/CKzZS7afBZwd+LpdIQnqaBFDcIra5g56Ws+e+1d7Kog/qiNbrjh2bQMUboEzNWlT0EI1cbJVygYMZiLnnsEszksd+vtjnfVN9vYHgWGTyWwQ1+cgKtoszqIUEIGQbFzTrQnYvxJR+6mfRFLXvD1J5OZNfV7iAuWe7uDtzQbpUilz4GDOOK6S3jgpIsJGB4OOvE4djvlD9iJBM9edzuhukZOuPxCthuxD5boTtXJjtUBgvjvsmVLefelV8kZUMpfH7yNhF/Ei36N9sUdAdKaaYnNHaQXVRui5NGubJVJrc/efZ/F389DSSgYikPJ7oM59637JXGxTUo508a5k63gbXc4GYCw7c7tNvRm7TmDtMPWbPAkQQklqZ25mHlTZ1C/tILGFdU0lldjR5PoFmi2impaiDJKAQIUr0MoK8JxT/6Dnf94NLEVNSj1UVd+ea0ExHWb8acywuJKw6u4ACGvQyedDrdUqkOEV9SgCxZkKmTuaY7TsrgCn6lgGIYk7IVqWgTj0U3JpFQmLY8J3XRGnHcMoXCI6a9/ijeQz+X334FTEKDyhzm8cd/jeHNz+Mv9t6IW5q6dY7nuV9ykZ7gAwaJxwUrZ/lsc9TU1vPH0czgBL1c9ejdKjy6pXtsbyzVYNwT4ufn8NQ2RBr1qc4zIomo8jkpzQx3jn30FJ5TEEq2/PTrHPnUdg044gISvs9BKf00rZO7VmS2QAQideXYyY1uLBdZCeRRgwVHQhRpd1IZQkujySioXrqC5rIaKGQtYOnWmBAmOzyBSmODq/40nr0cPQgvK0EPGakwI97Gyl4OIXqR2bK4mw4Y5KNFhLzCoN06Rv+1d2u7nQHJhNWZjxG3j64ieECrWyiYSlY2I5j71jfW8+ugovJYuyYXeXC+2LqR3HdQ8hWi+wwV/v5ynrroFJ+7h8LPPZJ8Tj8FKmkz495MsnjaLAfvsxsk3XiYrKn4pCNqUS1Gw9H1Bg6aFZRL0iaOpoYFXR43C8sLFd91E7vABOMJhbgPH6swJb9yhed5KfHERQ3D46PW3WDl7EZqjoTgqtT017p0yhljPbJeJmzkyFthMFsgAhM1k6Mxjfg0LqLInwer5/1XuLAkBwte6aoF+Q+G7R8cx+b4X8SZt1CKVQUftxMin7kXUk8keCCISIegHa/v2CnDgUckK5BJvCcFPhOjXui8VAEMIOuX78W7fA6Rok3tInBFPEppdJol56Q5KQlUyOq8CPWzKDo6zZs5kyvh38eHB8UD3oT1RuviJG1G67zqIg/9wBK8++jTN3ywjb1BvzrrhKjz5eSz4dgbv3PsESV3hL3feTNGw7drAQZrUltYk/DVmZqPuoSp4GmO0LKmSVQziaG5q4qVR/4fjNTn5sgvoN+Igt+32NnbIEk9TIbSsCq02KjkiTVXVvPbMi3jisoMZRrbCH5+4nj4nHyDXU+bIWGBzWSADEDaXpTPPWacF1h38XfstVo8pSAecyvdnRWzeOe9e5nwwFRHkt7uqHHn9aex8+bnQHCO4RPR/SLlM2QHSfYYiyHw2JLM1Aj1LiNc2oIQN6dl/bheeJiJ2DFMLcaWcIaVoIsSf+sArQge6ppXQ8lqpHigOAR+0sEHrfAEaFDy6yruvj6Vs9jJMy8IuUjntzkvoe/LRLtnQUPjysdF899zrGHGbs+66iW7bb4cSSfDC3+8hXN3AwCP254jzTsUQaENCDmGZNA+hk+xGRYqhIUbT0kq8orNhCiC8POopbN3kiHNOZqfjj06LTK5zHa37BHd20tUq6z5/056hOQpGQxB7cb0UjRLVGZ9N/JAl0+bgJFVZbjvw7BEc99DVxLI7yZxtWpNk7t5JLJABCJ1kIjLD2DALrC1PvHroVtTT67VRntrvz0TrWtA9DuFC+PPz91By6F44lS1EyhtkhUQ6dZCOToidmsjZZ5V2xaxpINEYRBM8gZ84fo7MKG/v95CzXSkEfC5TMZIgtrgKJ2bKun8JSgTBsiZIuKxBpkyS0Riv//dZEo1xHI9BsKvCtW88Tu4eO8jmPvNfnshLt9yL30wy4owz2Xfk0WBb/G/8O8wY/wFWnp+L7/4nWaXdUkqEKb3/nxW93rB5+FXOVhT0yiChsjr0FIJqamrilf8+hShJ3e2oERx80ZmgpAtb23UsfylfYPW18kvvsyHv/1PPlC3OExaxWWXYptt6vHZlOW+/8DJaXMe2bGK9srl54ihig/IzaYYNMXrm3I2yQAYgbJT5MhdvKQt0/KCn/7z6B1g3HCo+n8WEk2/DSiTx5Do0FTtc8+5z5O3QD2NpPcnaFrdzoihBTMn+WrqCr2senl6F0BKXFRN6sl2oZ/V3Fh/4ZCKB1+dbRe2xHTS4wCLhhazCAKqmEmsNo0VMlziZFkeyIT6vAjuckK2vZ03/nqkTJ6EmFbyFCrHB+Vz/1mjZ0nnlx1/xym3/Rg1G2PHgfTnk7DPx6T7mfTGVsU+MIteTxTFXnMugvfbElGERdwypvfOWmrb256baH8sxqSrW4jqSda1yLsTRWF/Pq0+PEhpXDBuxH4ddcS6KlipF7SB0vcGOXYA1TZFOV0RsBPejXVNh05IA3SZe7ZUsbiNnd9X6RBvoOWWSXCsqVUQFyqvPjSZa2SJEEYhna5xw56X0u+hwmarKHBkLbA4LZADC5rBy5hmb3QLiWyxqzN+952mWPfI+tmXi6WJQ19Xk+g/fINCnhwQIiZoWdFkZ4JISk4pNTq+uaII1n0wQnFUmZZ5FhGFtpZDiI28nknw++VMOO/L3sjStTevAtrFtG9XjNlhKO2jx79Wz6VKbPxgjPq9KCkDFgkGef+K/6BE3I5DIiXLQ5Sez/9V/5r2H/su3o8fhQ2XYgftw5AXnoPt8NC8q45k778doDXP46Sez16nHSNne1TWk1vb8zT5BHR4owFlybpWsSEnzI2orKhk3+gVZ2thtx0H86e7r0b2atOdGHUJ7oCAgUzQiQpOIJ9BUket3EKH+TUniXB0gtL2H6L3hqFJePNkYQk8RVr//9lumvT8FxdCwVQ3fbn248MNHULI8nS0GtFFTkrm481ogAxA679z8JkfWkYDY0QA/SSL8GStltZj859RrcL5YieVYeAuTNHS3ue6j8eSUdoOqVsJldRIAiF8E0zTR+xXi610s1QoTi6qwm6MoaaekqHLHl971i0erqCz5egYT35zAVf/4G3Z+lutkxCYvEuPbb75ln4MPTpUm/nSKwmtCZFk1TmNMKjpOnfQps7/4Bi2p4WgOoew4h512BAsWzqVp5nIUv5c9TjyWvY87Bt3rY8X3c5j4wLOY0QS7H3sI+55zHHgF9OnER4rwoZg2oR+W45Mtj116xbJ583n/tbfQVI2ioX055b7r0L2eX8WBy8hOtge9KICe68dOGFitUaxgHDtpSGVHIcvtkiI3AzFSpFhESqmikWRls5vywqGhtpq3nnjAxKykAAAgAElEQVQRxxC8BBW2K+K8CQ+Q3a8rKapGJ57czNC2BQtkAMK2MIuZd2jbnbd9zkUJ+cogj/7xCpQFjfKD6+1iUN/N4roPX5cRBJrjBIXeQFK0LDCZV7OCPUceBj4dpzlKdHGNDPV3LG1cJY0hnqEofPTf0Xz23iSuufd2Cob2l70fBIrwOgov/98oDtl/f7ruNHyNLoppBUbhEJymKNFlNbKjZcXCpbz72nhU0f5X/J1u4QkoROwYcQ0K+3TjxEv+Qo9BA6Xk9PyvpjHhP8+QVOHY889i9yMPJaGYbvBaOLpU+qRzLZN0REXFiSSIzC5HKEjKJlqKwvdffMnUjz5HVRVyB/bgrEduxuNz1Sh/6dGRBCvuIp2sRyW3MA9KiiSHM9HQRLyuGU/cQVM0NwXQVj2xwQmN9RqqWAciamQ3hOSaE3oIMspjmIx75nlaa1ux4zZWSQ7nvnQnBfsMxpKk08yRscCmtUAGIGxa+2buvqUs4IA1q4pnTrkRq7xFZnv1XIfWIodr3nqanJ23Awsii8pRGkJ89+X/2OusP5LdoxtEkrQK+dsO5Yfua7g54467cgEgJvz7ERZPm0vfXYZz+o1XEPdobk8oRWHRN9/y7gtjOP2yy+k1bAiGLNNMOUIcPKZCsr6VUEU9fhPK5y/jozffkbLSoqRTIIZEgY/+uwwmv7Qrg4cPp9f2/fHn5dNcUcak8W8x65sf6NW7P8eccyrdtx+IqXfMUW8ap7Yx0+r2xBDdN5GkRLM2SGx5bYqgKByzwuR3J7L4h/kSuHUdPoBT7rsW3btxAGGVMQvQpKqiihBLQDefB19etlQz9GVlSaJApDmIHYpLh+1qU6Vn/5eDlJ+ym0xVBaPE5lW6zxPEReD9ceMon1eGGTOJZsGpj95Av1MPwswAhI1Zgplr19MCGYCwnobKnLZ1WUAQvZo/nctrZ96K3RJzyxc1h1iew0l3X86QC4530wD1Yd57/GlKB/dlt9NOkGIIiRV12LXBNnnnjgLJ7q6/fS8qIgifPf8y09/9DNNx2O/4I9n/5JE4Pq+8vxKJMuqefxFvDHHs6afTf4ft0bL8spzNjiWINQWxmiJocZNFc+fw+YTJqKIvkW1he2woUBh5xV8YvPeu4NGwDYuGmlpmT/+ObyZ/IqMUBx92FLscejBqXg5u3KBzHy45T+6RpTNMiNx7U1hyAMTPbMPgzefH0FjZIMWdSncbzMl3XY2m6xsVQfhpq4gUk1tOaDgms+bPZoedhlO0/SCIRAnXNULMwGO5KaZNccgUWsIg8mMZXtsFJLqi8NWUyfzw2XREz46Yz+GYv1/AjlefgOjxkTkyFtjUFsgAhE1t4cz9t4gFNEdl5fiveOfCe2WoVnAFbMXGyYHsocVc+OaT+IoLmf7SeL75aBJ//u+/8QZyoSFCaFm11EZIaxq0R7XXVFwQe71weS1P/+0utFAMU3cYdsSBHH7GKei5WbJNsdkaZPxdD1K7rI4e/fqx6757U1hSIkPqiViCmopKpn05lUhDE05MgAMHJQtC3jhHXPQn9jjmKNndb8XCxXz/+VScaIKS4hz6DRtGyaBBeHJz2zplCge2aVzYrz+NIpWgJWyis1biiD4aqSbZTQ31jH3yWWzDwfQ5DD9yPw677Nw1Gl39+iNyG0VZwShffvAJiUIvf7j2ItB1rPogsaomF8RYYqzukU4TbcxY0lUslmkSm1mGqL5xIwgKP343nc8nfITH0YnrcOCFJ7Dv3echenxkjowFNrUFMgBhU1s4c/8tYgHdhHnPf8SUq5+QzPe2D7puk8hNsvP5R3DoMUfw4KMPc80dt+IfNgQl6RBeIFQMhSDSutjyKb69ItozQ8uSSj4Y/TL18xdjJ026Dx3CficfS48dB6JneWmpauDDJ5+nbvZirGiSvC5d8egeWgUoMEUJpci9C9lFFUc1ULr52PdPR7HLEUegip2z2FmbFrZho3s0dI8u5Y4Ev2BD5Z+3yISs/lBBzLMgXt2MvbJJOn9pUcdh1g8/8NXb74t6RIwsh/3+dAT7nHnSrz5s93mrK2i644pUVDN53GvYA4o47tq/4iktTTX2apScCVca+6ehWEe+w/oMXBInLZv4zDIJmsQhfrZs0ULeGzMWn62TUBz2OfNYDnzwLxj+DEBYH7tmztk4C2QAwsbZL3N1J7WAx3CY8cTbTL1lNE4HZy8drW5hFau0Wq3sesaxnHLvLaBrUBkkXF6PiOyvmwzXHuIVeWsRKtdMi6rFS/niw0l8/9U3WE6MPgP7MvKUk+mz/S5oWT6WzpjJe6+MpW7JCvxJH7l+Ha9XJ5EwiSctop4EA/fZjaPOOIni/r0wROXEKo6o83EK1rUEZFFHylwdXao3ZtMyfyWehOtrRRpItW3eeOFFmpbWuiH/gMXIS89g8BGHpqoKNtT1rmt0ayAXmXlyYgkavl/Iyy+Nomjn/lzwn3uhoAAMi8jyakli9dirz417r58a4eo6Hel3bi+LdYj9sFICBDnnCpSvWM6E517Gb3tJAHv+6UhG/OdSCRDWKg2+oa+bOT9jgZ+xQAYgZJbHNmkBb9Jh+hNvMfWW51cBCHLTKFINAYO6gMlt77xI9k4DcaJJIvMrU4JI6xOk75gDdr2bkMgVBDtFOPuWVhprq1m+bDHV9fVk53elW58edO/WjXx/NomWIBWLKqiuKsNIxlFUne6lveg3fDuK+vVCzRbpiV/eYbJTTWoHUaS0ZYVSpFHdQrKs0d2NS+ImtNbVMe65F3GCNhYWyTyH82+7isLdh2HLZk2bGiC4ltNRia+oo3rWXF5943l67DmEs++7FW+/3pLcmqxsJFHbgkcQWTskddoImL9kAmyH5OwKlJjZBpiqyssZP+p5smwfcQX2OeNoDnzoYkwBEH7JMzLXZCywARbIAIQNMFbm1K3HAu0RhOdkTr/tUBxszUbv6nDQTZew2wUng66SWFaDVR9CTdWg/+SbpjbwYoenqloH8NHuuOSfUv+QeXYBGmRUwsawBO0OVF2TKQXx9+4tRTmiLUGBG/de2wi2vujB2t9CQQ8laV5ciS/RzusQUYYZX05l+idfILfLukMkADc8eS/0LFx1HjfxUhSkRSUUJ7Koki/ensDC5XMJ7NKXix69F61nd6mAYdW0ECuvl6WpaxPR2uAhWjbJOZUQFd1FBXESKsrLeTMFEKKKwyGXnsJet55N0pchKW6wfTMXbLAFMgBhg02WuWBrsECagzD56iekVkDa4dqqjV6g4xmYy6XjRkGPYlnWGJ9Tjuik2B7Ob9+tdhRvEqJ70XAEwzDI61LQgarQASCk2kOnQ8CCsy/Ej6TvF/Fr8eWXXSHFrjn177TM3hrGFfeVkCL1N1vXvrEjpJFxApFuMGzCi6rRQqK3c1qMSCHS3MLrz47Bao6jWAp6LngGl3DRff/A8InS0Y7CRWmJ5E2xGt2Ihog0GQtrCC+p5CUh++xNkL/XQC54/D60niWSvGBVNRMrW7Wfxy8ZkazssFflIIj7lK1YwYTnxsgIQlRTGHnLRQy7fCRJIc6ZwQi/xNSZazbAAhmAsAHGypy69VhAhK0rJ3zHW+ffgxKXcWDplx3dJJId5dC7r2C/C0+XjiC8pAJPk9iypnLhck+faiu9+ivbDl98+An7HXwQWm5WSkTHBRMdgcS6LLV6c6eO/91Zugyu6x3W9+/TUEtWACQN4svqsFrjqbJGaXUZTfnu08+ZNuUrPIZQAABPnkLJAcM58W+XYTjWZuRipuoKFAdPMEnr4gqWTfuRT9+diJrr0O3wXTnjnpugtJvEd3ZVK9HKRnRzVcLoBiVDxOI0LaI/rEilLVzBqCXz5/PBy2/is72E/Qp/euhq+p/+u5QOQgYhrO8azJz3yyyQAQi/zG6Zq7aoBVJNbkTfg9W2UW1lZ7ZD/PsyRp/6dympLBy4rTo4uQ7ZO3Th4reeQetaAM1Rgosq8TqaG2n4mRy3qFaoW7iEOYuXcOgxR8o+B2tLBWzNiYDVx746sW59pj19j44lgEIp0JOwZQmpAAeig6XcNUvBIgUjEuHV/z5PsimCYwrNCoWIN8yxV57PsKMOaU+9rM8ANvqcdscruBKRJdVQ3cLrz79AqKaRZL5Fv6P24dSH7sAO+FANSCyvwWoIoQnlyzWqG9ZtRQlJkyZRoYMg3l+0/hZljt9O4/N3JuG1NRKFPs598XaKDhqKpWXAwUZPc+YG67RABiCs00SZEzqjBdr37Kt+KNs+xQ74G+M8efbfSH6+VH60Ha9FoljluNsuYdi5f5Rh+9iSKpTGaCrS/dPhe+HQPKbNxNHPsc/IYyko7Z5yWmtaZ1sECL/kneRciEZEltuIqrWsBk/ESqkdtNvNtiz+N/EDFs6YK52tPLwKTdkxrv3PPeT07ZVqV7350yuSIVIfJrq0hmVz5jHp9YlomkksF/a/8BRG3HQRSrYP4haxpdU4LTHZJXLVcMd6AAQRfIglU5LTLvLUFZWvJ03heyGUZDg4fQo4Z+w95A3rg2hHnjkyFtjUFsgAhE1t4cz9N5kF1tXAyWtA7VfzeO3Uf2KFY3jzIdTLy/Xvj8FXWgRhk+D8FfhN9Se7BKZD/6Id74qZs5g8YTwX3nYrCaFZsBWJEm3oJKweHt9QgCDOF2keQeCLVjcSr2nGJ0MuLvkuvcsW51UsX8mEZ1/Bhy4rFaSgcY5Dv9/vzQmXnk9ccztkrp6W2dB32rDz299Y9OpoWLAST2ucd8e8Tu2KKum8m70JTnv2ZrY//vduHWfYIDhvpRTZcqNR63+IaIHZEiY6vxqvVNZw0FWFj996i+U/LsOMWajbd+PCDx7GV5yHna4bXf9HZM7MWGCDLZABCBtssswFW4MF5OfdcfDHYcr1/8fUVyZg55gcf9sl7Hjx6ZLyF5tfidMal2kKUaK4tsN1lApqa5gx/3qI3jsO4dDT/0TSfcAql8hzUz/amglkG6sOKHbdquVgNIUlic9JsfJdZUphINcBio12MhLjndGv0FLbJEWgJHvfo6AWOZx8240Ubz9A6iFs3sPlIEhyqKhCcRTM+lbsZfUsm7+Aj8e+hxOz0HLAN1DllGf+Q/GO28trjJpmzOUNbaqQ69bTcMkxsptjTQvJ5fWyJ4WcA8ti7IvP01LejGE4MrVw6pt3ouoel1CTOTIW2MQWyACETWzgzO03nQU6RhDai+Xan6fZoNaEeeXoG2iuX445pJhrxz0N3fMhnCA4rxyf0NfvqLS4luGKc5Z/PZ0xDz7MufffJrsoWttQFfoGkenWsI+rXyB2/QJ06UlQgjFClfU4USFx3bF3RRpByQtwLINPJr7Psu/no4qWxqnKASdbodt+gznzb1eT0FIKi/K5adLHpk81dCSKihEIXY3Q3DKM1ijjnn6eSF0rlmmj5Dsk++Vy01ujoVexxBSxueWyMkZZrRPo2n4T0sRWwYGJL63FrA9KHoPgZUSCrbzy2CjMiEXCp3L03y9gyFUjUbRMfmHTfVUyd+5ogQxAyKyHbc4CUplORA8iDm/98zGWPT+JpB5mn2vPZMTfL5F+xlxWT7IhiGq5kYA1QuqpUkXptOqCTBj1LOHWev6fvfMAk6LK2vBb1dVpZmCGDBKUaM5xzTmtirquEX8T5oxhza5xTauuWQkCKiAgkjFiwASCSIYhTM65c3d1Vf3PvdUTGEEYSYNW7fqQKtz67p06557zne9c/OTDaD7/BohoW2ZmW+skbKyiQjSbEmbKJZoKJUEPRkkEwiTqIhDXUZMmqowU2EfzFIVqWSz8cS5zZ89BiVpYQgRJBctjEk9LcuULj9K5765Ck6jJseMwdhsK4bxyrLIg2fMX8tW0z3AlVBntoKPJwTeez3FDrgWfB7M6RHBVMV4RCRB9NTY1uYqCV9x/SQFG1JZxFks4P2cdM94dh6prBNoq3D/pdazDejbKUm7qvs6/OwhsIQKOg7CFADqXt04ERPQg9PM6hv3fA7hrApT4wvz70/dJ278fJAyii/NBhLSbiiht4FXcCYt1c+Yz5u13OPOSgez/j7NTkr/NT95+u9utifjmcAtkuFsqOQgpZPs/Szck6144BXogQjIcl2V+Ipdef1gpQ9d8vKJT5bKff+G7T2ejxi0UIU4lulu6TZR2bo6/7GwOOPt0kkrraTwljLYVisu0lBm0Ky706gimDqYvRlW7BDcPfZYepx0noymxlcV2+srYtIMgSI0uQXJcUoApohISMJPvZn/F0tlzUZIulL27cteMt4l1Fn05nMNBYPsg4DgI2wdn5ynbGIHme0t/2GL6w2+wcvgM1PQ4/a46i3Mevxt8GonSapI51bLUThz1XRs3ZPLNglo+GzmOJcsWc91TD5LZv6ddEfEbzsKO291uCbS/5yA0aDwqKsLhEn0IEoEI8eogZjguCYhC9Kg+1SPJhfWlizJH3vTuNtgC88Xz5/Pjp1+jRM2U0JQlu2Am00z2POkwTr/hClxe38aUKLbkdbfoWim/vKwQwnF+mPUFS7//GRIuLNGwKwvUfbty24dvYHZqixowCGbny9LODQk4rFcCKmSnKwMYayoaymytpM77Q4cTLQpgJS36XHYC5798N9H0LXoF52IHgRYh4DgILYLLOXmnQMC00H/K5aVLhtA2rOPqkmTw1BGk7dkbdIvIynzUYNKuQbC5cr85ZNvfSJSqedlMeXMkrg5tuOLFh1B9GmJn3HhsuoRtp8Cs2SBlCsECMxKXJYqiOZEVTmAlRJliqs1x02hBk9bHzfGUvEQFYtEwP8/5jmU//ooqRBRT3EMRpk+mJel7wqGcOXgQSpu07SiKtOHZ2RBRUwo9lQUI5ZdTnVfIh0NH4jf8duWFZpLIhNPuvIQD774KVXETXV3UWEK7sX1/qgw0sLYYrSJin6UqBCqrGDvsXZQQJBWTk568lv1uPBvD4R/sjD9OO+2YHQdhp506Z+AbQkBUI2hxi/GDnyJv+o/423npcnJ/Lnn7v+BzQyAmw8SInHcT7sH691IQOed4bhlLPpvDrGmTOe6iczjqin9K9v3GOfU7UxRhI2O1kPlwKxAjUFqFHozItIEwjsLQN6UMNse/uatkRxYsXKpKRUERE0ePwYqLTkeWzLMLe6v6FBKeOIdcfBbHnXc2pkdrKOFrOsKmBntHoqxFk9Qty8cd1hnx2pskq8KoZopr4TepSgtx+8xRdD5gT1uEa3WhbNXctKNoPW718RUtnKRmRR4+3SYfCoLi0nkL+G76pygxF+EObm6b8F98h/XGcsobnQ/fdkTAcRC2I9jOo7YtApKcaFokFxXx+sX34Cmro9oT5vIxTzPgtBMkCz6WVwYlAXsgqTRB8/p6l6WihhJU/7qGj94aQUm4kluef5S2u/eW9e2NOeDmAfodabpaim3jWMX7iDI7LWESq6wjJtQMBVnOFAWJdsXBho7fi51ITI0kFSXF/Dp3AYWr80gEY7IZlihbdHs1YqqOv0c7Trz4bPY45kgMd9MOhetj+RvnY8Milr8hQ0qDu5FzW4qY4Emohkl0VQlqbZRVvy7hm8kzUeKCRSCUOg3MttD//GM495VHhaUnuCoPd6Be/am5G2rLKRtlASk/LSMUwgkzTaaP/4iSFTmgq5iH9+CuCa8Q6+DwD1o8Z84FW4SA4yBsEXzOxa0JAZn1Tpj88MAIvh/xMV6XgdU7ndtmf4CvfabsEFi3LAdfPMUh2Ij2gTepUJNdQOHPS5g5ZjzdDtuLQQ/ege73bDCf3JowaOlYBGYeSyVZGyFQWI5LpGTEjngz2hNuyEFwWRaJeIKy0jKWLlxI9pKl9g46KXwrW/zHTHeR9Cv02n93zrn6UrzdOiLaGKS8ttSvf8zZsp2B9Ue21RwE6W0oaKUhgnmlGHVhxrw1jGStLltAS4knj0WiTYybpw0l88C9SJRUYRbW2jyN+pKQJutOqEwK+Wm1MmpHDyyF2rIyPhj6LlpMdAJ1cfwrt7D/JacQ927UV2vptDvnOwhsFgKOg7BZMDkn7QwICNJc1ap83j/zHqyaAMlOChc/fSu9Bw1EEW0Yy4IE1pZIgygiDY1HowkRv1NrYsRWF/PFxCmsW7WMQwcN5MiLBpJsoTpe68UsRRgUosAJg3hhJcnKEJpILfxm0PXGtrnShK1uaMsKQzQapbysjLXLV1K4LodQbUA6a6Iro+wr4HERMaOYXpO9jz2Mg846hc79e6O4Rfh95+HlC26GP2JQvTKftARMGvM+5atKMWLJlI6DAWlxzMN2454P3wFNkyktRbcdiKYIC2S06ji1a4ts9cVUtOPHz2fzy7c/oRoabbq257qvXkfv0UZqb8gomXM4CGwnBBwHYTsB7Txm2yDQVCzJn1CY/cxo5r00gQx/kkjfDIZMHoEmWjqbFvHVpViV4Q1EARoZ9yL/LghjRkE1E4a9S3mimmufeYR2A3bbqQzZxtC2c/l2OaIZ0dHXVZAMNTZPWv86YbjFf6odUJAwidSBQSQeJVRbR3lhERVFJeStySUWCsiSPJeiSelq1SVaXFsoXgtXOx/t9+zF4f84i1379wfNZVeD7IRFex5TIbC6GE9NjPk/z+PHKZ/jNjQQjZoE58KvUqnWctPYl9nlhCOIrCxAiSZlSW3TuIhQm4xll0JtzIbWAj2ZYOLwkYRKaoScBL1PPYSLRv2baIYtSOUcDgLbEwHHQdieaDvP2mYICKPnqzUYecYdFK9ci+GPcfgN53Hq43dhaWKnDKFleQhCmF3W2Hwo0nLirUtQnV1IwaJVfPnRx8S7pnPPK89gtvH9KRwEGSGxFMmxqFtbhBatr7vfkPWxd/aKoiLYAdFgiKK8fFYuW0bhujyMhChTtHCrLgw9KbkF4t4en4uEqlNnJmjTvRsnDjyDvQ49gLSOmSREiiFl6Zr2ZNhmC2Mr3rg+QyAMuVkaQM+rpKq8nPGvDcdr2GkUWeCigLeTQrfzjuT8Zx8mWlwOlRHZGjrVFQyBqFYXp25NMVqiPqKjULBmNdPHTpIloLrHzWH/uogThwwi6ra5L46PsBUn1LnVJhFwHIRNQuSc0LoRsD+b3oRFzsy5TLniaQwtTlVmkoc/Hor/sD3tRj/lYYJri2V1wvo1dI3pBVHrH19Xjl5czaT3xlBdUMDfbriEv51zquCK7VTHho2JLXYkWfPriuSvgjS4IasjSYbJJMHaWtatXE1BXh6l+cXosTiWYcpmRcJxEOx8zeVCN3QSPgtDU+natyfd+vdinyMOpVvv3mht0pCwC+GjhkzF+vOw9XgCW+9OG5pweXfBQ6hLULsiD003mDpqLBU5JSgiTVBfApueJNjNxcMfvonRuSN6ThUu4WZZtnsk11p2KXptxCYnAoauM3nkB1Tll0tnQ2/r4bKpz9DtoAEkU4US2/btdqol7gx2OyDgOAjbAWTnEdsSAdsU+msMnj7rWvyLyvF1UMg6/WAuef0prAyXDKnHVhRj1oiSNLkn/s2AxA+CK5KU/Rn00mrefeMN3D4XV776JG16dN6IeuK2fK8tu3d9WWBz5oA7CXXZhaiBhC3p24zjLzfAhklFWTkLfprLqsVL0ZIKHo8bQxdMPEsaelXzoKW7CSZCsizRl5HGoacfzZ6HHkzH3r2w/B5ZSSopCg18j0auQfNxbTXDJ8MS9dhtfW6DGKdYQj7R4XF5Dmlxi0U/zOWnz+ZgyWiM/XxTM4lmRDjulgs59s4bCC8rbHAEhENg1IaJrCqR1SP1Ca68NTlMGzkWr+UhgUWnQwcwaPrzmH4hxmS/01bDacuWl3P1XwQBx0H4i0z0n/k1haBP4NtVDL3sfnyhJEZmmH+8+Rh9zj3JlvCNxAkuyUdUJ8gPrDRyds5XmhBRjy/C7mVBwvkVrJ63iK8++5RdDxnAhQ8OIS6jBzZBbGci1DWfcxkaL6gmVlorCYlND2n4jCR563KkwSvLK0bRLRTRT0C0SRAliKpJXBANNYOsDrvQ++A+dNmjH9322J30Th3wpPlQVZt3UC9C1WjWbAy3xSGe5fF6iIseEEInQGgsyHyAGH9K1OkPPHpj7cTF2pFclXW2uFFlQSmTRo2VPANLeA+W2O6baG0Mor3TuGvGaIyiOsy4LTIlmn+FVhRihmIy7SCGrKEwY9wk8pavkxLgYT9c8tzd9LziOEyXk1jYFuvGueemEXAchE1j5JzRyhHwxi2++c97/Pzih3j8GqHuFg998j5Wz07SwJnFtYTzytBE996GfVjTl7Jki92YaP8cjPHVlJks+XUhx1/7T448/+/EZQ3bzpcBbi7nKyIooTXFuE1BOkwhIQWLTKrLyvh5zg/kLl6FZrnlrl/+z2Wg+sBI0/B0yKL3QfuwxxEH0q1HL9KzMjAVFSMVVdhhzpMCLp8HNcNPPBhA1UW/COEk2O2a6x3Cjalmbmx5/56DoJkKycoAyTUVJOJxxr8zgnhFECsh2Br2WlF9FsH2FjePfJZ23XchWhvBo1voZbUkc2oaHitmoqqsjElvv4cVE/1BQBnQmcETn8Xdr3Ork5xu5Z8DZ3hbEQHHQdiKYDq32r4I1JMN/WVJnv/7dbCyGDMjxEH3XMUpQ67H8rtlXji5qohEbcTuvSB3kk23kylmuW4SXVyAKdr5jn6PkopSrnvrKdr32KUhvLt9325rPk3BY0B0RSHJUDwlcZCKpiR0lv6ygHnf/oAZNmTUQAoZ+dwErSjeXbI48uxT6L//vrTv0gnF55Y8A4GauV554oa26HZXwm3uOMiggYLi0/D16ky8oha9NoxmCP9AOAj1WP6BMEKTaVhfzVHBHTOILMnHFDyE0eMozc7HZbgaKjNEmsHqqHLsdedw+KCLCZXV4g8kqVmZj7e+vbVwrnSdCe+NoXZducxfGJpC73OPZODb92L46jti2gWSGypE3ZorxbmXg8B6kUXxcxWNRq1t/kPs4O4gsC0QMAwK3/uWcf96ESvsnOwAACAASURBVL+RhC5xrp/+Hm0G9LFjtxGd2JJ8W1q5QSN5fUMhHAcjFCO2vJi6ghJGjRhG3wP35rx/347m8TTrC7BlRmZbQLDxe9pRAhE5iZfVYOZWyz+nChcJ19by3eezWbtsJZoQM9JNVE0l6TZwd83ikNOO5bDTjkdr14akMLSyd8XmFCZu30x5fWzHFCTItl7Se3bHqKklXF6DN2nv6G3dJ3vu/ugMrhdDUhR8IlWwJA+iOot/mMucmbNxCzZh6gGmILxkQIf9unLZG/9BqdWJry3HKA/KlJY4RPYqP3sNUz+YgDfpluWhoUwX1w19nMwz9ku1drYVFGyh6z86+u278pyn/TkQcCIIf455/Eu9Rf0nUlIDgnFGDLyH4II1+Dr56HpUby5692U7eiDqystqMNZWNXAPNgSUMKCJijriaytY+fMCZnwxkyv+dTu7Hnuo/GA3HjvTx7nRoIi+AdUr8vCmSjGE31RTUcGk98dhiJbFyZTV9EDUo9Olfy8u+dcteLt0kATEnWrzoCrE01Qy+/aAaJxQTrndiVLoMkij/HsOTsvSSB5TJbK6RJJfS3NymDhyLL6Ep1GESzzObRDxx7hh4mu0CboIrStrEEWSBt80mTZ2AmXZeZii3NGC9qftx5UjniTazi6dEaRQOz3icBH+Uh+6VvCyjoPQCibBGcIfQ0Bs0ILz1zHi0gdxVwSoy4hzznN3cNAV/0CoBasJi8CKPDwhUaCeeoYd87b/kGK8e0wI55RJTfzZkz8mt66MG5/7N0q7DEk625k+y3KskpinSsPisRQiOWVQGrJf2YL8tWv4euYnxCqDKLoLQ4j7eBSsLI0j/+9M9j7heDxpaVu43/5jc/rHr6qvBbAdOjPLS9puXbFiOvHcCizdkEJFjVySVBvPLeCWuC2VaH4VydJakrVBRr02FCUkBJEaya9oSSLeMGc8cCt90ruhRZs6mQqrf13Kl5NnyLUquQc+D6f97zb6X3pCQ2njH8fEudJBYMsQcByELcPPuXoHIqDpFstenMyMZ4eToUKhp44H5n1Euz497NBsbZzQ8kLcIjBrbLwHo6huCK4oIFkXYezQN+m4x25ccP+d6A1fevsl64VyduArb/ajZU5ecAmqYtSuKUFo/gsTWpqfz8zxk0kG45i6acslZxlo3TtwyR230K5vD+yAws4ULamHpT61YWGoYKV7yBCRhGSSwJoiPAkxh2aKoLnl7yfLFavCsq2zloSJ742lLrcEM14fibCdEMNtstsRe3PGmWc3pgpE6W0swoS3RxKvDmPKihEFY69O3DHhRZK7tZVO3s5eObPZC9Y5sVUi4DgIrXJanEFtCgERPRC53GGn3EYkvxzSDXqfeSAXDHsW1SvSCwrJohqS+TWiEH+jTZbED4BXh+DiXCK1AYYNfYULbxnMrkcf0YyEt6kRtbZ/t3AlIbiyEC2URFDdRI+EWR99jBHUsXQL1e3C0JL0O/VgTr70AvydO0rnoKl7sDNFT9abAdHYU6RH0j2k9+sOMZ1AjnASTCmJ3IxYYkdXWshPEH0okoEIseVF+ND4asYs1v68mGSsyY1ECa1XI6NnJpdcdRWWLAMVZbUw75tvWPjNXEg5FKrm5rCnruDIwecS9bW29eSM56+IgOMg/BVn/U/wzmI3uOTjb/js5pdQ9AThDia3Dn+KdqcdKTMHojlOYGUB3kASwcvfkEGwjYIiOxhGl+ZTU1rBuE8ncOtTD6G2b7dz5d6bzanIXptlQSL5FXh0qKuuZvqHE4hUBjBEPb5HI+GDw848lpOu+icJj0vyOOsdglS6fqdKrzSFQO7hU8TKoJakY58eqEmTUGE5WkKR4lnNswstdRDk+YkkkV/z8Vkqi3/8mR+mf05DbiAVSFDcLrydfFw6+Bpcfp/EVPSw+Gj4aFyCFyIqbVTosHsvrvn0f8TbuzFFBERKgouZ3PJox5/gR955hR2AgOMg7ADQnUduGQLiw5kWgnE3/Ye8yT+Ska4S75/FkOkjsLpkyA+rKnTuRTmZ4RIKQBt9oOwyUB1Gzy6hMHsd+WqQkwedL5XsdtZDFemFuEFkaQFq3CAeDDFu5GgSlUEM3cKVrpFIVzn/hivY7ZiDZa+K5m/b6CC01Gy2DtTk+4jdOwqRUJAFuSs4+bJ/YgZCxHKqZG+JrTLFhklsUQFuHfJXrGb6BxNkqaPsFmp7KViqgquNyiXXX0NG+ywwDKaMGUfZmgKshPDkFGI+lePvG8Tf7riQmMfG0HEQWsda+iuPwnEQ/sqzv7O+u/j2rq5k9Dn3Eiwsx5cOHc8+iEvefRrLrdnVC+sq0EvrZBnZ+q2dG19afL8l0aywEldRgHW5OWQd0Icue/XG2ElbO9vvpBAvqCRZXAcJndlTPyHn15UoSTDTTFzdMzj9mkvoe8QhUuQIRSQgxJXN3YT1iX8743KRhYHJJG888wyX3ncLXY85lMTqYozqsE1abHI0RE9a8qJirS0XAltxassqGDf0XTwxFTOZknCUjoqF5VX4x+DL6dSjK6sWLWHOxFnSbxXwyxLGnlkMmvkcWbt1k9ED53AQaA0IOA5Ca5gFZwwtQsAXt5g/Ygbf/msolsukzl/LVUJa+cIz7Zr3hEFweQGeiOg2uHFyotgli1r2YE4pamWEwmAlfY4+ENOvbTQl0aKB7oCThZHzxCxCS/MhabDkx3nMmfUlmqGi+hRq0xMMfvheeuy7JzFB2JNkxnpp4uYD/kMmcwe8df0jN1ymKN5vwbRJLK8oYPDrL8mTg0tz0XSbeSrSDU2LCDc/diSaX6kkVxWj14TQgyFGvf4WrrAqCaD1Ot4i5WV6kvz98gvJymonqx08uoZlGtKZjaSrXPD4Lex27SlYmlA62Nlw34FT7jx6myLgOAjbFF7n5lsbAbFgfSVRnhl4I94llZh+g5KsGM98MRZ1j162wauNEVxVgFuEbzdySJOg2l0gK0UppGgDvUsmGT07owsGmTAc0t0QQWpxbL7Z2Nrv3JL7iVB3MKcEd1WcytISJo0agxFJoHhU3F3SOOuWq+i1314kXY3b1J0zibA+Kht9B1GloUD1oqW88OJzPPru67Q5cn+oCBHMLUM0r6qf2pbjYDtX5roKEuU1KFGdUa+/g14Tt4W5miwZlxdO+ufZZK9YRc6SbBTdJkoKJzX90N7cMO55ol18TWpqNzyalik1tGTlOOc6CPwWAcdBcFZFK0VgI59r06J8xi+8f+3jUrbW3c6k/VmHc9nrT2Jl2Dt/Y1058bIAmozVCjLab4277SCAJ2pSuTwXn+UibZ9emB6XlBq2ZXV3LgdBuDJWZYjQ2hK0mMWnEz+mMDtXvk/MbzLw9ivZ+4SjSUjhnQ1gkmpgtYHPRKt2kDa23xYfNyEHrYplUFrHk3feSc99+3LNuDdxeb1EsougNmanof6o/ycc0rwaosVVaHGDMcNGEyisRBX9LuplpmWmxqTTbt0pKSrBlRCllrbjGUtTOfmhqzng1nM3S/fAcRBa6efqTzosx0H4k07szv9akoefeo1GE+DWFT5/4G2WvTUNBQNXhxgnPX8P+156Dqamyk540UV5qFE7fCuO3+3KFzYpX76OzPbt0Pp0kqJBG6t4aHkh3NachQalp4ZOlM3v7jVV2crZUxPnl3k2o14zXZhehUPOOo7DBg3E1yZNkuZkgyWp0pcSeGhUkmpS7lePe6O+wNZ8o+12L8XCHTcY9tAT5K1exY0fv0PPow6B2iiB1QV4RBRh45mo3x+mdBBqiZRU4jYsPps2k5z5y1ESrhSOAmW7aZQiShxFyqt+XYo25Uf344aRTxHt6k/JKm83VJwHOQhsEgHHQdgkRM4JrQkBf6XB6+ffTmx+Lq42LvQOMW6dOgLf3n1kHlmQzyIri/DINsW/vy0UxtEd0KlYnUf73t2x2qc1CNOI9INimViWkBtK3adJGeCOxKRp06DGcVi4ysMEcssgEGPCsFHEKsOYSVsK0nArtN21Az337UXXPfrTc5+9ZItmzeNO6T3Y79hcmEcKC8lSu533EIqSXlTGPvtfKlYtZ8DpR3Lm84+Dy0N0bTFqRXiTa2Wjb68ouItDBPLLcBkmP37zDYtn/4grIeS5Uv0rRCRBMgvkb+Qh57CNn/Pe+Rc9zzwUXfujIYydd16ckbd+BBwHofXPkTPCegRMi/Cspbw5+CHSRHohy4c1wMvtU0ZidWorxZH0nHLipbWyQVH90TxZIRa9/EgLnkE4QW1JOV369CReG6SmrIRwbQ1ut4d2XbrRZpfO6JrYcbfeaRBmSIStBTHTHU7y4+xvWDrnZ7uETlqilIHyurB8FjFLR/FqdO3dkxPPO52eB+2L5ffYafNNOFWtF4X1R7aeo6OAR3Xx6ZujWPXZN0R9OkO+GY+3ZzeoixFaWSSrWX6P0Pq7DkJJiECqnfivc+cxd+ZnqKIng7in0kg5TLkG8hfRJrvtqXtz3fAniLdz/+EAxs4yH844d04EHAdh55y3v96ohfFKJJk86AkKPvsFzUoS98Xpd+UpXPjMQ3ZzJh1ii3Ox4kk7vZAydhtiM4iFr5kWelUNaxcsZvmiJRStKqCuqgrRsFdc4/Kmset+/Tn2/LPotkdfO3ffCg8h+WsW1xIpqCBYVMaYoSPxJlxYpl2dIHeuqc2rpYqIALjcLhJWEt1n0XFATw496Vj2PvIwlLZptrFKOVG/TbfsjAx7BU1VmD/xE74c+gEuj4uj/n0Vx1x/uTTiktAaECUNf+AQEYSSEHW5pdLJWLzgF36YOh1XwouvbVuC4aBNhGzwVi0MBfw9OnLp2Mdpu28v6YDaR8tpkn9gxM4lDgKbjYDjIGw2VM6JOwKB+p2gkFYO5ZUz7LTbcRcFEV/dcFqAi8e9Qv8TjwSXC4IJYovzmnEIfkvrEtlhV8Ige8EvTBv5AeGiUjr60zGiENd1ZB8DE1y48bb1UqEmGPLik/h7dsUUss2t5BBvJqhuWsIisjQPl27y2cdTyVm0Eiu6PvGuIcTdpKBPtEfGZeFOcxG0Yri6ZXLVg3fQsc+uxDBRRS+A34ROWp+D0MjOWH9ims68EI/K/2khox9/gQ7pHQj2hIemvQ8d2qGX12Gsq/zdjp8bnXKZYggSyC9HMxWW/bqIOZOmouoeBhx+EAuX/EqbcJPOFqIDucfi9H9dxUF3XkDc2/TOjoPQSn60nGHUu6ziWxiNRq0/S2jRmdk/JwLupMKaSXOYdOsL+IJJLJ+J0dHg1m8/xN+ri9wJxvLKoChgAyBlautTvvaHV0YFUChZu46vR06kbOVqPIqbUCQCWghU4RzYAjeqqaHFfaiuDCyPSc8j9uGcITejurUdEoaXZjll8ZrGMTRDIV5SjVlYS6Sqhg+HjyJZF0Nq9zY7mpqfejPfcFu3QtKdwNPNy+7nncrp/3cx0Whc9gmQtSANqYed04gJR7NqxSpevfshuvi6EHIHuGn8G7Q/Yn/QLRKL8jEToutnC6NE4gOaW02kpAbNUlgyfwE/TJuFknBz9KXn8OW3X5NeEMZIJRFEGwi1X0eumv4i6d3by6ZS9XMrCaPO4SDQihBwIgitaDKcoWwcAV/M4pt73uanUdPRROlaBxe7ntSffwx/GcvnRoka1Cxdhz9uE8PsFIMdta3XMVB1i1U//MysESNRwjqGamBl+knr050DzzqZTn26k9mhvez8GCmvYc2X81k++yeoCqF7FK595iHSe3RrMJatobujJ2YSWl4A0SQ/zPqCZXN/lQZP8DFaFLIWYj6KiZamEfWE2fO8ozn37lsIGQpabTwlHdxC49mKFrT40IWyc3nltgdoS1tcWWEOuesqjr7lGlBdJNeWEq8OoibtqpfNPWSxYk4VkbJaRKpnoeAgzPgUxfBwxpCr+GnhfIJfLLe5CBbEOvsY/PajtDl5byyXIMDah+MbbC7iznnbEwHHQdieaDvP+kMICN0itTzC28feSKyoStaUK129HHHt6Rx1/y3gVqE6QlBUL5iulAFvDDyLHLxXTzJj+BgWff4diqFj9WnD36+/kn2OOxJX5/bgF+3zLGQ7w6iOVVFLsrwOIjq5i5YxacwYzvzHWex50gkkW4kMs9tUSZTWYeRXEayrZexrQ1GiJpYwcg2MeTtyUl/S2JST0DAZDUUaAmhQNBOjM3Q6fA+ufOlpRCeLSFEVLtEB0r7zDomi/KHFk7pIpBjia4p55dYH8Rt+VF8c9eBe3DbmdejQFrM8QHhdGZrRMmMtPqDGylIS1WHpIPzw1Vcs+eoHLNXN+U/cxqqctWS/9QkWBjGXxR6XncR5/72TaFq9W9CkfNVxFLZkip1rtwECjoOwDUB1brl1ERDdCFd/8hMzrngGRRAQvQbVGXEGj3iaXc88Xj4skVeBKXoPyC1Z4xZQqOglgxG+GD2WX7/4Dn9aBl0P25sLH78Zb99dZdKBYITQurXkLFxNRW4RxAy679KLXXffFS0zE2FcClatYvXSJRz7j380lj1u3dds8d28EZPqVQX44xYLf/qJH2Z9jSsBuqrQbu9d8bRJo3RdPkZNGNH9UqQjmmTD13ueLerT+FeGJ4HRXqHTkXtw1UuPo/oyCBeUo8YMyc9ocSi+xW+3dS8Qjo2RW8krtzyEFhMZKYPKtlEe/Pht2hyxH0Y4TnhpAV6BUQvSDMJdSi4vxqiL4jLhs6kzWDd/CYbfyxWvP0ReUSE/PPguhmWgHdCDa4c+hrpHZ9lvIeVqNcQQHBGkrTvnzt22HAHHQdhyDJ07bEMEhDHyReD9W56k7KOfUAxwtzUoaxvl/s8nkN6/h8y3h1fm46qLN3EO7Cp0r2kybeholn32jZRQFmJBpz1wM2SmQUynbkU+M4eN5pdPZpAW8gmWIpriBlUjo2cml99/F1k9d5FaAeuy19CzXx807Y/xEOrLK5vS/DbPGP027y9NfVEd8bwKVMNi0ugPqMytkEJRekc/l7/7ON337QdVYVbOnscnIyYQLarGiibQkpbMlzdVD7Sf0NREKZieBOouHna/4Dj+/ti9ko8QWlMkSZEYwktovXyE5noOIuViFlQz5rH/Sa0IQzEJ+8Oc/tC1HD7kGukUhBfl4ooYMkqyefOCxEF0c9RiJuhJPnjnXULF1cTbe7l93IsUFRYydfBzmOkaV3/4LO3+NoCE25ZYbkkqYxv+iDm3dhDYKAKOg+AsjlaGQD15QHxAFfnhXTPtRz574B30kmr5UdXSDSraxrlp4lt0O3w/CMYJrMrHnRDiRo0hWy1pMmfSTBaMmormUuh2zhFc9NIDkJWGWRGk7OdlLPx0Dl3ad6LrXn3xpaURj0bIm7+Enz/6FL0mgNYzi+uffAilXRa6buByqaiqMCDrRyqag2g7AYptCITWr2mixxMkdZ1kQseludDcbtxeN6pLpEU2FrZvyiWw303cU+x0Ayvy8QR0CvMLmTJ8NC7djaEq7HLiPgwc8yguv9duN2yYsu1zyeI1ZH80h5xPfyYqIi66IZ2o3zsUt0Wyjc6Z7zzE3uecDKE44dUluEQkwRLbYOFW1DsWLUjeb8dVJ6pSXIqCnlfJJ2++T968pdKpdGeaeI/uw+APXwWfH3N1OYmKAKrVhMci8U6JSMlfGtkC0gVNJAn/mofHUDCiUUa//jZmTYKqLh4e+3wkVcVljPrn/Rxw/UBOvutyoukpaU+HdbAdV4DzqD+KgOMg/FHknOu2OgLr7/os/FGFua9NZPbLY9DqEiiaIXf3uqg26KRy2OWncPwj96DnV5MorZUVCvVKyYJ5X7VyNe8+8jTppp/itDCPTR2Nb88+WIEIJfOWU7Q6l/323heXpmFYJvGSClb+PJ+aghLq8isoXJpHTNW59Im72OWQvQWLD1Nm5H97NCcsipC9KvpCBKOUr85l3ZIlrF2YTUlOsRTksVwWbTKz6HvQAAYcsj+9998PJSMNSxHqjSmDJIx7fafBel3/lNqhpyZGzepC2Wzqi2mzWD1vMaqhEc5ycfsHz6Md18+W9k2ZNMHjcBmgJRXpUM0eMZH573+KK6cWRXIqUs6HrPaor4AQO10Td3svoV3gvskjUHt1hboo4ZVFMudez7LbePJiqy+TP3RDsTbi+ZX8NHY6i778HiWu4s1SifZry11Th0OXdihlQYI5xTYPYTNKCoSrYAajRJcVS+XOaDDAe2+8jTuskji8B3dNeJXy/CLG3/8/bnzvGZJtNEzRWTvlPP7xBhB/CALnIgeBFiPgOAgthsy5YFsjIIy8qpssfWsGn/53FFpNGLdfpcoTwFTSsdDRXDo9du3JdVNHEC6qRQ3r60UPPIkEH774BkXzlmCoOmc9fy97X3gWJE0CK/KIlNbQLqudNARCyOb7CTP48ZPPSdSFcBmKFF3SdFW2kz7htkvZf+BJGMKwb2S3XB9sF9EFYYxjxWXMnjyV7GVLKSsrRzM8+L3pMkwvJJwNK4aaUNF8CoaqktW1M0efcQL7nnYCptuVkj+ujx7Uh/NtKWSBT3RZAUowgRGOMW74SGLlQUzdot3xe3H1mGeIZjVYInvTa4qyT3v3KzQlREvoaG4F330wg7mjp+GujeMWNXfrpRmEtrSFpYHa0eDIe6/m8BsGgaaSzK8gVmwz98Ulm4pEbOs1s6n7ayjE8ipYMu1rfpz2KcRdsnw11Fnhjg9eoO3RB6MEEgRX5qHFzRQ/4HfuKoS2LIV4aQ16TiVuRZXOwKR3P8BjaBzwyGUcfeMFRPU4VEdx9czCFISYBjlr8bvWGXHZFJbOv/91EHAchL/OXO80b6rpUPj9Ej64/FG8dTqG38LTL5Nz772SPvsdCrEoP0ybzifvjufOCUPREipe0ZRIiBgJAwqULVzKiMdeoJ0ng7Q+6Vw77T3ISCOSW4xaFrZ18i0Lt6WQ9/MSJjz2Cl7c6FFdRgpU8T/RKliDw687l0MuOgPDNDb6Sa/XWFASCRZ8/w1TRk2gc2Ymhx15OL32GEBWVjfcaV4sA4xEgtqacvJW5fDLDz8RKKvCnTSJJ4Ic8s8zOf6C88Dvb8IDbOQGyHGH44SW5uO3XBSszWHGmAkQsTBdCofc8U+OffgKEtrvT7d0PYSjELeo/m4Fox98keiqUnyiDXGTt5QloyJNkpEk0q8tD04aBj07QzwppZ3tVIN9Sest1VPwWIrscpk9ey7ffjQNK+7CdFkkO8L5jwym/3UXo8YVQstz0SJNpQ83gqMQSBLaGznlGKV1MoWxZO4Cvpv2GZrbzzWfv4pvv+4kXbaSZaNj2Xp5GzvNB8IZ6HZDwHEQthvUzoM2BwFhbAQpcfqtL7Loo89lzj99/15cP/JpPP26NOzC1GiCb98YQdYuvejXqx8uoXuf2p0J9b/xT75M8c9LiSlJDr9pIKc9eg8kDGqWr8OvC06AvYOzagK8eOcD+EujWDF3Y2hZfMdVFUPROXnI5exz9vHSQdjYIaIGZjDC8JdfItOtc/yZF9Jl9wGYXk1yBlQZ7q+vJ7Q5DLIZlJ6kam0B86Z+yrLvfiAt08VB55/DMeedhy4tc33FgP17sWvV8yuJF9vCPHM++5JVP/yCEVeIZrq4ZuQTZJ2yj+0oNaQoNoG8aaJkV/Le7c9Q++NaXIax/uZWjMEDNf5aLnvpfva4/HzZEVIpDxPMKcGtgyUjFJszwzviHAWfoVK3uoDi+cuZNXo8VkJFKEmamRa7n3Mo57zzNKrpIrQ8D3fYQDSp+t1DUfAYKpEVRZiBKC4FZk+byer5i+jQuzdXfP4K0XZi7m2HtXlkRpabtl7AdsQkOc9shQg4DkIrnJS/8pBE+NtYV8WI428hHq8h2T+T20f+F++AXSnPzSOtY3sy2reT1QzBpesoW5lLzx69UjqJ9kdXrwzwzt3/xhOso1Cv5JpJw+h/7BFQESK4pkTu/ISFdqkqS2Z+xYxXRpKe8NkaCI0cRxS3SsQX59LHhrDLwfts1GgoioUrnGDS6Pfp2KkDh555Kr70NBHV30Arg6b1hMKI2ztMJWbw3cefsHDaLOoiQa64/y56HLY/ZpM2PsLQiHRIZGkBVlQnGYnxwdB3SVREpMBPbZ80Hv1kONHudlfK3zvqX7M+qSBK9JTCAONvfY7i2b9KvsJ6h3By0nXanrQ3V415GfwelKRFeGWhXT0iXraVHsJI+3WFupX5VC3PYcqwD+xGVmJn77XQe/m444cx+DLaEFpp92XYdBWD0NawiCzKw9JNktE4Hw4dSaCyjv4Dj+XcN+61tQ5+ZxqcSoZWumCcYTUg4DgIzmJoVQh44xZz353KvPvfRU+L8rd7L+eoW/6PuWPGMvHfz7PfwIFcLlr1elyEVxag1sUaytLER10QDvPnzOXD597Bl4S6dJ27531E2+5d0HMrMYpr7Xy8KIG0VN577AXqfs0hXmtbRPk9Fyx2xZKqgnUZYe545T94u3WWnQ/EMxo4+/W7QNNg0ugxHHTggQzYfx+E7REtkm0j09xwbjjELCInHlRWfv8LE154jd322Z3LH7+XhKuxukEQ7ay6KPEVJdKpqCgsZMw77+JP+nCZCrtdfwoDn7iZaPqGrVJKRXoj821J58MsrOOVv99KMr9a7pAlJqlukN5MhUifDO6ZPhKrS5bE0CypJZIrOBatNnwgI0G+qEX18hzqVhdKB8EUpZpCUjtdp8hTwT1zZ9B5t92IZhejVEU2+TMhuRd1MWLLi6QzVpqby4R3P0BxeTjqkSs55oYLiHnqY0YbTys08Uc3+UznBAeB7Y2A4yBsb8Sd5/0uAv6QxZtX30fy62zKfJXcP30k6b278cglV9Bda8Ov61bx5lezoHNnoisLsISD0FB+Ziv9ffPOeyyYOUeWFvY8Zi8uHveSLPmLry3DKg1Kmy0qD2P5Jbx+zxN4q3SEJbYrF20WvyXkkPwm7j06cvN/HiGZ5pUGpfmnXvAUSouKiEei7Na3r+zUZ/sYNplQ9oBonWf3VgAAIABJREFU2M3XVwqkiuAlwS9VsZBCRdXhp/FT+WzGFG75932022MAptydK3hNhbq1xagVEVyiO+G33/Hjp1/jMb2yWdWFHz5G15P3R98I/0AQMu2SvabG3DaU9eUfwtCXffYrH9zyH1xlYVny1+Dk+E1CHeGOMS/R5sj97DRGSKdueS5eIUHRSg8xF77aBDXZBYTzK/jojVGYsrc1uNKSlLiruGbyMPofdTixtaVQHtzEmyh4hPO5rhh3peiKBV9Pn8WyeQsxMvz834wX6bJvH5JOxUIrXRHOsDYXAcdB2FyknPO2PQKWhTcvxLMDb8JXUkdpxxDPfjOZIDqrZ39Hn757cPc1gxj2+Uzo0p3I0nxZ3y8cAUmSUxQZ6v3g7qeozimBDPjb/53KsU/ei+JyoedUkCyua4g45M/5SUYa/GENNbVbbnhJFQy/zjE3XsKhZ51Ewi75TzkIjfs+wS2oqawkq0MHeamUhbaHI0mOSirPIPUZrKTNYxB/LzgJqluWvQkDJpwAe6eu4NMNRr34Ip3bt+OEa6+SkQtxeCIGtSsKpFCRyHlP/WAcpdl5GHHI6NmZwbNeJrlbW3m/DR/1xn59B8F2HGxnRvzfHTeZNeQVlo79EhHRqT+SmoHe0eKSZ25ht0HnoaguWe0RXlOIK2Uot/0iafkTBB5aaYhQbhnR4momvDoSQ/AshKvkManxRhj48n0cPOg84jmlUnZ5wyJGDbUqeCJJma7wJRRMPcH4d0ZRV1VHp0P25KIp/wFfyuFs+XCdKxwEWg0CjoPQaqbCGYhQ+Fv5/mxmDXkVjQTqEbtxx8Q30X0W7rhB7k+/8MTttzD8i5nQuRvxpflYiUYHQVSRhWoCvH3ZvWi6RbK9wcm3D+TQu26XO2wRPo/klOJWhDCRwryxHzHng+l4Ii5cRrOyQDf4dvEz6PmH8XfpIHUS6kl/TYVzRLRB2mOh1JfQMcNxzGAMIx4nVBugpLCIdauyidTWEk8GSepxmX7QvH7ade7J7kcewK57DSAjK4ukoDGKRlSKSumvSxn2wovc9db/8GVkSMckWRogmVNpb/ZNg7FvDSNWXkciodDtuL0ZNPpxou3ddk5gCw5xf292DS9ccDuutTWpO1kIB0FgevzNAzniwTulkyMqIfSiaoy86lYqv2w7P2pBDdHCKsIlNUx49V1MqQSJ1KNIpCscftPZnPjIrcTzyzHLgr9bkaEqLsyyOuKidwMuitfmMH3MREIYXPXyQ3S4+Ahw2TwX53AQ2JkRcByEnXn2/mRj9wdM3r/xScqmzMVKj9HzytO56Jn7wadBKMbE6/7FNz/O59VvpkOXTGJL8qS0sC37a9vFqrIK3r76btKTHowsi1OHnM/Bd9yC5XLJ3PIv075kQI/d8Hj9zP9wEl+9Nw1PRJMOQoMDoFoobTT6nrQfA2+7nnhqd71+MsCu/RfRArU2Rqy8Fj0UQ4/EKM0rJHvZMvJXrSEeikjnwe32oaW7bP6DqcgdbCKWwPDESO/WjiPOOpU9Tjwaf2aWjD5o0ShPPvAA1/3rfjp26yxtTdXKAvwVcTTNRbCyinHvjIKQLnsv7HXTmZz16I1ERc+pFh+NufJ610J0z/zkgbdY8faMhgyD4TIxMxV2P+cwzn77Cdn6Wu60q8LEVpW0TqJiqorAWFuOXh4kWlnHuFeGY4p1I4SsVBOti4c+Z+/BwBefI15QjVkalE5cgwrUenhaiCZZwTXFaFURjKTFlxOnkLd0DWbPLG6d9D/MAR1SEZlUVMZenS2eFecCB4EdjYDjIOzoGXCenyIGgm9tHY+eeiVZFTGMNgH2u/caTh1yAyKeXvbLct45/Srce/flvkkjIMNDbHGeHUFICfWIkH5VaQVvD76LtKQHMxNOvfN8DrrzViyXipIw+Xn0BCq++4UTLrqUqrWrGfHYy/jrNFxJO3Ev2/L6FOrUCFf+90F67rUHSRE9qK9lt/MAMuivJUzCuaUk66J4TJXidfl8OX0W4ao6O68vpIxl1N5E9SlE0PF5Tbyam2hAiEG5UFwWpmahZGi07d2Vi4fcSlrX9lKkYN73P9C52y707NtHlkjGS2tZOONbDt57X/JWrGLGuMm4ROMhv4cz3r2H3U8/Et3dsgXVnJFQf7VwfEqnzGPs9U/hDaX0H1QLww+ZB+3KlTNexZ2e1sBDiC3Nt521VnbYXS0tWfnhDiWpK6tqiCCIaI1wetxdPXQ+ujOXDR9KrLAWqyzUpDTxty8k5K1rhYpl3KKkqJiP3hmNZrrIOnpPBo15EjPL2+yijaHcysByhuMg0AwBx0FwlsQOR0BG6E2LwCeLefuah0kPxrHa1XLoI7dz3A1XiNZ7fPvW+3z3wEv0HnQml/z333JDFl+SSjGk3kCkGILVdbz+f3fhE6SBtgr7//MoTvvvo1get5QUjq1YywsXDaZLp16ceMIJ/DTtG8qWFGKJWn5RruhRibp19jvjKE66fhAutyelarh+uNidsAjmluKqiRKpDbDwh3ksm78YK2bgEpoIomxQOhwGVoaC0t3PURecS2llIUXZ2VSvKsVfB0pM9EqwyQuWTyGtTxeufPQuvJ2yqKmuIRIO0a1nL1nuKBySD15+iwM770pVcTk/f/0TSkLB1bEN1333Ju5d2skugZt7/JZB34SQaFl41tXxyMlX0KnMsIstZZ0l6D3SuH3++3jbthFEC5SgTmRJnk0WbWXljpI3ohtSWEoQKWtLK5nw6ihMU/ShEC0ZTDxdvLQ/NJPL3x9JvLgOs2xjHASkcmR8XTnJ8gA+NGZNmszahSvR3SrH3Hkph953MSJb1RgvkFJTTvxgcxelc16rQsBxEFrVdPyFB2OarHn7U6Y98haeaAyzXSWHP3oXx113Begw4rp/Uf3Z1xz20E0ce+MVEDeJLc6X8sqmacoGSuKjHA/HeP+O/xAUuWRVJ2PfLlw/awRamwwUweyLxPnupWHMfvU9jBikW+moYbs8Er9CMBll10P34or7byPuczdTM7TnRxgJkXePF1QRrwnw8bjxRCvqICY8gyamQVinNIUqf4grX3uQAeeeZYceIjEqvpvH6EdeQi2JoVfEJElSiA+5MxT6nH4EZ1/3f0QVk3g0ij+jjf1cLIqWZ/PFSyNo42lL/qp8hJnb67S/ccao+zD8LSPGrb+vrR93YyLFF4J3rn6A6IylUqVSvJpodBnItLhz0Tjadu7Y4CBEl+Tb5M8U+a+1rGQxJiUcJ7A8H39Spbq0gomvj8ZM2kxSU7XQOrrJ2CuNwVPGEC+twywNbNCgC4RcEdEBtECSE8M1Ad5/7R2IQW17Fw9NfQtjv862iFSqgkVGpRwHobUsB2ccLUTAcRBaCJhz+jZCwDBZ8ORYvv/feFyJGLSr4tBHh3DcdVdCxOSNi24msvhnBr71DP3PPBmrNkJ8ZelvdAbER/zboe/zy9TvcBtJKr213PjFB/Tcb2+sFKnOrA6w+O2PWDx1DuUr81FNBV/bNLrs15PdTzySPgfuh8vnbSaWk9pdq0ghncDqIuIlNUwbP55ASTUIiWKz3jDYu21BgIu3VTjtrkHsN+RSNI+ncWtpmgQLS/n2qddY/vEPKDWCKKmCxyLgj3PDMw/Sbu9+TcaQMjPhOKOGPE60oI5kJEnUCwMfuoE9bz0L3b318txi3+uPwdyhU5j3wCgMQ7erIX1QlRHh3l+n0LZrJ/vvRARBVJQIo5jig8iAQ6qCchutmE3c1p4vQfikMkR4bansuFheUK+DIManYqom7g4e0vpmMHjWe8RKaqSgln2s70JpqOg5pSTKg1LYasq4iVSsFqkVla4XHM6lrz9ItM3Wm4Mdg5vzVAeBRgQcB8FZDa0CAVEO+OUdr7F89OcoyQRW21r2/df1nH7n9ZIrNvnxl1j+yhiunT6UTkcfhFFRi76m4je6BC7VRcHchXz4n7dkWWDYk+CEBwZxzB3XYWp2xYFg3lMTJbw0F70yKHeTXp+XtKw2CBstIv62xJGISog/NX70xTgjy4uwqoJ8PmU6havWgtAASIqzbH6CNC0KeNoquA/uwQ3jX8Vqn9GAs6xUELvtuM5Pr7zJt8MnQoWFFvRIqee4O8HBF57KiddeQlLmH+qfr+DDxdT/vkru9yvRqxMk2vu5ZtTjZB2/l10yuRWY8/IeotdAEiq+WcaE8x7ESCblO7nSTMp8tdz9yxQ69Ohh6z3IFIOIIAhs7UqMHe8gpKI9KJj5NbK8UfTdKM3PZ8pwoaQou21gKAae9j7S+mQyeNa7RIoqUGtiDdIQ9cgLPQgzECGSXSK7PRZmr2Hq+x/iMXyYmsLfX72Lfhcd26BBsX48plX8iDmDcBBoMQKOg9BiyJwLtgUCqmEx5ZpnyJ/0o+hmBG0j7HvPVZw25HoZll/79U+MufAObv1kJFkH70W8qAIKbTKg2O3W8/AFUdEKRRh235OyDbSIGqTv3pbrJ4+ADm1k+FcaL8PCyKskVlorpZfFbtdoonxo7x2b5ORFeFkUTFSHiOZUsPCLOcz9+lsUVcESu9CYhppMKQ8KB8GtEHWHOfm+qzj8vquxNFFGad9VOgimQtWC5Tx4+eW89sIrPHTLA3SqNFBjPtyZdv+JK564j4QQbJJtrO1+iR5F5cePpvL10En4427UPp25euKzePt2lvyDlu5fm9PnmvZvEBEBZXUVb/ztWsy4LT8shIVKfTXc88sMOnTvLlMMBHRiywowDSMlWmWvkPXR2xarZuP3rMdB9OhIrCwmWRuRTllu9io+G/ORbNYkMBURBE+mF61bGjd9OZpoeTWuugSCddGoewGepEIwuxACcax4go9Hj6VWpLFE5GhAR26d8CJm36xU9UJLZ2H7YuM8zUFgcxFwHITNRco5b5siIIhkEwY9RtnMhaiiiVFGgm6XnsSl/3mA1etW0X+XXoy9/F7Of/VhvL17EFpdgFbdRL5PktWFKbXLD5d9+jXTXh+FP6HKsPi+15zL6ffdBO38DR9xpTpKMLsA0T1yvU+6bHK0fgtj8e8e0Xsgu4S6vFImjXqPmB6l63596d+/N9+Nm40SMOWuVJbPaRZGuk6/c4/kH/97GKuNYPwj+xcQ1QmtXMv0F4az6MdvuePJR0kkLT584DnUGi+a30Qb0Jlrn30Uw63ZPIiUEJTQeCxYtpJRdz1JJhmkH9CPKyc/j5XhsXe9LZyl3+PXy8ZZZTFeP+waWR4ooi+2g1DNPQtm0qFHdzvfXhsjuqxIME03IjDUwkFtwelNnRLZNjxpIfkRooWzAst+XcR3H0+X7Z6ldoXgIGS4cXdN4+Yv3yNSUYUWTtrE1NQa0CyVZGVQkhMVw2Te7G/55du5uAQR1qXS/9a/c/ZD1xH1y9hRquJlC17CudRBoJUg4DgIrWQi/vLDEA7CZY9RLh0ECyvNIP2Evbhh6PNMn/4Rfz/+FIbf8TBXvvE0WscO1C5bhy9W3+xw/QoDUY3gTRhMfmM4+d8twAy7qCXMWY/cyGE3XwpesZtXoaSWYF4ZbsEdQJEte8XO0eaXNZoacT8Rno6VVJNYUy5DyxUVBYQyTe597xVKl67lg/teIz2oyciEJbbebdxECWJ21Djumgs57uZrpb5zzYo1TH9nJNmffk2G7iMYriHW3s1DTz/BxOdHEMuNkjSiaH06cP0Lj2F43Ou3c7AsassreO2qO2jnassRV1/IwY9fjqW1oHxhMxabLdik4KtIMPSYG+RuWfzZlWZQ5qvj7gVT6dBjF+kgWJVhEq1EB6GpgyDSAsm6MImVpWgyvGIxd84cfv3yWxlBEM6cqZhobdz4emVww4zRBEvKcMfqyzXt4lZXIC7LGtMSCgW5OUx//yPUqCDHKvi6ZXLDN29idMuQ6SkZOdmh3IvNmFznFAeBzUTAcRA2EyjntG2MQFMHQYgJ+SxCvTN4eOZoZo57H31hNnlFK7ltynhQvdSuyMNrCYO84dp7sbCj5eVMePl1gkuLcOEhqET525Vnc8j1F5HuSSdRWifzyZZhEg4GKcnNo2OPbmR27GCH9Ovz+aK6IGoSXFFA7oJlzJr4EWaawcl3DuLwOwdT8MmPDLvmYbLCmuzOaPjj7Hb632jXtT2Fy1aSvySbvY47Cp/bYtn3P0EkieXxsvvfj2L/U05m2eyvWfHJN2jRthhlMTxtLLS+HbnuucdJeIRccxMOhHivYJhXLrlTtq3e79LTOfalG0GmMLb8WM+4WeCv1Bl+ws1UryuWDoLqs6jKiHLvr5Np26WjjNcIaWLhOO0o5cCN5fuF4xctrsQoqLV7Sijw1cxPWPvzItp06kKN4BtYgqToJa1vWwaPH06wqBRRwmr7iArepEUwuxhXTYxAXS0zx31IoCQgu0HGNJOjbrqA4x+9+g8KVG35fDl3cBDYlgg4DsK2RNe592YjoCRNJlz2b8pm2BEENcNFSbsanv1qMj999g1zXxyGt3cGN4z/ACtkEM0pk4azaUi9eftcYTKNUIiJrw5lzfcLyUpPQ1eS1OgRDjrub+y5T38MRSE/v4zVK/I59/pBdO/b2y7lTzkH4p4ixGyU1xFfXcrU98ZSV1cKe3ThljFvQMe2lM6ezxuX3UX7qIuQpnPA4NM46+F7waXBolz+e+ltWHoSj8+gLh6AXdpzxZMP0+voQ0GUV8YSzHzyNbLf/hQrbOHJBN9eu3DVUw+TkBY7xYhISSgn40lG3/U4datLSduzF9dOfQmlIXWy2ZA34+hv4DrhIFTpjDzxVirWFEm6geqGurYmdy7+kLadO8jIS7K4Gn1d5SZbTG/+yFp2ZiNvQuCU4nooyOZWgVWFMgUi+Adm0mD6hEmUrczhwJOPY96n3+JKGrg7esjYO5Orh75OsLwad9KOKAmPwsgpJ1FWKzUopoydQOmaArtiRUSUOnq4csozdNqvv9Q+qD+ktLOdoXAOB4GdGgHHQdipp+9PNPikycdXPEnxtPmohomrjUZRWilPfDaeutoQb199O72OOZgr/vc80cIKlIrwpl9esWzSXCRO3pKVLPtlIcU5eUQDQUyfSpsumXTqsQt77LU//frvjSvTb1cwNGnpLBLX3rhJ7ap8sufM56vpn2D4Ypxw7zUcecc1MgddNvtnXr/sXtJROPCfJ3HqYzeDP53lk2cx48XhmIUBErqOZ0AXTh98MfufcSJ0bifVHSUvwbRIZhfy2sDBqOXCX4jS+6RDOf9fN6HLsViNuX1heAyTqU+/Su6Py1C7tGfw2OdI26d7y0WSUk0cNwqkjCAkGHb8TdTklKEKZ8UNZs823Pbze3japstISyy3DKUkuFUqKDY9qZs6I+UyiiqSuElwaR6K4B8IByEWZ9irb2KEdE694gJmjZqAW7fwdPGQsU86V//vNUJVATRTkVoXhpBmzivHrZss+P5HFnz1A0pc4K8Q9ykcMOh0TnjhOvBo6zkDjm7ipubI+fedBQHHQdhZZupPPk5hJD+56UVWj/kaV9JCTXdR5a3lzklv0X7f/rx9z8Mcf8E/2P2oIwll5+KJmimFw98Dpn4Pp8r2yLIEL66TDMfQPBqqX0NxuxGdf+sdg+YkP7nzLKmVKY3x74zAiMXJV6t46rMP8e/fXxqewmlzePvqh3G7FB6ZPhL6daXspwW8edv9pBsKUa/KUQP/zkm3XQOdM7G0ejZhk6qGYJx3L7uJmp8KCEej/OOu6+h3yt8El76BfCneVLaOTprMfO5N1nyziKjHxTVDH6fTmQc25MA3d6lsypAJLHzlCd48cjCh4moUofYopJYP3I2rZr6Glu5DMRRCqwRhNLa5j90m5zV/FzFvajBBdHmhLJMVvk0iFOKNF18hs11nzrr6Qsa88BYe3VZS7HBIFoMef55IIIrbUDDrokTWlsjIQfbipXw+eQYeETlIiuZPKsqATgyZ9ibRHs1llbfJ6zk3dRDYIQg4DsIOgd15aHMEhPGec98wfnlnmswBix4FMXecM18cwv7XnksiGkNzu1GKaihctIp0j5/0zMwNihmtn2qop601ZqqlkZWaBYK/YP+93KdvYEctjEUku4iVs3/kmxmzUNwm3S88notfeAQrwy1JiSuGf8TkR97BjCXpsHtP9HQNs7yEUHEdnQ/oz8Uv3Yv//9s7D/CoqvSN/+69U9PokSooiBQVLCiCqGujKPZV7F3871rArmvvZXXtunbFiiK2FRurWNaCBQVECD0EUkibTJ9b/s85dyYJAYRE0Amc+zxomNxy7nsO873nK+/XbwcMv2iU0JiCuM+XCYERm1fGX8Pid74iEbC55L5b8G/bZa2wvrhalBx+eM9TLJjxI3ENjr3pQnqPH4kliMcmOiRGjkNgVZwH9ziDRHUdjmHjtNHYYcwQjnjqFjSP2+65Zu4SAmG3fXK2HB6hJ7GqGmdZtRtKcYQM92r+/fDD9B20B/uNPZhnb76fQMLG6ORlm306c8Il15JMOThCPntJGd6kzbKiIj6a8g52XQosV+ciFdDZ55IT2evycevsfaGSFLNlFahx/F4EFEH4vQiq6zcJAiLZcPY9U5l+5yR8MUuWpPk7Jeh5+mgOvfEyKdzjVEWo/mYWbz4/mVPOOg+7INAgyiMNvtjdNU5aTBMBUZmQ5gnrNaFpg7jmy2h4K2OUzy5i6lOTiFVV42nvcNrrj9B21/5uS9+kyafX38L3L32JFXHI75AvkwjNlEmlp5IrX3yIdvsPl3oM6zskQagN89i4M4nOWU2XIYP56wXjsXyiLfWae2MRMjHDMT564DkWfD6LpO1wwDnHscfNp2L6m1fJsC5DlvlMPFUXyRhFq3lk2LkQN7EME7O9w9AzR7LvzZejiw6Z4RQ1vywl0KjidJMsiN9zE13Dl4TahSV4q+Jul06gZMliJj3/HPsePpYBu+zMc7c8gOhaSZ5Bv1G7cugF55JYXUdkaRm+lMPyBQt5f/JUiAnQBbZC4EpH370b5z9/B8leBTKRMXPIn1QFw++ZOXVtliGgCEKWTcjWOhxBEIpf+IzJl/2LYNj1CWs+i2hnPxc9dCv+Lh1Y/ctCnrvhTrr335GTL59IIp3A19A9IO0LkJ6A9eW2rx/hxiJBMk3NcojNW8Evn3zFjHc/JC8/l46DOjHu+QegQBa9w+o67j3kFGpqwlz/7EMY/bpSVVzCM1ffSqJ4Bb3/MpTjH7oDJ8db7zxo/BxxC5mDUFTMv8aeghPSGTvxPHYYvofsItn0kH0gVlXz3ydf4df//ST1E3Y78iAO+PeFWIFNU8mQeaZhQeibhTw/+hIwLUyPhdnRYswVJ7Hz+eegC+nqijChopX4HP1Pb9SUmXKxLIzaBDXzVxBI1x6KCoxfZv7Iu+++w5i/n0Z7Ty6v3fc0gZSQREiy9wlj2P+wUVStKMebtChbtpx3J03BiqXcKhKhmSD6cub7OPPl22g/YgAJWYGa0d5wUVOJiVvrN9iW+d6KIGyZ89r63sp2iH+6gAdOvpyCGmEY3V2/GXBo16cL+d07sKpoKdGq1Yw44WiGjTsa05YRepmL4IYNGr6kG1QQ1x1p31D8XRhisypMeO4yKc0bKq3ExCbeOYl/QDeMdnl4HAN7VQTzu1Jsv8Pg4w5m1DXnQ/tczKWrePOeh/h6+gxOnnABg086EgpypPxCRvcxM2YtmuTjux9l1r+n4GnfgfPuuAG9TQ7RaJRATk6judTwORrReSuY9szLLP2piJTlMPCQ4YyedCV2wEiLQG2a6feloPiD73n7xJsxrZRsjZzo6HDKPyfQY9zhaLqOs6KG2NJyhKrAn1Xm2LCFT4drxKpYVUt8aYU7LlHboOt8Nu1DZn4/k6NvuIjQrGXMePld/GLdGUkOPPlY+vbbEcOyWTx3Hp+89yFOrSm7jGZANb06vU/Yj6Nvv4h4WzcxsdGy2zSgq7soBLIIAUUQsmgytuahCFd6zsJarjnoNDpWiL2a7IEsRYc8YmfssbAMi9W5Jpf86w6CnTun9QHcXfb6Df6av8n8bV35Bo3x99s6sUWlLPz8Oz58/W3Zi4C2PoacehDbDd6BDl06kWcEee6mh6j4YpFIZcQs8FI4dACn3HElvt49IBbjfw8+y9QHnmH4yUfxl2MOp822hSC8CV6Pa10ch9qZ87j55PNpn/Iw4tTjGHbEGFK2zaKiInr371c/LEPT0aMp6mYtYeqTk6hYVorl6Aw4ZCijJ121yQmCEKL6+ok3mXnVs1i2CT6oKTC5/LX7Ce67i6wQiS8sxSkP/+kKihksBVjCmxEuWolWGWvATtd4b/IUFqxYzLgHruWnx96l6LMf8OIQ1WIcdfYZbLttD+bNmsX0d6bhS+luWEGqKYJpgN0ln4unPw5dC+TfXdVE5TXYmr+3tvR3VwRhS5/hVvR+wSqbfx5+HsYPK9dy1Tq6hd4+xoibLmSPQ0dTJ1zBsjuRuyPPfJH/7tcVzYdsByOSombmQqY88Sy1VVVYbXTGXnUGA8efIPUNhLqinnT47/3P8NVtTxCMCyllHSfHIdAtn70mnkz/fYdK43nvaRNoH0kSSyXxFHoxOvrx5AYxPD6pjxBdEEKrgvzt2jHuxivxtsmnrqaGlcXF9Nt1F2zBgRwHjwmRZWUkl69m0r2PYodNTF1jl7H7cfBTF2Nu4hBDMAJvXvcQyx77WLZ7NnIdwl39XPnW42j9OssExci8FdKdnzWHrhOI2VT9Iipd3MRTcdjJJC8/8TSVdozz3nqIl8ZdR3xxOYZuk/KajPvbeIp+mcPs/30PEVOWMrqLUMSrNFLtvRx738X0PHxYfdfMDXmhsgYTNRCFQAsRUAShhcCpy34nArLfgbsDyxzBqMM7Vz/Mwsc/qG++VP97EVguiLHtCSM55tariNfWwKqQLGFzlY1acrjJazLfIX0LkXQmey4sLaNo+kw+mvwWuQU64W4BLpn6NL5enaXRkYmFSZh+9xN8fdckgnGfzHIX2v5GnodsmSmuAAAgAElEQVSQthodH0IAyqPb7L73AQwcPIjZ8+ZQUVkuQyPBYD6ripaQDIWJYTLyvJPYdfQBmJrDrz/8TGHb9rTv3QPbEslxyC6DYmdcW1XNi/c+QsDyyyqG4aePZdhdZ5NKJym2rJYh3fAhLRAkYAmGHO459gKML5Zjaw6Bjhbh7XO57O0XoFMbNKEuOWcJfqENIPpntGQKNvU1uoZnZZi6paV4bSGl7Iaf6soqeOaxp9C7tuO8d+/nwb3OIidkybkPtg3SoWshyxcsxuN4ZGfOxl05E36NAcftz5j7LsT2C3LYMoQ39auq+ykENjcCiiBsboTV/TcaAVFS+OvzHzFt4gMYKWFw0glgsjrBQQs6lAYiXP/uM+Ts2p/48jKsijopaiNIQibhf+O/vpsmMmrSmAjt/civxfzn2VcpXVJM1B9h7/FHc+D1E3F8hutWFuQmkuCJU/9O7YxlUGtjiJwEMWrRITBPI5ZI0qlrZ3r178Nuew7D4/e5VQmSGDn89MW3fDF9hgyf5O/QmdNu+4f0LPgdnffefIuDR4/CDvql8Q0kNdkPQOzWV6woZurjzxN0/IQ9cMzN57PD+FGYno2GWp649g44Y+Ld0EewNM7l+46ja4ntEoQODvauXTh/ypM4uX60UIq6X5fhTTbvuS09e0NhIfll5jiycZQWSqTVEN0Qwbzvv+e9Dz9knxOPpN+pB/PcyIsJ1KXS5a0auuhlIWS7pbemYQWZuk2XQ3bjlEeuIb6NH1s8o6UvoK5TCLQyBBRBaGUTtiUPV3y5p2av5NHjL8ezLJTO+k9r1gqbJRLlc016HL4X4x64AQI+YkvLsKqjUv2uPkku00NhnWCtr7rB/Vy0fhbEo+y7+bK0Ec0kvm2Qy155GO+A7d32xtLp4MDycu4/4jRYBmZdKt0+2MEJ2LTt043VS4vZoU9fRh59NJoh+jC6h2htPXvmLJk05xHaBZ2CnHrtBPL69pRx/dqiJbz51lucdelEUmJMpkN8eQWJshABDL798ku+mTYDj2kQKTA44+kbKRw5GNto1D9iIxaKS8DWY+4cB9/CGm44+HTal1vSM2LnJul57AiOe/RmbK+OXhIivLw8jX2GcmzEg1t4yvpd+m4mgKw8iSYJzV6OyCFxDwfHtpn26uvMXrGYK578FyVOHW+fehuecDLd7avxmlgTj1j3HM596mbaDttR5h2osEILJ09d1ioRUAShVU7bljtoEWaYducz/PTIOzixFF5bJv6nDw3bYxLr4HDAhBMYfuEZYPhIFa8mWlaNTyjcCVnEtQhC01SydaeWCQPji6SomLOYD194nZXzFhPopDPgrCM56Krz3S6QuiarJkQb4aI3PuSdC27FrvKgO4aop8DI91LQpyMnXjOBZ279J1WLSthr2H7suddQfAGvzIr/+dtZzHj3Yzw+jZAT4eCzxzH02ENllQTxFI9ddz177DOcPQ87FN3WSJRUyU6SPkvDo+lMe20Ky+YsxYyb6H06cuZrdxDYobMkUBt/NPIWrOsixyH6eRGPnXA5geoU+DXqAhGOvnUCu5x3vNx5m7+uIlUVkcTINat/VpDBVaYUniShehldvtolLW7PTqLxCC898Dh2j3ZMfP1Jvp32Pp9e8ThGzHRTDNYxdHG5lWtw0tPX0e3g3YkrwcSNX1rqzC0GAUUQtpip3DJeRHxZG1GTuS9Pp3j6jyyZ8SNWdaTe9Mgv82CKeAeLYeOPZcT5Z6Pn5mBXR6QhJZxsyKiXVQLigswOM1PxsOaOURcti4Xb39FILiqlbNZ8Xn36eYIeP7UFES6d+jS5g3dsEEEU55bVcO9J58N3JZAQyYYOusemzpvgr9dcxI7DdydcXsmM199k8bezCNpBgvk+adSry2swzRS+jh52O2IMQ8eOwvF7ZUOh+Z99wavPPcMlN95AXpduxFdWYq4MYQhpCA0i1TW89vhzJGsTUoa58yG7cswL10FAVEVsujWgOTalU7/l1XNvdw2pHyryK7ly8sO0GzFMJlfW/bQMb2LNPJJNN4Lm3Em8uIZPlCzOXYEZaVgDgiCUFC9n6nOv0OvQvTn+3mt4+5aH+fXJ92WPBZlPklZabMRDsYIGe008jhEXjSORJ8hfJkejWSysOS+hzlUIZB0CiiBk3ZSoAQk3u8jYN6IWb1/yLxZM/hRdJI6lDb0ofbT8JvHcBDv+ZS+OuekyPNt3kxY0WV5DcmUVesKSO0pp+EVCpLCushzANSbu4WA4DlUVqwnmBslz/ISKVvD5lP9Q9OOP2EaCPuOP4sjrLnaFjtKHZsGcZ17j9cvvpk2sDd5ObbFDMeKJCJ7uBYx/6Fa8OQH5FFFXX7V0BTOnfMis6d+g+w2sHI3CPj045NS/0r3vDpjpKozq4lW8eNWt9Nl/Tw4/6STCKyoxq8PSiyDf3rH53/T/Mvuzmegpg3BbD+c8cRPtRu2Mkw59bIrVIzATmRazH36bT656wm2JHbSp2Mbm9v++CtsWYtfGCc9Lu/LTza02xbN/6x6/lYMgxmvXRonPW5n2aLiYCf2D7774nBmffsmBl5/BsLOPYcr4W1j47lf4bBH2SYtRpdtBi6lIBHUGn3gII287j1TQwJa9MxpCWOsLUm3u91f3Vwj80QgogvBHI66et0EEMgEAES4omfIVL114J7khS8aY5Re6NPi2KHjHDILRqy0jx49j52MPhfw8SFkQjhGtDpEKx9ASFrotGgG7injiELt1n2ny+XsfULqylCNOPxl7RS3VC5fzyuPPoDsWbXq15YzJD0HPbaQeQ5pToBWVceex4/Eur4Okl4Fj9uGXGd+QNMMcet7x7HjYIVhpFUQzlaKiZBVVS0vQ4jb5bfLp1KMLeR3b4QS8WFK+V8MJRXnp7vtZPW8Zp11yIf68PJxIyk3ATDdpKl22nLcmvYoes3FMyNm7D+dNvpd4e7cr5KZy8MumjSmHT258mp/ue1OoUeDtkKLtmCGc/NBtkOPDFGGP4kpJHlyqtUkdGOtcIw0EoSFElHmu14S6JaXoqyNomqtfIHb9VjLF25NeYmGkkotfvI92O/Rg0uGXsnJWEd60/rabdOqSABFK6DVyD46/9zJS22SErRoPJ/PEdYepNri41QkKgVaEgCIIrWiytpah1hMENAJlcW4/4v/wzy6XO0PX1Zs+hFNAd/Dma1QZEboNHci+JxxFv2F7QKd24BElazbEUjiROGYiiZay0MMJyn5eyJfvvc+cuXO49Jpr8ObnE1lYxqzpn/HtjM/x5/gIdvWx19l/pddeg8jv1B7LsqkrreODu59mxRdz0MMOwTYFDBmzPx+//jZa0OT0a8+n05Dd0yqPwmhqchfbeNy2qLiQO1Jb5hQkVlfz9pPPs+ybn+nVe0fGHHWk7N2g15MZh+ryCj6Y+h9CKytxkrZMs+h71iGMvetCYoF076kmipItXS+CIASiDlMuuJulr3yGyJz0dEyyxxWnM/z800E3SP5aghWKyzLOP4wgrIOEuKRBwxszqZ23HE+igaiIdbSkqIhpL75Ozn4DOP+Zu3FqIzwyYjzRylqXMGZGL9pWe6DjPv049/GbiHcNrscrowhCS9eVuq71IaAIQuubs61qxELud/HUL5k6/k48opxurf4Ebgmk2MrqORpWwCRW4GPnw//C7oceRPfeO6DliAwzjVSojpJfF/LpS1Op+O/PROpCjDnrZPYcM4raBcUkKkJMfuxpYpEQMT1GRK/CMcBqG4Q8Px7bIK/SR27Mh1NnYaPTa6e+VKwslcJGdp7NMRNOpdcB+2HLcIZ7rL3fdT/zODqJmlpeu+9RVs9ZhFcPctxZp5PXpo0bntB0UmaKRfPn88UH00nVxnDSmkSmR+OQu//GwLNHYxlu4uSmSEGQ+g6CmFXbPHjkBSS/W4Ye0EjkJzjzpXsp/MsekLSJzVqC6JMtRKWa9pbYnAtUECNXotoliuK/HjTMslpSSyvS6prpnBPbZsoLL1G5tIxDH7mMHcfuS8kXP/P6MddiWeYaWgeW7pDari2Xvv4ATp8O9QmfrndBaGA1r0Jkc2Kg7q0Q+KMQUAThj0JaPWejEGjIrRfJYLIoHV9ZlBfG30rFx7PdDoPrOqSL3UHz6hh+naRTIywHnkABOYXtMHQvtaWl2NEoaAZeO0DXfQdz7JmnEiqvxluT4Kf/zeSrGZ+Saufh6Gv/D71fF/kkw+slGPBTNnsB06+4Hyo0SGlYBhT26k71klJs0asgx6bTbttxzHWX4BWaB2mLnRFhSgcLXBVG26H4x/l8/OyLhJeU48Sh96D+9Nt9F+ldSEbjVK4sZWXxMsqWrEQXsr92usOEA5FtAkx44z48g93cC7fX4KYLMwSXRrn5wNPIXRVFb+8h3KmOq997Fb1nd6zKMKn5ZenNd9pQr6NV9kZNeAtPckmJbJaNL+FQXbQCX53M5qhnZcsXLuSjyVPx5rblzHfuJrhtIVOve4Tlj32E5aRjI6Lfhw6dduvD0U9eRaB3IXamlLUJnqqNcwsnS13WahFQBKHVTt2WOvC1U8BEfDk0p5gnxk7AqE64JEFu7dI1ammvbwN1EL+3ZI2bx+vD8emCEyDyATTdJqLH6b/fvhx79plEV1aQqo4QFuqEjz4BOUm2+ctgTnv8XrcyQG5THexFy7jruLMJFhuYIRPNNvDkBwl0bU+0aBWObeH4HMLeJEdcfAa7HLw/iXRbJqmZIPblUrHRwZNI8f1703n/qdfI0wJYEXE/DVM3SQn9YkFK8KDbBn6fFycujJnwlLgEQHgWupyxH8ffMZFYrptVvykj4kI3IDZtLg+f+Q9ywxamP4l3+PZc/Nq/IVckchbjr0rWl5NuqtyH5q5o6WVxNKxVNYSXV+AT7p70kYpGeeahRzHrkhQO24kzJt0i5+CqEePYZllSYinkoxM+B32Hjkx4/UGMbm02QmyqsZ/mz3rz5iKlzlcItAwBRRBahpu6arMisKa5k0lzSYeFUz5j6pUPYlTGEKagXuancUl/JkRcnzXnIN3HPhPT59Bp+27sP3Y0/QYOIlRehRNLoictpr35JqsWLiXcw8ulLz5AYEBvN3M9aRKaNYcXrrmTyA9CoU8Ybl0akh479SWimdTOWiJJi1AbFHoBRqcAQw47gN0P3h9f23xh0bFTNsnqGhb++DMzP/6c1UUl+CIOogdSxsMgrLwsuRQf2CKa0tCdUPIU6bhwaDegJ+dMuROza366aVDLJsOFaB3phZbNDze9yBcPvoYnkcTMTzHmoX+w83GjZAJoaO4yfDLcs7kNZFOyuObfhT/FW5ekZmEJnrgo+kxXLqDxxQcfM/ur73AcDztNPJJRl51BaM4y7jt6AnmVrpZyNKix3cghnHD7BFI9CmRYYcNvpGoYWrba1FWtEQFFEFrjrG2FY5ZpBgmLuU++z/v3PodWHq3XBpDVDZlyxkZGS5o+0Vsh10+XnXsyaL892H6X/kRTNomKMF4hqpRM8c1nX/Dz199iWzYn33cpXUbvJa12pDzE7E+/5OPHn8dfnkSr9cmSQ3HfZOccLv/njbzw8JOUffWrjINLIy7EkgI6YeL4u3aQYYNgQS415VX8OvNHvBGTAk8OqaiJbop7NfLNS8GhjMluiLFnplsQnWRbP0fdNYEBf92fuPf39T9YJ0EQOQhxi2ePuIzarxagi2d0trnok8n4ehRil4dILK5wSU2Le2Bs7AJeH0FwBZBEdUp4/go0Ue0hPDSyM7ND6eLlvDnpFXThjMnP4YwP/kW7vt2Z8/yHTLv8YYy4TTLfYMAx+3PETRfIKpBNWSa6sW+nzlMIZDsCiiBk+wyp8a2BgGgMtODVT3njmgfxVCfxiKrHdG+E+hMbOyB0HSPoYeABQxi4+yDycnMxhCGxNepqa/n2k8+Z/8PPso+C5XPwbOfDzDGlcbEqwR9N4cR0zJgmPQfiYaI2fr8rTmHocYfy9OlXUzFTlMy59KC+4E/IHus2hk8QAAvNMjBNkXtg4JjpEEnjN1tj69ooeSH9uSAHZrsAR1x5DtudcxCar6HxQsOlLdvdyqvSjgRRPRpdVMZTR1+GvWQ1vkI/vUYP5MiHbgevl+iCEjxVIngiKik2vN9u6fJdf8jE9RP4bI3IklKsinC62sNtuFVRVsrbk17FDCVIOjBw9HDGPHOFrBb5z1UP88sT78swyT4Tj2fIuYdjdgjUew0yJLOlY1bXKQS2NAQUQdjSZnQLfJ/GX9wy7pywqfl5CR/d/iyln/yMlrQavN2N9ADkLjdtM00jRV7HArbp0YVArp9kNMHiX5aAUAIUBjutuWvke3C8orJPw07YWDGRHyBAdW+s6x66nrwPx911sXS3P33KP6j4/BcpCV1vZDM/ZsoyZe7BmqWOcprqLXOmQZDrP3CTGzMeCSFapOPv34V9LhpHv+P2wxQ5FZspq17oGix75XMmX3wPwYRJbU6So+65hEGnHC5VKkPzi/Gn3GZVa/CbTZCkuDH0RiRwCo2GWPFq7LJQfSmoAD8cquWD16ZSVVwh5zVR4GXcA1fQ7ei98VUk+edRfyMvprH3FSey05H7YQY02XypXoAr/UKbohpkC/xnqF5pK0RAEYStcNJbyys3jY5nyulkuMEETyjJgv9+y6u3PYJeUoc/4iatuWJKDSnoUnJAE10WQfcabtBfEICklS6LSyMiPtZdxQJZSidK+DIKRCLbHZuc7Trz93fvx+yejzcFL198Fyte+kJ2n2yoM1wra1K6xBsKHxvNwBpWMVPn4HINkV2fKvDQc9QQjrnsHILbFxLzud6HTbfbdRMoJSVxHBkCmXLiTSz+9AeCQVjhD3HtV29QsF13zOJKEitWY9Q3QmrZSmrqHWhO2l/A0qlbXo5ZHsIjxyHmyyEZjjB10kuEVlXLds0iI8HTrzPnvnUPRucCVnz4A++9MpULrrscehQIfStRFLL2IcsoNyYXoWXvrq5SCLQmBBRBaE2ztZWMNRMb/41eg2mD5ir+GRVRFnz2A3M/+ZbFX/6MvbwSI13FloEso5Tr7s7dJ6xhH9bylq9JT2T8P9/LyBvOYY/TDyXmB6HRsPTTH3n95JvwhEU3x4yjoRGxWGPOXKEnufsXp0rl57SEkhR90rA8umjtQJue29B32GB2HTWCLsMGksrRZVllZvQNt11HkmGz1okYhEsQhGdg0cffMfW02yAWx8w3GXzSAYz659XompfIvOUYdaJ6oR7VRk/a+HBDY4KwPnJQT9LSngoxWyIHJVpSSXJ1nWxc5c6hQ7i6mo/eepfyJSvRUgJIjViuxqirzmSnCw6XXS7LZy+mU2Eh3sICTKGKqdwEzVol6uStEwFFELbOec/qt25InpP72vWONWMaZWqfZeNP6oR/WspjZ1yNtaIGr5XWDVjDjKWNd9NduNw56jiO2Hs2MsSikMFwSLXxM3bi6ez0t8Ow/LrcfcrqiqjFtAn389Pr/yUgugc3tteNbKbY7CYMB71tDoH2eSTMFFrK3f1Kj4Ch0bF7FwYOGcxOf9mLgp23x8k3iPtFQyEhXeQea+6+Mw9ombWTokgyVOEmHAZDNs+efR0VH/wMRpK6Qodr3ngU324DoDpOndAaEPpC8oKMaz4zoo0nCE3pxbquFEROSlCLvhCOhpG0CC8txaqJY6T1IMTsxkK1TH3xZUKl1ehJtye4jY1nUHcmvPUwiUKvyJZoyFORIQV1KAQUAhuDgCIIG4OSOucPQWDtGPSaBvC3hGrqHQO2Td2XRbx22b1EfymRu3RxXdN7Z9zImUR811ktkhDFM9MeBtHd2eelcM9+DP/bsWxz4C44wYbkQHmFaO5TXMX0fzzJove/kRUAoqWz6BUh6YmmoXkM/O3zGXjUvuxw5HA6Du5N0jGxYymE7LLuMdB9HvSgF00XcRBNhjg2rzBPBlv3zUXuQd23C3nx+H+QrIrg72DjG9aHc194GCdgkJxbgl2XSMPjJgRmXPQtNbkbyjkQvxe5IGZ1RIY3iIraSrfSQ4y6eOlSZrz3H8JldVK4KjMgM2Aw6o7/o/+ZIxGKk+s7mtKrdGsG5Vz4Q/61q4e0BgQUQWgNs7QVjjFTstawb14ThN+KwXtSDslFFUy56VHKP5mNHhLtf11z4O7Y3aRBkezXrmdnLMPBjiddA+PR0IJerDwfHQf2YshRB9Jz9wGQ7ycl8hPWYW+EBoIvajNv+jd8PeVDEqtqcCwbx2eQ17UD/fcdwoADhpJT2AbLC2aasQhykTFS8r6/a3fbNLLfvEUTrEzy0sS7KH3jaxyvQ8hfy5G3T2TXc0/EjsQIz13hemSa7yho3kAane2zIFlaS3RFJR5RAirlpEUyiMWSX4uYMe19UmELOyUaeblJHlK6YpdtuHTyfaS65a23fDEjTO0Ge9ShEFAIrAsBRRDUusgaBJru6Jpn8txdtwgRiEOoL3rqTFb+OJ8vX3ufWR98hjcuFAp1TN2WseiRZx3Hbgftg2m4Xf9EO2jdMDD8Xjy5QbT8AKbXkb0ORIJj2gald5hr7n/dDohgiNr7WBKhRqh5PeAzsL0aSY/0fqdJSkONQkYyeOMnYX2oNA+txs8zLIflU/7HKxfeRU5dCieQomwbnTs/ehWtV2cSi1ZhVoSl7sTmPgQeIrTgCSepW1GBVRvDkKEilxzYqSRff/o5s76YidcyyCgmuwoUDlq7IOe8cQ95u/Yk0dChe61hp4MO9YGSDH1cHyHd3O+t7q8QyEYEFEHIxllRY5IINN/krXmFrHawwRNzoLyOiqUrZUfHQH4u7bbrgtMxJ53N7iYKZvoZ1MMv3PyN9Pjlz/UfrM9B3kBS3KZCax8NaQotSTBsPirrW04Zgalgrc1zp19L+cc/SSlqvcDkLzefz65nHAumSWzuCnTTkaGTdDB/s6xQ0V1RPCdZVUdiVRXELBliSMtJUb2qgs8+ns7KxcvxpDQcsxG+mkPSp7H7eYdz8LVnEw+60tTrOxoj34BoS+Zjs0ChbqoQyAoEFEHIimlQg9hcCDR2iWdq92UlgdipyqTEdJLg5hpAlt23qWEUglDzn/qAN69/hJyIia+tF6urlwnvPA1dOxJdugqjLCrfIhPWEZ0q10d+NvZ1mzay8tialLyuK6nAXi1ULl2NAmG8PZrG3Fmz+PTtD/GIz5NWkxpFjZThEOjXmf+b9gC0z8FyNa1UAGFjJ0SdpxBYBwKKIKhloRDYqhBo8HyIaoCq+ct5csxFBMsTiNrQRG6MPS8/k4Mmng2xFHXzluMV1naTmVpXaCCdBuomYop8jbIQqbJaiJtpj4Gw8BoVq1bx7YzPWblgCSR1HFM0qWg8YW7oQe/dkZP+fS15Q7cHQ5ftrzNeqAbfkMo32KqWunrZ342AIgi/G0J1A4VA9iEgG13+lj10HAJRh48ueYTvXp6G3wInCHY3Lxd9/Dz+wk4klpZhl9dtgsTEhrLIxuEVr1CXrI0RKy7DjKZk+aJI3BQPTCVTFM2ay4z3P5YJik7aayAyFNZUcdRIdMnh2NsuZLujhpES0tbpQ3kQsm9dqhG1LgQUQWhd86VGqxDYAAKugZRhlCZnZgym+H8g5vDDi+8z/eon3GZHPotIe4fj7ryUvuNGQ1WU0JJSKQbVvK6NjXMzRCinwaBL26/p+ETny1CcaFk1qVAMb8otCZVhC8uieOFivvzkc0JllThJG6yM8NTaSQWJLrkcddPf6XfUCGI5v5F0oNaNQkAh0GwEFEFoNmTqgtaOwKaTKc5GJNaXPNkQk/daEJ21nKfOvBarqBJNtDkusPEN7sLfJj+MJy+P8K8rMCJCs3htovHbb93wfBlISBMEqYQoSEA0RayyllhZjaw0kRJQMsxgUlVewaxvf2D+j7PxCmUp0W1TlJ5KT0haAzn98JRm4+/ZkcOuH0+fscOJBRo0tTKS3Nk4O2pMCoHWhIAiCK1pttRYFQItRCBDiqT3oMrkybOvofbD2W4OQMChtq3NJS/8izb7DcYpqSZSvFoa6d+TkOhSBQ1RnaClLKLl1ZhlIYykXR+2MHSd6soqfvj6GxbMmouWcHBSDlpGwapR7WvmR5GQmOoY4KwnbqRwxEBSXhFPaSEw6jKFgEJgvQgogqAWh0JgK0LAiJp8fdsLfPPIVIyEhebRcNon2enswznkmotwkiaxX1aii+ZTzW7n3BD1dys8hcykjbO6jmRFHY7IMxD5BNIpYFNbVcWvs36iaNYvRKojGLYhtShcl4ErL+3U1yq6QRMnoNNr9J6MvuEcjO07gdCoaKKTKRpzuQrWijVsRUtbvepmQEARhM0AqrqlQiAbEdAsi+o3f+DJv99MTsgG3YY8k+Xt4tw7/Q2M7t2ILliBVhNvcWKikIoWypIifJAoq6autBrDtGUCoiAcXsMgWhdi1rczmfn5V3gdD7qpY5vCq5DWnUjzjMahAltziLTxMvKyUxl65pGkcjVMqXq9vkyLbJwBNSaFQOtCQBGE1jVfarQKgRYh4Ddh5Wc/M+ncmzFKoxgO6LkGdqHOqU/eQqehu5EUSYMlVfXGXJpfqU75W+UQrjUX/xXeAS1mkqgMkagKyZJFqW+AIAApqsrLmf39jyxduJh4bQTNFPLIQkK5ob/ympUHGrbukAjodBk2gFEXnEyXof1J5hmIFAUhvSz7Z6TrHjOlk43rIFUlQ4uWi7pIIeAGCIUWSSwWc377S0ChpRBQCLRWBEQHRq24lufOuoGymfPx2hqOzyaRbzLolMM47ObLcOoihBavwi8sbyb+X//Ca5vZTLmizC8wHSlyFKsOES2twpsEr+zECHbKpLxkFbO++56Fc+fJvAYDA1uGMMR9m1ACqZHgKlvGveDt3IZ9Tzmcvc4ai1WYK/thpIMXaWrw2zqIiiC01lWrxp0NCCiCkA2zoMagENgECDTtZSFuKfonWIsreWHCHUQ+nY/t2NiGjd5Bo/uBfTniX7fjD+ZRt03fttQAAAwxSURBVGA5XlG10Nhln2l5KT8TuQH1vn+ZISASCe1wnERZLVp1DM0UIke63HVEwmEWLyxizswfqCmpQBeyyHYmxSBdttjkncXjxFMskUMQ9LLLXw9gr7OOIG+nHlg+wSeEt2D9VRqbAEJ1C4WAQqARAoogqOWgEGgVCDTfMAoXvLcsypv/eJhFkz/HYzk4hoMn18Ds04a/v3Qvge5diC0qBdHKOV3SuJY3UWYcCtMtkggddMvCqYuRWhXCrItLEqJrGkkzQXh1LQvmzGXBL78QXl2Fx/FDWktBEpjGW/omryQ0EuxcLx326MOwC46h94jdsHI8MpwgSyFVzmGrWKlqkFsOAoogbDlzqd5kK0agaY8FzXLwVSd59m83s+KjH8lNCCEi0PMsSvNNJj59L4Ujdie5rIJUdRhdiBE1yTWQAYC0LLLIJTASNvGKGqKrqyFly74IHl0nEYmyfOFiZs38joqSMjAd+UckJroSBg2WXSo8ZmIE9QTBIZ5jkDOgO0dMPINe++yC3caH6RX9GBpNquyboVjCVrzM1av/wQgogvAHA64epxD4vQisq+dg4888FuhVMd6/5Sl+eOF9cuLCrtpoQYu6Tg7jbrmcvoeNJF66Grsikk4SlEWEjZ2LeB0NI+WQisSIV9eRCkXQExbi/slYnIqVpSwqWkDxomWEKmqkB8IQ8skih8F2ywwbOiKkMwvSDZjEL0wDEkGNbkP6M+TIA9l59D44hXnEvelmzJIMNIxJ5RP83pWjrlcINA8BRRCah5c6WyHwpyKQcdOvr8+CMN7eOptXr76HxS/NwJt00HQHy2+S6mhyxE0T2OnoI4iXVmOVh9K7fLe8UP5x3LwFYezjVXVSDlmLJQmIagOgprKaX+fOY/aPPxKuqCFgeDAcAzu5DljqLXqjWIIGcd2CPD9523Xm2IvPputBu2HmG5giAbGhoEHlG/ypK009XCGgqhjUGlAItBoEfoscCMMu/5SFef3aByl7/RvspOl65HNs6gqiHHLlmex95mnES6plE6Z0QQCOaH0t0gtNh1Q4giW8CuE4WsLCTKaoqChjxcKlLC0qorqsAidhutt/R1Q8NO2uuCYZSLdtdFMcDQNPjpe+o4fS54h96LrPzmjtgwjtBHUoBBQC2YeA8iBk35yoESkEmoFAuuzPAf+qCFOvfpAFb3yBX1QNiD4IgThWNy8jzjuOYWeeTqK4EjMURXdcN77QSvIIIlAdIVZRjRlNYpkm0YoaSpYsY/GCIlYuXoZuGXgMr9tuWVh7bKl+UJ9PsM4RyxZM2B4db68ObDNiAAeceyyd+vTA8uuYgl804gaNcxZ/qxtl89M1mwGnOlUhoBCoR0ARBLUYFAKtAIH1GUVp5EV1wuJKXr70n5R8NpuAcPdr4M3TKMuLcsI1F7DT2DFEy2sgksInEg5TFmYoRryyFiuWIFldR/XKcubPnUfJsmXEamPYKcvNJbAEKXCNvXs0KntsJIXs/saNK1iGRjzPoM1O23LAiYez/dBBBHt2Iul3ScH6KhI2ZPzXlX/RCqZPDVEh0CoRUAShVU6bGrRCwG3DHEhp1P68jLdufIxVn8+WOQeOYaPlakTbw6k3XkLPvfeU5EC0eLaiCZlwGK2oIlRaQXVxGWWrSlletIRIVZ1szuTXDSFGgC2SDdPyx43xXlNdscGkC+ljoXrYfvuudB64HXsfNZKue++EVeAh5dn4MkWVjKhWt0IgOxBQBCE75kGNQiHQLARE/oA/Cau/XcCkC27HLKqQ7ZQt3cJo48HoEuDcf95AoH1HEtVhkqXVhFaupmJZCSsWLGb+T3NIxWN4LR2PIZIMHRzLrTrQRUOlNSoamgwtzQnEuZZIgBQNn4I+Cgf0YuQ5x9Nj+E6YnYKkfG6ZoviScZsnrX001yOwIQ9Ds0BUJysEFAK/iYAiCGqBKASyHIHGXvyMgTSiSeY88wEf3/Ecnqq4a4A1SPlteu0zkD1PP1I2XSr/eQnlC5bI5MLa0moS8TDIHgg6um7giPDEWtLKGwBEGH1DR/N66LpHPwqH96fPYXvTZuC26F6Pq9+u9AqyfFWp4SkENoyAIggbxkidoRD4UxAQioaNDa2oUhCdEvXKGDPueJ6vX3wPb9jCk+mCqGv4OgTpvUsffvrhJxLxOD7Lg1/zYejCS2Bh21Y6T6CRG2A9b5fJOXAbLWs4hoZV4CPR0c+gsftx4IlHktOtIwQMUoaT7q74p0ClHqoQUAhsBgQUQdgMoKpbKgR+DwJNiYG4lyAHgQTUzFrM5OsfovK7IrwJR1YhyN+LlARdw9QtdI+Gx9RwNOEdSKski5PWygxs4uCv99+7WQCiitHyG0SCDl133oH+++zBDnvtQuGOPTE65pHyyVQFedv6tg2/58XVtQoBhUBWIaAIQlZNhxqMQqApAppULhRhhAXvf80bt/0bz/Ja0RXBpQVNOzELUiAJRaOIf72qUpMsgCbXCkIgPAEpn05uYVsKuhfSb9iu7DZqBDl9e2Dn6iQ96cc2UTlU86YQUAhseQgogrDlzal6o1aEQGYPv67MfWHkDQvMlTW8dvV9FH/8I76wje7YDbLIG+hg1LjioL4PQlrAWHgYLPGzAbrfC7k+Bh+wNzsetCcdB/XG260dVq5P/n7tnAIhYJB2X7QivNVQFQIKgY1HQBGEjcdKnakQ+EMR8Jqw8OPv+PTuSbJiwRcMkJOTQ/HMeSRrwkiNoTW8AGuGDKS/QDIP13MgKxRkAyYd2wOBwnza9t2WgkE96b3vrnQfvCPednk4Xl3GDMT5Qg5JdGpUh0JAIbD1IaAIwtY35+qNsxqBBiMvShmtcAJ/3MZwPBB2+Ore5/j6hf/gpEQpQgNByCQSylwA2ZVRiCenJY00MP06yaBOLE9j0EHDGXroAWw7qC/kBiDokX0QbNHNWYgYZTU+anAKAYXAH4WAIgh/FNLqOQqBZiMghIogKJITv1/M1DufZOX/5hKMif4HblAiQwIyRt0SRt6nE/eC1iZIzwE7UNi7O90G9KZH/9607dUFCgJYPo2U0C/I0IFmOQnckzegltDst1UXKAQUAtmFgCII2TUfajRbPQINht9jOhi1SX599wveuf0p7BU1+GxDig/ZmiN3+5bhoPkMfHm56DleAh3bsMvwIey41y50GrQjtAngBDSSPjdcUJ/zIEMILdEsbGASiiBs9YtVAbCFI6AIwhY+wer1sh+BdakD6imHuqKVTL/7OZb+51s8KSGCoGHrGvi9bNOrG9v03ZbOA3rRZrsu5PToSKBrezwd8sBnuGWHui7LI2WHBF1Lhx42jEdDoySlW7hhtNQZCoEtFwFFELbcuVVv1ioRcIMFocWlTL3/Gfy1KfLaFNBx26506NWVDj270rbHNvjzg1L3AEMYf931DqQ1CTZQ2NAqUVGDVggoBP54BBRB+OMxV09UCPwGAm4QwGNreIXXQDYzcMsPxI+WCCvIboiuyqKbkKgOhYBCQCGw6RFQBGHTY6ruqBDYJAg0t5HRJnmouolCQCGgEEgjoAiCWgoKgSxDYGM8AxtzTpa9lhqOQkAh0MoQUAShlU2YGu6WioDwF2SkjH77HRU52FLXgHovhUB2IaAIQnbNhxqNQkAhoBBQCCgEsgIBRRCyYhrUIBQCCgGFgEJAIZBdCCiCkF3zoUajEFAIKAQUAgqBrEBAEYSsmAY1CIWAQkAhoBBQCGQXAoogZNd8qNFsxQg0KBhuxSCoV1cIKASyBgFFELJmKtRAFAIKAYWAQkAhkD0IKIKQPXOhRqIQUAgoBBQCCoGsQUARhKyZCjUQhYBCQCGgEFAIZA8CiiBkz1yokSgEFAIKAYWAQiBrEFAEIWumQg1EIaAQUAgoBBQC2YOAIgjZMxdqJAoBhYBCQCGgEMgaBBRByJqpUANRCCgEFAIKAYVA9iCgCEL2zIUaiUJAIaAQUAgoBLIGAUUQsmYq1EAUAgoBhYBCQCGQPQgogpA9c6FGohBQCCgEFAIKgaxBQBGErJkKNRCFgEJAIaAQUAhkDwKKIGTPXKiRKAQUAgoBhYBCIGsQUAQha6ZCDUQhoBBQCCgEFALZg4AiCNkzF2okCgGFgEJAIaAQyBoEFEHImqlQA1EIKAQUAgoBhUD2IFBPELJnSGokCgGFgEJAIaAQUAhkAwL/D8t3U2TiFLL4AAAAAElFTkSuQmCC;" vertex="1" parent="1">
          <mxGeometry x="-270" y="580" width="385.79" height="230" as="geometry" />
        </mxCell>
        <mxCell id="kDyuwAgNTU1D6oL-81Pc-5" value="" style="outlineConnect=0;dashed=0;verticalLabelPosition=bottom;verticalAlign=top;align=center;html=1;shape=mxgraph.aws3.certificate_manager;fillColor=#759C3E;gradientColor=none;" vertex="1" parent="1">
          <mxGeometry x="470" y="-160" width="110" height="100" as="geometry" />
        </mxCell>
        <mxCell id="kDyuwAgNTU1D6oL-81Pc-13" value="" style="shape=image;html=1;verticalAlign=top;verticalLabelPosition=bottom;labelBackgroundColor=#ffffff;imageAspect=0;aspect=fixed;image=https://cdn4.iconfinder.com/data/icons/logos-3/181/MySQL-128.png" vertex="1" parent="1">
          <mxGeometry y="1170" width="230" height="230" as="geometry" />
        </mxCell>
        <mxCell id="kDyuwAgNTU1D6oL-81Pc-15" value="EC2 instance contents" style="points=[[0,0],[0.25,0],[0.5,0],[0.75,0],[1,0],[1,0.25],[1,0.5],[1,0.75],[1,1],[0.75,1],[0.5,1],[0.25,1],[0,1],[0,0.75],[0,0.5],[0,0.25]];outlineConnect=0;gradientColor=none;html=1;whiteSpace=wrap;fontSize=12;fontStyle=0;shape=mxgraph.aws4.group;grIcon=mxgraph.aws4.group_ec2_instance_contents;strokeColor=#D86613;fillColor=none;verticalAlign=top;align=left;spacingLeft=30;fontColor=#D86613;dashed=0;" vertex="1" parent="1">
          <mxGeometry x="-450" y="250" width="710" height="590" as="geometry" />
        </mxCell>
      </root>
    </mxGraphModel>
  </diagram>
</mxfile>
